<?xml version="1.0" encoding="utf-8" standalone="no"?>
<!DOCTYPE svg PUBLIC "-//W3C//DTD SVG 1.1//EN"
  "http://www.w3.org/Graphics/SVG/1.1/DTD/svg11.dtd">
<svg xmlns:xlink="http://www.w3.org/1999/xlink" width="628.2pt" height="324.864pt" viewBox="0 0 628.2 324.864" xmlns="http://www.w3.org/2000/svg" version="1.1">
 <metadata>
  <rdf:RDF xmlns:dc="http://purl.org/dc/elements/1.1/" xmlns:cc="http://creativecommons.org/ns#" xmlns:rdf="http://www.w3.org/1999/02/22-rdf-syntax-ns#">
   <cc:Work>
    <dc:type rdf:resource="http://purl.org/dc/dcmitype/StillImage"/>
    <dc:date>2026-06-27T11:20:04.432327</dc:date>
    <dc:format>image/svg+xml</dc:format>
    <dc:creator>
     <cc:Agent>
      <dc:title>Matplotlib v3.11.0, https://matplotlib.org/</dc:title>
     </cc:Agent>
    </dc:creator>
   </cc:Work>
  </rdf:RDF>
 </metadata>
 <defs>
  <style type="text/css">*{stroke-linejoin: round; stroke-linecap: butt}</style>
 </defs>
 <g id="figure_1">
  <g id="patch_1">
   <path d="M 0 324.864 
L 628.2 324.864 
L 628.2 0 
L 0 0 
z
" style="fill: #ffffff"/>
  </g>
  <g id="axes_1">
   <g id="patch_2">
    <path d="M 31.752 134.39009 
L 179.064 134.39009 
Q 181.5192 134.39009 181.5192 132.387097 
L 181.5192 52.267355 
Q 181.5192 50.264361 179.064 50.264361 
L 31.752 50.264361 
Q 29.2968 50.264361 29.2968 52.267355 
L 29.2968 132.387097 
Q 29.2968 134.39009 31.752 134.39009 
z
" clip-path="url(#pfa2ed2e45c)" style="fill: #dbe9f6; stroke: #333333; stroke-width: 1.6; stroke-linejoin: miter"/>
   </g>
   <g id="patch_3">
    <path d="M 449.136 134.39009 
L 596.448 134.39009 
Q 598.9032 134.39009 598.9032 132.387097 
L 598.9032 52.267355 
Q 598.9032 50.264361 596.448 50.264361 
L 449.136 50.264361 
Q 446.6808 50.264361 446.6808 52.267355 
L 446.6808 132.387097 
Q 446.6808 134.39009 449.136 134.39009 
z
" clip-path="url(#pfa2ed2e45c)" style="fill: #fde0dc; stroke: #333333; stroke-width: 1.6; stroke-linejoin: miter"/>
   </g>
   <g id="patch_4">
    <path d="M 191.34 114.360155 
L 258.858 114.360155 
Q 261.3132 114.360155 261.3132 112.357161 
L 261.3132 72.29729 
Q 261.3132 70.294297 258.858 70.294297 
L 191.34 70.294297 
Q 188.8848 70.294297 188.8848 72.29729 
L 188.8848 112.357161 
Q 188.8848 114.360155 191.34 114.360155 
z
" clip-path="url(#pfa2ed2e45c)" style="fill: #eeeeee; stroke: #333333; stroke-width: 1.6; stroke-linejoin: miter"/>
   </g>
   <g id="patch_5">
    <path d="M 369.342 114.360155 
L 436.86 114.360155 
Q 439.3152 114.360155 439.3152 112.357161 
L 439.3152 72.29729 
Q 439.3152 70.294297 436.86 70.294297 
L 369.342 70.294297 
Q 366.8868 70.294297 366.8868 72.29729 
L 366.8868 112.357161 
Q 366.8868 114.360155 369.342 114.360155 
z
" clip-path="url(#pfa2ed2e45c)" style="fill: #eeeeee; stroke: #333333; stroke-width: 1.6; stroke-linejoin: miter"/>
   </g>
   <g id="patch_6">
    <path d="M 191.34 289.62209 
L 436.86 289.62209 
Q 439.3152 289.62209 439.3152 287.619097 
L 439.3152 222.521806 
Q 439.3152 220.518813 436.86 220.518813 
L 191.34 220.518813 
Q 188.8848 220.518813 188.8848 222.521806 
L 188.8848 287.619097 
Q 188.8848 289.62209 191.34 289.62209 
z
" clip-path="url(#pfa2ed2e45c)" style="fill: #e7f4e7; stroke: #333333; stroke-width: 1.6; stroke-linejoin: miter"/>
   </g>
   <g id="line2d_1">
    <path d="M 258.858 92.327226 
L 369.342 92.327226 
" clip-path="url(#pfa2ed2e45c)" style="fill: none; stroke: #444444; stroke-width: 3.2; stroke-linecap: square"/>
   </g>
   <g id="line2d_2">
    <path d="M 179.064 92.327226 
L 191.34 92.327226 
" clip-path="url(#pfa2ed2e45c)" style="fill: none; stroke: #444444; stroke-width: 2.5; stroke-linecap: square"/>
   </g>
   <g id="line2d_3">
    <path d="M 436.86 92.327226 
L 449.136 92.327226 
" clip-path="url(#pfa2ed2e45c)" style="fill: none; stroke: #444444; stroke-width: 2.5; stroke-linecap: square"/>
   </g>
   <g id="line2d_4">
    <path d="M 74.718 132.387097 
L 74.718 187.469419 
L 228.168 222.521806 
" clip-path="url(#pfa2ed2e45c)" style="fill: none; stroke-dasharray: 11,4.4; stroke-dashoffset: 0; stroke: #1f77b4; stroke-width: 2.2"/>
   </g>
   <g id="line2d_5">
    <path d="M 105.408 132.387097 
L 105.408 187.469419 
L 271.134 222.521806 
" clip-path="url(#pfa2ed2e45c)" style="fill: none; stroke-dasharray: 11,4.4; stroke-dashoffset: 0; stroke: #ff7f0e; stroke-width: 2.2"/>
   </g>
   <g id="line2d_6">
    <path d="M 136.098 132.387097 
L 136.098 187.469419 
L 314.1 222.521806 
" clip-path="url(#pfa2ed2e45c)" style="fill: none; stroke-dasharray: 11,4.4; stroke-dashoffset: 0; stroke: #2ca02c; stroke-width: 2.2"/>
   </g>
   <g id="line2d_7">
    <path d="M 547.344 132.387097 
L 547.344 187.469419 
L 393.894 222.521806 
" clip-path="url(#pfa2ed2e45c)" style="fill: none; stroke-dasharray: 11,4.4; stroke-dashoffset: 0; stroke: #d62728; stroke-width: 2.2"/>
   </g>
   <g id="text_1">
    <!-- Hardware-in-the-loop bench -->
    <g transform="translate(211.075 17.214968) scale(0.13 -0.13)">
     <defs>
      <path id="DejaVuSans-Bold-2b" d="M 588 4666 
L 1791 4666 
L 1791 2888 
L 3566 2888 
L 3566 4666 
L 4769 4666 
L 4769 0 
L 3566 0 
L 3566 1978 
L 1791 1978 
L 1791 0 
L 588 0 
L 588 4666 
z
" transform="scale(0.015625)"/>
      <path id="DejaVuSans-Bold-44" d="M 2106 1575 
Q 1756 1575 1579 1456 
Q 1403 1338 1403 1106 
Q 1403 894 1545 773 
Q 1688 653 1941 653 
Q 2256 653 2472 879 
Q 2688 1106 2688 1447 
L 2688 1575 
L 2106 1575 
z
M 3816 1997 
L 3816 0 
L 2688 0 
L 2688 519 
Q 2463 200 2181 54 
Q 1900 -91 1497 -91 
Q 953 -91 614 226 
Q 275 544 275 1050 
Q 275 1666 698 1953 
Q 1122 2241 2028 2241 
L 2688 2241 
L 2688 2328 
Q 2688 2594 2478 2717 
Q 2269 2841 1825 2841 
Q 1466 2841 1156 2769 
Q 847 2697 581 2553 
L 581 3406 
Q 941 3494 1303 3539 
Q 1666 3584 2028 3584 
Q 2975 3584 3395 3211 
Q 3816 2838 3816 1997 
z
" transform="scale(0.015625)"/>
      <path id="DejaVuSans-Bold-55" d="M 3138 2547 
Q 2991 2616 2845 2648 
Q 2700 2681 2553 2681 
Q 2122 2681 1889 2404 
Q 1656 2128 1656 1613 
L 1656 0 
L 538 0 
L 538 3500 
L 1656 3500 
L 1656 2925 
Q 1872 3269 2151 3426 
Q 2431 3584 2822 3584 
Q 2878 3584 2943 3579 
Q 3009 3575 3134 3559 
L 3138 2547 
z
" transform="scale(0.015625)"/>
      <path id="DejaVuSans-Bold-47" d="M 2919 2988 
L 2919 4863 
L 4044 4863 
L 4044 0 
L 2919 0 
L 2919 506 
Q 2688 197 2409 53 
Q 2131 -91 1766 -91 
Q 1119 -91 703 423 
Q 288 938 288 1747 
Q 288 2556 703 3070 
Q 1119 3584 1766 3584 
Q 2128 3584 2408 3439 
Q 2688 3294 2919 2988 
z
M 2181 722 
Q 2541 722 2730 984 
Q 2919 1247 2919 1747 
Q 2919 2247 2730 2509 
Q 2541 2772 2181 2772 
Q 1825 2772 1636 2509 
Q 1447 2247 1447 1747 
Q 1447 1247 1636 984 
Q 1825 722 2181 722 
z
" transform="scale(0.015625)"/>
      <path id="DejaVuSans-Bold-5a" d="M 225 3500 
L 1313 3500 
L 1900 1088 
L 2491 3500 
L 3425 3500 
L 4013 1113 
L 4603 3500 
L 5691 3500 
L 4769 0 
L 3547 0 
L 2956 2406 
L 2369 0 
L 1147 0 
L 225 3500 
z
" transform="scale(0.015625)"/>
      <path id="DejaVuSans-Bold-48" d="M 4031 1759 
L 4031 1441 
L 1416 1441 
Q 1456 1047 1700 850 
Q 1944 653 2381 653 
Q 2734 653 3104 758 
Q 3475 863 3866 1075 
L 3866 213 
Q 3469 63 3072 -14 
Q 2675 -91 2278 -91 
Q 1328 -91 801 392 
Q 275 875 275 1747 
Q 275 2603 792 3093 
Q 1309 3584 2216 3584 
Q 3041 3584 3536 3087 
Q 4031 2591 4031 1759 
z
M 2881 2131 
Q 2881 2450 2695 2645 
Q 2509 2841 2209 2841 
Q 1884 2841 1681 2658 
Q 1478 2475 1428 2131 
L 2881 2131 
z
" transform="scale(0.015625)"/>
      <path id="DejaVuSans-Bold-10" d="M 347 2297 
L 2309 2297 
L 2309 1388 
L 347 1388 
L 347 2297 
z
" transform="scale(0.015625)"/>
      <path id="DejaVuSans-Bold-4c" d="M 538 3500 
L 1656 3500 
L 1656 0 
L 538 0 
L 538 3500 
z
M 538 4863 
L 1656 4863 
L 1656 3950 
L 538 3950 
L 538 4863 
z
" transform="scale(0.015625)"/>
      <path id="DejaVuSans-Bold-51" d="M 4056 2131 
L 4056 0 
L 2931 0 
L 2931 347 
L 2931 1631 
Q 2931 2084 2911 2256 
Q 2891 2428 2841 2509 
Q 2775 2619 2662 2680 
Q 2550 2741 2406 2741 
Q 2056 2741 1856 2470 
Q 1656 2200 1656 1722 
L 1656 0 
L 538 0 
L 538 3500 
L 1656 3500 
L 1656 2988 
Q 1909 3294 2193 3439 
Q 2478 3584 2822 3584 
Q 3428 3584 3742 3212 
Q 4056 2841 4056 2131 
z
" transform="scale(0.015625)"/>
      <path id="DejaVuSans-Bold-57" d="M 1759 4494 
L 1759 3500 
L 2913 3500 
L 2913 2700 
L 1759 2700 
L 1759 1216 
Q 1759 972 1856 886 
Q 1953 800 2241 800 
L 2816 800 
L 2816 0 
L 1856 0 
Q 1194 0 917 276 
Q 641 553 641 1216 
L 641 2700 
L 84 2700 
L 84 3500 
L 641 3500 
L 641 4494 
L 1759 4494 
z
" transform="scale(0.015625)"/>
      <path id="DejaVuSans-Bold-4b" d="M 4056 2131 
L 4056 0 
L 2931 0 
L 2931 347 
L 2931 1625 
Q 2931 2084 2911 2256 
Q 2891 2428 2841 2509 
Q 2775 2619 2662 2680 
Q 2550 2741 2406 2741 
Q 2056 2741 1856 2470 
Q 1656 2200 1656 1722 
L 1656 0 
L 538 0 
L 538 4863 
L 1656 4863 
L 1656 2988 
Q 1909 3294 2193 3439 
Q 2478 3584 2822 3584 
Q 3428 3584 3742 3212 
Q 4056 2841 4056 2131 
z
" transform="scale(0.015625)"/>
      <path id="DejaVuSans-Bold-4f" d="M 538 4863 
L 1656 4863 
L 1656 0 
L 538 0 
L 538 4863 
z
" transform="scale(0.015625)"/>
      <path id="DejaVuSans-Bold-52" d="M 2203 2784 
Q 1831 2784 1636 2517 
Q 1441 2250 1441 1747 
Q 1441 1244 1636 976 
Q 1831 709 2203 709 
Q 2569 709 2762 976 
Q 2956 1244 2956 1747 
Q 2956 2250 2762 2517 
Q 2569 2784 2203 2784 
z
M 2203 3584 
Q 3106 3584 3614 3096 
Q 4122 2609 4122 1747 
Q 4122 884 3614 396 
Q 3106 -91 2203 -91 
Q 1297 -91 786 396 
Q 275 884 275 1747 
Q 275 2609 786 3096 
Q 1297 3584 2203 3584 
z
" transform="scale(0.015625)"/>
      <path id="DejaVuSans-Bold-53" d="M 1656 506 
L 1656 -1331 
L 538 -1331 
L 538 3500 
L 1656 3500 
L 1656 2988 
Q 1888 3294 2169 3439 
Q 2450 3584 2816 3584 
Q 3463 3584 3878 3070 
Q 4294 2556 4294 1747 
Q 4294 938 3878 423 
Q 3463 -91 2816 -91 
Q 2450 -91 2169 54 
Q 1888 200 1656 506 
z
M 2400 2772 
Q 2041 2772 1848 2508 
Q 1656 2244 1656 1747 
Q 1656 1250 1848 986 
Q 2041 722 2400 722 
Q 2759 722 2948 984 
Q 3138 1247 3138 1747 
Q 3138 2247 2948 2509 
Q 2759 2772 2400 2772 
z
" transform="scale(0.015625)"/>
      <path id="DejaVuSans-Bold-3" transform="scale(0.015625)"/>
      <path id="DejaVuSans-Bold-45" d="M 2400 722 
Q 2759 722 2948 984 
Q 3138 1247 3138 1747 
Q 3138 2247 2948 2509 
Q 2759 2772 2400 2772 
Q 2041 2772 1848 2508 
Q 1656 2244 1656 1747 
Q 1656 1250 1848 986 
Q 2041 722 2400 722 
z
M 1656 2988 
Q 1888 3294 2169 3439 
Q 2450 3584 2816 3584 
Q 3463 3584 3878 3070 
Q 4294 2556 4294 1747 
Q 4294 938 3878 423 
Q 3463 -91 2816 -91 
Q 2450 -91 2169 54 
Q 1888 200 1656 506 
L 1656 0 
L 538 0 
L 538 4863 
L 1656 4863 
L 1656 2988 
z
" transform="scale(0.015625)"/>
      <path id="DejaVuSans-Bold-46" d="M 3366 3391 
L 3366 2478 
Q 3138 2634 2908 2709 
Q 2678 2784 2431 2784 
Q 1963 2784 1702 2511 
Q 1441 2238 1441 1747 
Q 1441 1256 1702 982 
Q 1963 709 2431 709 
Q 2694 709 2930 787 
Q 3166 866 3366 1019 
L 3366 103 
Q 3103 6 2833 -42 
Q 2563 -91 2291 -91 
Q 1344 -91 809 395 
Q 275 881 275 1747 
Q 275 2613 809 3098 
Q 1344 3584 2291 3584 
Q 2566 3584 2833 3536 
Q 3100 3488 3366 3391 
z
" transform="scale(0.015625)"/>
     </defs>
     <use xlink:href="#DejaVuSans-Bold-2b"/>
     <use xlink:href="#DejaVuSans-Bold-44" transform="translate(83.6875 0)"/>
     <use xlink:href="#DejaVuSans-Bold-55" transform="translate(151.171875 0)"/>
     <use xlink:href="#DejaVuSans-Bold-47" transform="translate(200.484375 0)"/>
     <use xlink:href="#DejaVuSans-Bold-5a" transform="translate(272.0625 0)"/>
     <use xlink:href="#DejaVuSans-Bold-44" transform="translate(364.453125 0)"/>
     <use xlink:href="#DejaVuSans-Bold-55" transform="translate(431.9375 0)"/>
     <use xlink:href="#DejaVuSans-Bold-48" transform="translate(481.25 0)"/>
     <use xlink:href="#DejaVuSans-Bold-10" transform="translate(549.078125 0)"/>
     <use xlink:href="#DejaVuSans-Bold-4c" transform="translate(590.578125 0)"/>
     <use xlink:href="#DejaVuSans-Bold-51" transform="translate(624.859375 0)"/>
     <use xlink:href="#DejaVuSans-Bold-10" transform="translate(696.046875 0)"/>
     <use xlink:href="#DejaVuSans-Bold-57" transform="translate(737.546875 0)"/>
     <use xlink:href="#DejaVuSans-Bold-4b" transform="translate(785.34375 0)"/>
     <use xlink:href="#DejaVuSans-Bold-48" transform="translate(856.53125 0)"/>
     <use xlink:href="#DejaVuSans-Bold-10" transform="translate(924.359375 0)"/>
     <use xlink:href="#DejaVuSans-Bold-4f" transform="translate(965.859375 0)"/>
     <use xlink:href="#DejaVuSans-Bold-52" transform="translate(1000.140625 0)"/>
     <use xlink:href="#DejaVuSans-Bold-52" transform="translate(1068.84375 0)"/>
     <use xlink:href="#DejaVuSans-Bold-53" transform="translate(1137.546875 0)"/>
     <use xlink:href="#DejaVuSans-Bold-3" transform="translate(1209.125 0)"/>
     <use xlink:href="#DejaVuSans-Bold-45" transform="translate(1243.9375 0)"/>
     <use xlink:href="#DejaVuSans-Bold-48" transform="translate(1315.515625 0)"/>
     <use xlink:href="#DejaVuSans-Bold-51" transform="translate(1383.34375 0)"/>
     <use xlink:href="#DejaVuSans-Bold-46" transform="translate(1454.53125 0)"/>
     <use xlink:href="#DejaVuSans-Bold-4b" transform="translate(1513.8125 0)"/>
    </g>
   </g>
   <g id="text_2">
    <!-- Controller (DUT) -->
    <g transform="translate(68.824406 83.86371) scale(0.09 -0.09)">
     <defs>
      <path id="DejaVuSans-26" d="M 4122 4306 
L 4122 3641 
Q 3803 3938 3442 4084 
Q 3081 4231 2675 4231 
Q 1875 4231 1450 3742 
Q 1025 3253 1025 2328 
Q 1025 1406 1450 917 
Q 1875 428 2675 428 
Q 3081 428 3442 575 
Q 3803 722 4122 1019 
L 4122 359 
Q 3791 134 3420 21 
Q 3050 -91 2638 -91 
Q 1578 -91 968 557 
Q 359 1206 359 2328 
Q 359 3453 968 4101 
Q 1578 4750 2638 4750 
Q 3056 4750 3426 4639 
Q 3797 4528 4122 4306 
z
" transform="scale(0.015625)"/>
      <path id="DejaVuSans-52" d="M 1959 3097 
Q 1497 3097 1228 2736 
Q 959 2375 959 1747 
Q 959 1119 1226 758 
Q 1494 397 1959 397 
Q 2419 397 2687 759 
Q 2956 1122 2956 1747 
Q 2956 2369 2687 2733 
Q 2419 3097 1959 3097 
z
M 1959 3584 
Q 2709 3584 3137 3096 
Q 3566 2609 3566 1747 
Q 3566 888 3137 398 
Q 2709 -91 1959 -91 
Q 1206 -91 779 398 
Q 353 888 353 1747 
Q 353 2609 779 3096 
Q 1206 3584 1959 3584 
z
" transform="scale(0.015625)"/>
      <path id="DejaVuSans-51" d="M 3513 2113 
L 3513 0 
L 2938 0 
L 2938 2094 
Q 2938 2591 2744 2837 
Q 2550 3084 2163 3084 
Q 1697 3084 1428 2787 
Q 1159 2491 1159 1978 
L 1159 0 
L 581 0 
L 581 3500 
L 1159 3500 
L 1159 2956 
Q 1366 3272 1645 3428 
Q 1925 3584 2291 3584 
Q 2894 3584 3203 3211 
Q 3513 2838 3513 2113 
z
" transform="scale(0.015625)"/>
      <path id="DejaVuSans-57" d="M 1172 4494 
L 1172 3500 
L 2356 3500 
L 2356 3053 
L 1172 3053 
L 1172 1153 
Q 1172 725 1289 603 
Q 1406 481 1766 481 
L 2356 481 
L 2356 0 
L 1766 0 
Q 1100 0 847 248 
Q 594 497 594 1153 
L 594 3053 
L 172 3053 
L 172 3500 
L 594 3500 
L 594 4494 
L 1172 4494 
z
" transform="scale(0.015625)"/>
      <path id="DejaVuSans-55" d="M 2631 2963 
Q 2534 3019 2420 3045 
Q 2306 3072 2169 3072 
Q 1681 3072 1420 2755 
Q 1159 2438 1159 1844 
L 1159 0 
L 581 0 
L 581 3500 
L 1159 3500 
L 1159 2956 
Q 1341 3275 1631 3429 
Q 1922 3584 2338 3584 
Q 2397 3584 2469 3576 
Q 2541 3569 2628 3553 
L 2631 2963 
z
" transform="scale(0.015625)"/>
      <path id="DejaVuSans-4f" d="M 603 4863 
L 1178 4863 
L 1178 0 
L 603 0 
L 603 4863 
z
" transform="scale(0.015625)"/>
      <path id="DejaVuSans-48" d="M 3597 1894 
L 3597 1613 
L 953 1613 
Q 991 1019 1311 708 
Q 1631 397 2203 397 
Q 2534 397 2845 478 
Q 3156 559 3463 722 
L 3463 178 
Q 3153 47 2828 -22 
Q 2503 -91 2169 -91 
Q 1331 -91 842 396 
Q 353 884 353 1716 
Q 353 2575 817 3079 
Q 1281 3584 2069 3584 
Q 2775 3584 3186 3129 
Q 3597 2675 3597 1894 
z
M 3022 2063 
Q 3016 2534 2758 2815 
Q 2500 3097 2075 3097 
Q 1594 3097 1305 2825 
Q 1016 2553 972 2059 
L 3022 2063 
z
" transform="scale(0.015625)"/>
      <path id="DejaVuSans-3" transform="scale(0.015625)"/>
      <path id="DejaVuSans-b" d="M 1984 4856 
Q 1566 4138 1362 3434 
Q 1159 2731 1159 2009 
Q 1159 1288 1364 580 
Q 1569 -128 1984 -844 
L 1484 -844 
Q 1016 -109 783 600 
Q 550 1309 550 2009 
Q 550 2706 781 3412 
Q 1013 4119 1484 4856 
L 1984 4856 
z
" transform="scale(0.015625)"/>
      <path id="DejaVuSans-27" d="M 1259 4147 
L 1259 519 
L 2022 519 
Q 2988 519 3436 956 
Q 3884 1394 3884 2338 
Q 3884 3275 3436 3711 
Q 2988 4147 2022 4147 
L 1259 4147 
z
M 628 4666 
L 1925 4666 
Q 3281 4666 3915 4102 
Q 4550 3538 4550 2338 
Q 4550 1131 3912 565 
Q 3275 0 1925 0 
L 628 0 
L 628 4666 
z
" transform="scale(0.015625)"/>
      <path id="DejaVuSans-38" d="M 556 4666 
L 1191 4666 
L 1191 1831 
Q 1191 1081 1462 751 
Q 1734 422 2344 422 
Q 2950 422 3222 751 
Q 3494 1081 3494 1831 
L 3494 4666 
L 4128 4666 
L 4128 1753 
Q 4128 841 3676 375 
Q 3225 -91 2344 -91 
Q 1459 -91 1007 375 
Q 556 841 556 1753 
L 556 4666 
z
" transform="scale(0.015625)"/>
      <path id="DejaVuSans-37" d="M -19 4666 
L 3928 4666 
L 3928 4134 
L 2272 4134 
L 2272 0 
L 1638 0 
L 1638 4134 
L -19 4134 
L -19 4666 
z
" transform="scale(0.015625)"/>
      <path id="DejaVuSans-c" d="M 513 4856 
L 1013 4856 
Q 1481 4119 1714 3412 
Q 1947 2706 1947 2009 
Q 1947 1309 1714 600 
Q 1481 -109 1013 -844 
L 513 -844 
Q 928 -128 1133 580 
Q 1338 1288 1338 2009 
Q 1338 2731 1133 3434 
Q 928 4138 513 4856 
z
" transform="scale(0.015625)"/>
     </defs>
     <use xlink:href="#DejaVuSans-26"/>
     <use xlink:href="#DejaVuSans-52" transform="translate(69.828125 0)"/>
     <use xlink:href="#DejaVuSans-51" transform="translate(131.015625 0)"/>
     <use xlink:href="#DejaVuSans-57" transform="translate(194.390625 0)"/>
     <use xlink:href="#DejaVuSans-55" transform="translate(233.59375 0)"/>
     <use xlink:href="#DejaVuSans-52" transform="translate(272.5 0)"/>
     <use xlink:href="#DejaVuSans-4f" transform="translate(333.6875 0)"/>
     <use xlink:href="#DejaVuSans-4f" transform="translate(361.46875 0)"/>
     <use xlink:href="#DejaVuSans-48" transform="translate(389.25 0)"/>
     <use xlink:href="#DejaVuSans-55" transform="translate(450.78125 0)"/>
     <use xlink:href="#DejaVuSans-3" transform="translate(491.890625 0)"/>
     <use xlink:href="#DejaVuSans-b" transform="translate(523.671875 0)"/>
     <use xlink:href="#DejaVuSans-27" transform="translate(562.6875 0)"/>
     <use xlink:href="#DejaVuSans-38" transform="translate(639.6875 0)"/>
     <use xlink:href="#DejaVuSans-37" transform="translate(712.875 0)"/>
     <use xlink:href="#DejaVuSans-c" transform="translate(773.953125 0)"/>
    </g>
    <!-- LuxDMX  ESP32-S3 -->
    <g transform="translate(62.690344 94.665468) scale(0.09 -0.09)">
     <defs>
      <path id="DejaVuSans-2f" d="M 628 4666 
L 1259 4666 
L 1259 531 
L 3531 531 
L 3531 0 
L 628 0 
L 628 4666 
z
" transform="scale(0.015625)"/>
      <path id="DejaVuSans-58" d="M 544 1381 
L 544 3500 
L 1119 3500 
L 1119 1403 
Q 1119 906 1312 657 
Q 1506 409 1894 409 
Q 2359 409 2629 706 
Q 2900 1003 2900 1516 
L 2900 3500 
L 3475 3500 
L 3475 0 
L 2900 0 
L 2900 538 
Q 2691 219 2414 64 
Q 2138 -91 1772 -91 
Q 1169 -91 856 284 
Q 544 659 544 1381 
z
M 1991 3584 
L 1991 3584 
z
" transform="scale(0.015625)"/>
      <path id="DejaVuSans-5b" d="M 3513 3500 
L 2247 1797 
L 3578 0 
L 2900 0 
L 1881 1375 
L 863 0 
L 184 0 
L 1544 1831 
L 300 3500 
L 978 3500 
L 1906 2253 
L 2834 3500 
L 3513 3500 
z
" transform="scale(0.015625)"/>
      <path id="DejaVuSans-30" d="M 628 4666 
L 1569 4666 
L 2759 1491 
L 3956 4666 
L 4897 4666 
L 4897 0 
L 4281 0 
L 4281 4097 
L 3078 897 
L 2444 897 
L 1241 4097 
L 1241 0 
L 628 0 
L 628 4666 
z
" transform="scale(0.015625)"/>
      <path id="DejaVuSans-3b" d="M 403 4666 
L 1081 4666 
L 2241 2931 
L 3406 4666 
L 4084 4666 
L 2584 2425 
L 4184 0 
L 3506 0 
L 2194 1984 
L 872 0 
L 191 0 
L 1856 2491 
L 403 4666 
z
" transform="scale(0.015625)"/>
      <path id="DejaVuSans-28" d="M 628 4666 
L 3578 4666 
L 3578 4134 
L 1259 4134 
L 1259 2753 
L 3481 2753 
L 3481 2222 
L 1259 2222 
L 1259 531 
L 3634 531 
L 3634 0 
L 628 0 
L 628 4666 
z
" transform="scale(0.015625)"/>
      <path id="DejaVuSans-36" d="M 3425 4513 
L 3425 3897 
Q 3066 4069 2747 4153 
Q 2428 4238 2131 4238 
Q 1616 4238 1336 4038 
Q 1056 3838 1056 3469 
Q 1056 3159 1242 3001 
Q 1428 2844 1947 2747 
L 2328 2669 
Q 3034 2534 3370 2195 
Q 3706 1856 3706 1288 
Q 3706 609 3251 259 
Q 2797 -91 1919 -91 
Q 1588 -91 1214 -16 
Q 841 59 441 206 
L 441 856 
Q 825 641 1194 531 
Q 1563 422 1919 422 
Q 2459 422 2753 634 
Q 3047 847 3047 1241 
Q 3047 1584 2836 1778 
Q 2625 1972 2144 2069 
L 1759 2144 
Q 1053 2284 737 2584 
Q 422 2884 422 3419 
Q 422 4038 858 4394 
Q 1294 4750 2059 4750 
Q 2388 4750 2728 4690 
Q 3069 4631 3425 4513 
z
" transform="scale(0.015625)"/>
      <path id="DejaVuSans-33" d="M 1259 4147 
L 1259 2394 
L 2053 2394 
Q 2494 2394 2734 2622 
Q 2975 2850 2975 3272 
Q 2975 3691 2734 3919 
Q 2494 4147 2053 4147 
L 1259 4147 
z
M 628 4666 
L 2053 4666 
Q 2838 4666 3239 4311 
Q 3641 3956 3641 3272 
Q 3641 2581 3239 2228 
Q 2838 1875 2053 1875 
L 1259 1875 
L 1259 0 
L 628 0 
L 628 4666 
z
" transform="scale(0.015625)"/>
      <path id="DejaVuSans-16" d="M 2597 2516 
Q 3050 2419 3304 2112 
Q 3559 1806 3559 1356 
Q 3559 666 3084 287 
Q 2609 -91 1734 -91 
Q 1441 -91 1130 -33 
Q 819 25 488 141 
L 488 750 
Q 750 597 1062 519 
Q 1375 441 1716 441 
Q 2309 441 2620 675 
Q 2931 909 2931 1356 
Q 2931 1769 2642 2001 
Q 2353 2234 1838 2234 
L 1294 2234 
L 1294 2753 
L 1863 2753 
Q 2328 2753 2575 2939 
Q 2822 3125 2822 3475 
Q 2822 3834 2567 4026 
Q 2313 4219 1838 4219 
Q 1578 4219 1281 4162 
Q 984 4106 628 3988 
L 628 4550 
Q 988 4650 1302 4700 
Q 1616 4750 1894 4750 
Q 2613 4750 3031 4423 
Q 3450 4097 3450 3541 
Q 3450 3153 3228 2886 
Q 3006 2619 2597 2516 
z
" transform="scale(0.015625)"/>
      <path id="DejaVuSans-15" d="M 1228 531 
L 3431 531 
L 3431 0 
L 469 0 
L 469 531 
Q 828 903 1448 1529 
Q 2069 2156 2228 2338 
Q 2531 2678 2651 2914 
Q 2772 3150 2772 3378 
Q 2772 3750 2511 3984 
Q 2250 4219 1831 4219 
Q 1534 4219 1204 4116 
Q 875 4013 500 3803 
L 500 4441 
Q 881 4594 1212 4672 
Q 1544 4750 1819 4750 
Q 2544 4750 2975 4387 
Q 3406 4025 3406 3419 
Q 3406 3131 3298 2873 
Q 3191 2616 2906 2266 
Q 2828 2175 2409 1742 
Q 1991 1309 1228 531 
z
" transform="scale(0.015625)"/>
      <path id="DejaVuSans-10" d="M 313 2009 
L 1997 2009 
L 1997 1497 
L 313 1497 
L 313 2009 
z
" transform="scale(0.015625)"/>
     </defs>
     <use xlink:href="#DejaVuSans-2f"/>
     <use xlink:href="#DejaVuSans-58" transform="translate(53.96875 0)"/>
     <use xlink:href="#DejaVuSans-5b" transform="translate(117.34375 0)"/>
     <use xlink:href="#DejaVuSans-27" transform="translate(176.53125 0)"/>
     <use xlink:href="#DejaVuSans-30" transform="translate(253.53125 0)"/>
     <use xlink:href="#DejaVuSans-3b" transform="translate(339.8125 0)"/>
     <use xlink:href="#DejaVuSans-3" transform="translate(408.3125 0)"/>
     <use xlink:href="#DejaVuSans-3" transform="translate(440.09375 0)"/>
     <use xlink:href="#DejaVuSans-28" transform="translate(471.875 0)"/>
     <use xlink:href="#DejaVuSans-36" transform="translate(535.0625 0)"/>
     <use xlink:href="#DejaVuSans-33" transform="translate(598.546875 0)"/>
     <use xlink:href="#DejaVuSans-16" transform="translate(658.84375 0)"/>
     <use xlink:href="#DejaVuSans-15" transform="translate(722.46875 0)"/>
     <use xlink:href="#DejaVuSans-10" transform="translate(786.09375 0)"/>
     <use xlink:href="#DejaVuSans-36" transform="translate(822.171875 0)"/>
     <use xlink:href="#DejaVuSans-16" transform="translate(885.65625 0)"/>
    </g>
    <!-- TX 17    EN 8    RX 18 -->
    <g transform="translate(57.110344 105.467226) scale(0.09 -0.09)">
     <defs>
      <path id="DejaVuSans-14" d="M 794 531 
L 1825 531 
L 1825 4091 
L 703 3866 
L 703 4441 
L 1819 4666 
L 2450 4666 
L 2450 531 
L 3481 531 
L 3481 0 
L 794 0 
L 794 531 
z
" transform="scale(0.015625)"/>
      <path id="DejaVuSans-1a" d="M 525 4666 
L 3525 4666 
L 3525 4397 
L 1831 0 
L 1172 0 
L 2766 4134 
L 525 4134 
L 525 4666 
z
" transform="scale(0.015625)"/>
      <path id="DejaVuSans-31" d="M 628 4666 
L 1478 4666 
L 3547 763 
L 3547 4666 
L 4159 4666 
L 4159 0 
L 3309 0 
L 1241 3903 
L 1241 0 
L 628 0 
L 628 4666 
z
" transform="scale(0.015625)"/>
      <path id="DejaVuSans-1b" d="M 2034 2216 
Q 1584 2216 1326 1975 
Q 1069 1734 1069 1313 
Q 1069 891 1326 650 
Q 1584 409 2034 409 
Q 2484 409 2743 651 
Q 3003 894 3003 1313 
Q 3003 1734 2745 1975 
Q 2488 2216 2034 2216 
z
M 1403 2484 
Q 997 2584 770 2862 
Q 544 3141 544 3541 
Q 544 4100 942 4425 
Q 1341 4750 2034 4750 
Q 2731 4750 3128 4425 
Q 3525 4100 3525 3541 
Q 3525 3141 3298 2862 
Q 3072 2584 2669 2484 
Q 3125 2378 3379 2068 
Q 3634 1759 3634 1313 
Q 3634 634 3220 271 
Q 2806 -91 2034 -91 
Q 1263 -91 848 271 
Q 434 634 434 1313 
Q 434 1759 690 2068 
Q 947 2378 1403 2484 
z
M 1172 3481 
Q 1172 3119 1398 2916 
Q 1625 2713 2034 2713 
Q 2441 2713 2670 2916 
Q 2900 3119 2900 3481 
Q 2900 3844 2670 4047 
Q 2441 4250 2034 4250 
Q 1625 4250 1398 4047 
Q 1172 3844 1172 3481 
z
" transform="scale(0.015625)"/>
      <path id="DejaVuSans-35" d="M 2841 2188 
Q 3044 2119 3236 1894 
Q 3428 1669 3622 1275 
L 4263 0 
L 3584 0 
L 2988 1197 
Q 2756 1666 2539 1819 
Q 2322 1972 1947 1972 
L 1259 1972 
L 1259 0 
L 628 0 
L 628 4666 
L 2053 4666 
Q 2853 4666 3247 4331 
Q 3641 3997 3641 3322 
Q 3641 2881 3436 2590 
Q 3231 2300 2841 2188 
z
M 1259 4147 
L 1259 2491 
L 2053 2491 
Q 2509 2491 2742 2702 
Q 2975 2913 2975 3322 
Q 2975 3731 2742 3939 
Q 2509 4147 2053 4147 
L 1259 4147 
z
" transform="scale(0.015625)"/>
     </defs>
     <use xlink:href="#DejaVuSans-37"/>
     <use xlink:href="#DejaVuSans-3b" transform="translate(61.078125 0)"/>
     <use xlink:href="#DejaVuSans-3" transform="translate(129.578125 0)"/>
     <use xlink:href="#DejaVuSans-14" transform="translate(161.359375 0)"/>
     <use xlink:href="#DejaVuSans-1a" transform="translate(224.984375 0)"/>
     <use xlink:href="#DejaVuSans-3" transform="translate(288.609375 0)"/>
     <use xlink:href="#DejaVuSans-3" transform="translate(320.390625 0)"/>
     <use xlink:href="#DejaVuSans-3" transform="translate(352.171875 0)"/>
     <use xlink:href="#DejaVuSans-3" transform="translate(383.953125 0)"/>
     <use xlink:href="#DejaVuSans-28" transform="translate(415.734375 0)"/>
     <use xlink:href="#DejaVuSans-31" transform="translate(478.921875 0)"/>
     <use xlink:href="#DejaVuSans-3" transform="translate(553.734375 0)"/>
     <use xlink:href="#DejaVuSans-1b" transform="translate(585.515625 0)"/>
     <use xlink:href="#DejaVuSans-3" transform="translate(649.140625 0)"/>
     <use xlink:href="#DejaVuSans-3" transform="translate(680.921875 0)"/>
     <use xlink:href="#DejaVuSans-3" transform="translate(712.703125 0)"/>
     <use xlink:href="#DejaVuSans-3" transform="translate(744.484375 0)"/>
     <use xlink:href="#DejaVuSans-35" transform="translate(776.265625 0)"/>
     <use xlink:href="#DejaVuSans-3b" transform="translate(845.75 0)"/>
     <use xlink:href="#DejaVuSans-3" transform="translate(914.25 0)"/>
     <use xlink:href="#DejaVuSans-14" transform="translate(946.03125 0)"/>
     <use xlink:href="#DejaVuSans-1b" transform="translate(1009.65625 0)"/>
    </g>
   </g>
   <g id="text_3">
    <!-- Sim (RDM responder) -->
    <g transform="translate(474.653953 83.86371) scale(0.09 -0.09)">
     <defs>
      <path id="DejaVuSans-4c" d="M 603 3500 
L 1178 3500 
L 1178 0 
L 603 0 
L 603 3500 
z
M 603 4863 
L 1178 4863 
L 1178 4134 
L 603 4134 
L 603 4863 
z
" transform="scale(0.015625)"/>
      <path id="DejaVuSans-50" d="M 3328 2828 
Q 3544 3216 3844 3400 
Q 4144 3584 4550 3584 
Q 5097 3584 5394 3201 
Q 5691 2819 5691 2113 
L 5691 0 
L 5113 0 
L 5113 2094 
Q 5113 2597 4934 2840 
Q 4756 3084 4391 3084 
Q 3944 3084 3684 2787 
Q 3425 2491 3425 1978 
L 3425 0 
L 2847 0 
L 2847 2094 
Q 2847 2600 2669 2842 
Q 2491 3084 2119 3084 
Q 1678 3084 1418 2786 
Q 1159 2488 1159 1978 
L 1159 0 
L 581 0 
L 581 3500 
L 1159 3500 
L 1159 2956 
Q 1356 3278 1631 3431 
Q 1906 3584 2284 3584 
Q 2666 3584 2933 3390 
Q 3200 3197 3328 2828 
z
" transform="scale(0.015625)"/>
      <path id="DejaVuSans-56" d="M 2834 3397 
L 2834 2853 
Q 2591 2978 2328 3040 
Q 2066 3103 1784 3103 
Q 1356 3103 1142 2972 
Q 928 2841 928 2578 
Q 928 2378 1081 2264 
Q 1234 2150 1697 2047 
L 1894 2003 
Q 2506 1872 2764 1633 
Q 3022 1394 3022 966 
Q 3022 478 2636 193 
Q 2250 -91 1575 -91 
Q 1294 -91 989 -36 
Q 684 19 347 128 
L 347 722 
Q 666 556 975 473 
Q 1284 391 1588 391 
Q 1994 391 2212 530 
Q 2431 669 2431 922 
Q 2431 1156 2273 1281 
Q 2116 1406 1581 1522 
L 1381 1569 
Q 847 1681 609 1914 
Q 372 2147 372 2553 
Q 372 3047 722 3315 
Q 1072 3584 1716 3584 
Q 2034 3584 2315 3537 
Q 2597 3491 2834 3397 
z
" transform="scale(0.015625)"/>
      <path id="DejaVuSans-53" d="M 1159 525 
L 1159 -1331 
L 581 -1331 
L 581 3500 
L 1159 3500 
L 1159 2969 
Q 1341 3281 1617 3432 
Q 1894 3584 2278 3584 
Q 2916 3584 3314 3078 
Q 3713 2572 3713 1747 
Q 3713 922 3314 415 
Q 2916 -91 2278 -91 
Q 1894 -91 1617 61 
Q 1341 213 1159 525 
z
M 3116 1747 
Q 3116 2381 2855 2742 
Q 2594 3103 2138 3103 
Q 1681 3103 1420 2742 
Q 1159 2381 1159 1747 
Q 1159 1113 1420 752 
Q 1681 391 2138 391 
Q 2594 391 2855 752 
Q 3116 1113 3116 1747 
z
" transform="scale(0.015625)"/>
      <path id="DejaVuSans-47" d="M 2906 2969 
L 2906 4863 
L 3481 4863 
L 3481 0 
L 2906 0 
L 2906 525 
Q 2725 213 2448 61 
Q 2172 -91 1784 -91 
Q 1150 -91 751 415 
Q 353 922 353 1747 
Q 353 2572 751 3078 
Q 1150 3584 1784 3584 
Q 2172 3584 2448 3432 
Q 2725 3281 2906 2969 
z
M 947 1747 
Q 947 1113 1208 752 
Q 1469 391 1925 391 
Q 2381 391 2643 752 
Q 2906 1113 2906 1747 
Q 2906 2381 2643 2742 
Q 2381 3103 1925 3103 
Q 1469 3103 1208 2742 
Q 947 2381 947 1747 
z
" transform="scale(0.015625)"/>
     </defs>
     <use xlink:href="#DejaVuSans-36"/>
     <use xlink:href="#DejaVuSans-4c" transform="translate(63.484375 0)"/>
     <use xlink:href="#DejaVuSans-50" transform="translate(91.265625 0)"/>
     <use xlink:href="#DejaVuSans-3" transform="translate(188.671875 0)"/>
     <use xlink:href="#DejaVuSans-b" transform="translate(220.453125 0)"/>
     <use xlink:href="#DejaVuSans-35" transform="translate(259.46875 0)"/>
     <use xlink:href="#DejaVuSans-27" transform="translate(328.953125 0)"/>
     <use xlink:href="#DejaVuSans-30" transform="translate(405.953125 0)"/>
     <use xlink:href="#DejaVuSans-3" transform="translate(492.234375 0)"/>
     <use xlink:href="#DejaVuSans-55" transform="translate(524.015625 0)"/>
     <use xlink:href="#DejaVuSans-48" transform="translate(562.921875 0)"/>
     <use xlink:href="#DejaVuSans-56" transform="translate(624.453125 0)"/>
     <use xlink:href="#DejaVuSans-53" transform="translate(676.546875 0)"/>
     <use xlink:href="#DejaVuSans-52" transform="translate(740.03125 0)"/>
     <use xlink:href="#DejaVuSans-51" transform="translate(801.21875 0)"/>
     <use xlink:href="#DejaVuSans-47" transform="translate(864.59375 0)"/>
     <use xlink:href="#DejaVuSans-48" transform="translate(928.078125 0)"/>
     <use xlink:href="#DejaVuSans-55" transform="translate(989.609375 0)"/>
     <use xlink:href="#DejaVuSans-c" transform="translate(1030.71875 0)"/>
    </g>
    <!-- ESP32-S3 -->
    <g transform="translate(501.308719 94.665468) scale(0.09 -0.09)">
     <use xlink:href="#DejaVuSans-28"/>
     <use xlink:href="#DejaVuSans-36" transform="translate(63.1875 0)"/>
     <use xlink:href="#DejaVuSans-33" transform="translate(126.671875 0)"/>
     <use xlink:href="#DejaVuSans-16" transform="translate(186.96875 0)"/>
     <use xlink:href="#DejaVuSans-15" transform="translate(250.59375 0)"/>
     <use xlink:href="#DejaVuSans-10" transform="translate(314.21875 0)"/>
     <use xlink:href="#DejaVuSans-36" transform="translate(350.296875 0)"/>
     <use xlink:href="#DejaVuSans-16" transform="translate(413.78125 0)"/>
    </g>
    <!-- TX 17    EN 8    RX 18 -->
    <g transform="translate(474.494344 105.467226) scale(0.09 -0.09)">
     <use xlink:href="#DejaVuSans-37"/>
     <use xlink:href="#DejaVuSans-3b" transform="translate(61.078125 0)"/>
     <use xlink:href="#DejaVuSans-3" transform="translate(129.578125 0)"/>
     <use xlink:href="#DejaVuSans-14" transform="translate(161.359375 0)"/>
     <use xlink:href="#DejaVuSans-1a" transform="translate(224.984375 0)"/>
     <use xlink:href="#DejaVuSans-3" transform="translate(288.609375 0)"/>
     <use xlink:href="#DejaVuSans-3" transform="translate(320.390625 0)"/>
     <use xlink:href="#DejaVuSans-3" transform="translate(352.171875 0)"/>
     <use xlink:href="#DejaVuSans-3" transform="translate(383.953125 0)"/>
     <use xlink:href="#DejaVuSans-28" transform="translate(415.734375 0)"/>
     <use xlink:href="#DejaVuSans-31" transform="translate(478.921875 0)"/>
     <use xlink:href="#DejaVuSans-3" transform="translate(553.734375 0)"/>
     <use xlink:href="#DejaVuSans-1b" transform="translate(585.515625 0)"/>
     <use xlink:href="#DejaVuSans-3" transform="translate(649.140625 0)"/>
     <use xlink:href="#DejaVuSans-3" transform="translate(680.921875 0)"/>
     <use xlink:href="#DejaVuSans-3" transform="translate(712.703125 0)"/>
     <use xlink:href="#DejaVuSans-3" transform="translate(744.484375 0)"/>
     <use xlink:href="#DejaVuSans-35" transform="translate(776.265625 0)"/>
     <use xlink:href="#DejaVuSans-3b" transform="translate(845.75 0)"/>
     <use xlink:href="#DejaVuSans-3" transform="translate(914.25 0)"/>
     <use xlink:href="#DejaVuSans-14" transform="translate(946.03125 0)"/>
     <use xlink:href="#DejaVuSans-1b" transform="translate(1009.65625 0)"/>
    </g>
   </g>
   <g id="text_4">
    <!-- MAX3485 -->
    <g transform="translate(205.9915 94.405351) scale(0.08 -0.08)">
     <defs>
      <path id="DejaVuSans-24" d="M 2188 4044 
L 1331 1722 
L 3047 1722 
L 2188 4044 
z
M 1831 4666 
L 2547 4666 
L 4325 0 
L 3669 0 
L 3244 1197 
L 1141 1197 
L 716 0 
L 50 0 
L 1831 4666 
z
" transform="scale(0.015625)"/>
      <path id="DejaVuSans-17" d="M 2419 4116 
L 825 1625 
L 2419 1625 
L 2419 4116 
z
M 2253 4666 
L 3047 4666 
L 3047 1625 
L 3713 1625 
L 3713 1100 
L 3047 1100 
L 3047 0 
L 2419 0 
L 2419 1100 
L 313 1100 
L 313 1709 
L 2253 4666 
z
" transform="scale(0.015625)"/>
      <path id="DejaVuSans-18" d="M 691 4666 
L 3169 4666 
L 3169 4134 
L 1269 4134 
L 1269 2991 
Q 1406 3038 1543 3061 
Q 1681 3084 1819 3084 
Q 2600 3084 3056 2656 
Q 3513 2228 3513 1497 
Q 3513 744 3044 326 
Q 2575 -91 1722 -91 
Q 1428 -91 1123 -41 
Q 819 9 494 109 
L 494 744 
Q 775 591 1075 516 
Q 1375 441 1709 441 
Q 2250 441 2565 725 
Q 2881 1009 2881 1497 
Q 2881 1984 2565 2268 
Q 2250 2553 1709 2553 
Q 1456 2553 1204 2497 
Q 953 2441 691 2322 
L 691 4666 
z
" transform="scale(0.015625)"/>
     </defs>
     <use xlink:href="#DejaVuSans-30"/>
     <use xlink:href="#DejaVuSans-24" transform="translate(86.28125 0)"/>
     <use xlink:href="#DejaVuSans-3b" transform="translate(154.6875 0)"/>
     <use xlink:href="#DejaVuSans-16" transform="translate(223.1875 0)"/>
     <use xlink:href="#DejaVuSans-17" transform="translate(286.8125 0)"/>
     <use xlink:href="#DejaVuSans-1b" transform="translate(350.4375 0)"/>
     <use xlink:href="#DejaVuSans-18" transform="translate(414.0625 0)"/>
    </g>
   </g>
   <g id="text_5">
    <!-- MAX3485 -->
    <g transform="translate(383.9935 94.405351) scale(0.08 -0.08)">
     <use xlink:href="#DejaVuSans-30"/>
     <use xlink:href="#DejaVuSans-24" transform="translate(86.28125 0)"/>
     <use xlink:href="#DejaVuSans-3b" transform="translate(154.6875 0)"/>
     <use xlink:href="#DejaVuSans-16" transform="translate(223.1875 0)"/>
     <use xlink:href="#DejaVuSans-17" transform="translate(286.8125 0)"/>
     <use xlink:href="#DejaVuSans-1b" transform="translate(350.4375 0)"/>
     <use xlink:href="#DejaVuSans-18" transform="translate(414.0625 0)"/>
    </g>
   </g>
   <g id="text_6">
    <!-- Logic Analyzer  - -  4 ch @ 4 MHz (0.25 us/sample) -->
    <g transform="translate(214.4475 247.547014) scale(0.08 -0.08)">
     <defs>
      <path id="DejaVuSans-4a" d="M 2906 1791 
Q 2906 2416 2648 2759 
Q 2391 3103 1925 3103 
Q 1463 3103 1205 2759 
Q 947 2416 947 1791 
Q 947 1169 1205 825 
Q 1463 481 1925 481 
Q 2391 481 2648 825 
Q 2906 1169 2906 1791 
z
M 3481 434 
Q 3481 -459 3084 -895 
Q 2688 -1331 1869 -1331 
Q 1566 -1331 1297 -1286 
Q 1028 -1241 775 -1147 
L 775 -588 
Q 1028 -725 1275 -790 
Q 1522 -856 1778 -856 
Q 2344 -856 2625 -561 
Q 2906 -266 2906 331 
L 2906 616 
Q 2728 306 2450 153 
Q 2172 0 1784 0 
Q 1141 0 747 490 
Q 353 981 353 1791 
Q 353 2603 747 3093 
Q 1141 3584 1784 3584 
Q 2172 3584 2450 3431 
Q 2728 3278 2906 2969 
L 2906 3500 
L 3481 3500 
L 3481 434 
z
" transform="scale(0.015625)"/>
      <path id="DejaVuSans-46" d="M 3122 3366 
L 3122 2828 
Q 2878 2963 2633 3030 
Q 2388 3097 2138 3097 
Q 1578 3097 1268 2742 
Q 959 2388 959 1747 
Q 959 1106 1268 751 
Q 1578 397 2138 397 
Q 2388 397 2633 464 
Q 2878 531 3122 666 
L 3122 134 
Q 2881 22 2623 -34 
Q 2366 -91 2075 -91 
Q 1284 -91 818 406 
Q 353 903 353 1747 
Q 353 2603 823 3093 
Q 1294 3584 2113 3584 
Q 2378 3584 2631 3529 
Q 2884 3475 3122 3366 
z
" transform="scale(0.015625)"/>
      <path id="DejaVuSans-44" d="M 2194 1759 
Q 1497 1759 1228 1600 
Q 959 1441 959 1056 
Q 959 750 1161 570 
Q 1363 391 1709 391 
Q 2188 391 2477 730 
Q 2766 1069 2766 1631 
L 2766 1759 
L 2194 1759 
z
M 3341 1997 
L 3341 0 
L 2766 0 
L 2766 531 
Q 2569 213 2275 61 
Q 1981 -91 1556 -91 
Q 1019 -91 701 211 
Q 384 513 384 1019 
Q 384 1609 779 1909 
Q 1175 2209 1959 2209 
L 2766 2209 
L 2766 2266 
Q 2766 2663 2505 2880 
Q 2244 3097 1772 3097 
Q 1472 3097 1187 3025 
Q 903 2953 641 2809 
L 641 3341 
Q 956 3463 1253 3523 
Q 1550 3584 1831 3584 
Q 2591 3584 2966 3190 
Q 3341 2797 3341 1997 
z
" transform="scale(0.015625)"/>
      <path id="DejaVuSans-5c" d="M 2059 -325 
Q 1816 -950 1584 -1140 
Q 1353 -1331 966 -1331 
L 506 -1331 
L 506 -850 
L 844 -850 
Q 1081 -850 1212 -737 
Q 1344 -625 1503 -206 
L 1606 56 
L 191 3500 
L 800 3500 
L 1894 763 
L 2988 3500 
L 3597 3500 
L 2059 -325 
z
" transform="scale(0.015625)"/>
      <path id="DejaVuSans-5d" d="M 353 3500 
L 3084 3500 
L 3084 2975 
L 922 459 
L 3084 459 
L 3084 0 
L 275 0 
L 275 525 
L 2438 3041 
L 353 3041 
L 353 3500 
z
" transform="scale(0.015625)"/>
      <path id="DejaVuSans-4b" d="M 3513 2113 
L 3513 0 
L 2938 0 
L 2938 2094 
Q 2938 2591 2744 2837 
Q 2550 3084 2163 3084 
Q 1697 3084 1428 2787 
Q 1159 2491 1159 1978 
L 1159 0 
L 581 0 
L 581 4863 
L 1159 4863 
L 1159 2956 
Q 1366 3272 1645 3428 
Q 1925 3584 2291 3584 
Q 2894 3584 3203 3211 
Q 3513 2838 3513 2113 
z
" transform="scale(0.015625)"/>
      <path id="DejaVuSans-23" d="M 2381 1678 
Q 2381 1231 2603 976 
Q 2825 722 3213 722 
Q 3597 722 3817 978 
Q 4038 1234 4038 1678 
Q 4038 2116 3813 2373 
Q 3588 2631 3206 2631 
Q 2828 2631 2604 2375 
Q 2381 2119 2381 1678 
z
M 4084 744 
Q 3897 503 3655 389 
Q 3413 275 3091 275 
Q 2553 275 2217 664 
Q 1881 1053 1881 1678 
Q 1881 2303 2218 2693 
Q 2556 3084 3091 3084 
Q 3413 3084 3656 2967 
Q 3900 2850 4084 2613 
L 4084 3022 
L 4531 3022 
L 4531 722 
Q 4988 791 5245 1139 
Q 5503 1488 5503 2041 
Q 5503 2375 5404 2669 
Q 5306 2963 5106 3213 
Q 4781 3622 4314 3839 
Q 3847 4056 3297 4056 
Q 2913 4056 2559 3954 
Q 2206 3853 1906 3653 
Q 1416 3334 1139 2817 
Q 863 2300 863 1697 
Q 863 1200 1042 765 
Q 1222 331 1563 0 
Q 1891 -325 2322 -495 
Q 2753 -666 3244 -666 
Q 3647 -666 4036 -530 
Q 4425 -394 4750 -141 
L 5031 -488 
Q 4641 -791 4180 -952 
Q 3719 -1113 3244 -1113 
Q 2666 -1113 2153 -908 
Q 1641 -703 1241 -313 
Q 841 78 631 592 
Q 422 1106 422 1697 
Q 422 2266 634 2781 
Q 847 3297 1241 3688 
Q 1644 4084 2172 4295 
Q 2700 4506 3291 4506 
Q 3953 4506 4520 4234 
Q 5088 3963 5472 3463 
Q 5706 3156 5829 2797 
Q 5953 2438 5953 2053 
Q 5953 1231 5456 756 
Q 4959 281 4084 263 
L 4084 744 
z
" transform="scale(0.015625)"/>
      <path id="DejaVuSans-2b" d="M 628 4666 
L 1259 4666 
L 1259 2753 
L 3553 2753 
L 3553 4666 
L 4184 4666 
L 4184 0 
L 3553 0 
L 3553 2222 
L 1259 2222 
L 1259 0 
L 628 0 
L 628 4666 
z
" transform="scale(0.015625)"/>
      <path id="DejaVuSans-13" d="M 2034 4250 
Q 1547 4250 1301 3770 
Q 1056 3291 1056 2328 
Q 1056 1369 1301 889 
Q 1547 409 2034 409 
Q 2525 409 2770 889 
Q 3016 1369 3016 2328 
Q 3016 3291 2770 3770 
Q 2525 4250 2034 4250 
z
M 2034 4750 
Q 2819 4750 3233 4129 
Q 3647 3509 3647 2328 
Q 3647 1150 3233 529 
Q 2819 -91 2034 -91 
Q 1250 -91 836 529 
Q 422 1150 422 2328 
Q 422 3509 836 4129 
Q 1250 4750 2034 4750 
z
" transform="scale(0.015625)"/>
      <path id="DejaVuSans-11" d="M 684 794 
L 1344 794 
L 1344 0 
L 684 0 
L 684 794 
z
" transform="scale(0.015625)"/>
      <path id="DejaVuSans-12" d="M 1625 4666 
L 2156 4666 
L 531 -594 
L 0 -594 
L 1625 4666 
z
" transform="scale(0.015625)"/>
     </defs>
     <use xlink:href="#DejaVuSans-2f"/>
     <use xlink:href="#DejaVuSans-52" transform="translate(53.96875 0)"/>
     <use xlink:href="#DejaVuSans-4a" transform="translate(115.15625 0)"/>
     <use xlink:href="#DejaVuSans-4c" transform="translate(178.640625 0)"/>
     <use xlink:href="#DejaVuSans-46" transform="translate(206.421875 0)"/>
     <use xlink:href="#DejaVuSans-3" transform="translate(261.40625 0)"/>
     <use xlink:href="#DejaVuSans-24" transform="translate(293.1875 0)"/>
     <use xlink:href="#DejaVuSans-51" transform="translate(361.59375 0)"/>
     <use xlink:href="#DejaVuSans-44" transform="translate(424.96875 0)"/>
     <use xlink:href="#DejaVuSans-4f" transform="translate(486.25 0)"/>
     <use xlink:href="#DejaVuSans-5c" transform="translate(514.03125 0)"/>
     <use xlink:href="#DejaVuSans-5d" transform="translate(573.21875 0)"/>
     <use xlink:href="#DejaVuSans-48" transform="translate(625.703125 0)"/>
     <use xlink:href="#DejaVuSans-55" transform="translate(687.234375 0)"/>
     <use xlink:href="#DejaVuSans-3" transform="translate(728.34375 0)"/>
     <use xlink:href="#DejaVuSans-3" transform="translate(760.125 0)"/>
     <use xlink:href="#DejaVuSans-10" transform="translate(791.90625 0)"/>
     <use xlink:href="#DejaVuSans-10" transform="translate(827.984375 0)"/>
     <use xlink:href="#DejaVuSans-3" transform="translate(864.0625 0)"/>
     <use xlink:href="#DejaVuSans-3" transform="translate(895.84375 0)"/>
     <use xlink:href="#DejaVuSans-17" transform="translate(927.625 0)"/>
     <use xlink:href="#DejaVuSans-3" transform="translate(991.25 0)"/>
     <use xlink:href="#DejaVuSans-46" transform="translate(1023.03125 0)"/>
     <use xlink:href="#DejaVuSans-4b" transform="translate(1078.015625 0)"/>
     <use xlink:href="#DejaVuSans-3" transform="translate(1141.390625 0)"/>
     <use xlink:href="#DejaVuSans-23" transform="translate(1173.171875 0)"/>
     <use xlink:href="#DejaVuSans-3" transform="translate(1273.171875 0)"/>
     <use xlink:href="#DejaVuSans-17" transform="translate(1304.953125 0)"/>
     <use xlink:href="#DejaVuSans-3" transform="translate(1368.578125 0)"/>
     <use xlink:href="#DejaVuSans-30" transform="translate(1400.359375 0)"/>
     <use xlink:href="#DejaVuSans-2b" transform="translate(1486.640625 0)"/>
     <use xlink:href="#DejaVuSans-5d" transform="translate(1561.84375 0)"/>
     <use xlink:href="#DejaVuSans-3" transform="translate(1614.328125 0)"/>
     <use xlink:href="#DejaVuSans-b" transform="translate(1646.109375 0)"/>
     <use xlink:href="#DejaVuSans-13" transform="translate(1685.125 0)"/>
     <use xlink:href="#DejaVuSans-11" transform="translate(1748.75 0)"/>
     <use xlink:href="#DejaVuSans-15" transform="translate(1780.53125 0)"/>
     <use xlink:href="#DejaVuSans-18" transform="translate(1844.15625 0)"/>
     <use xlink:href="#DejaVuSans-3" transform="translate(1907.78125 0)"/>
     <use xlink:href="#DejaVuSans-58" transform="translate(1939.5625 0)"/>
     <use xlink:href="#DejaVuSans-56" transform="translate(2002.9375 0)"/>
     <use xlink:href="#DejaVuSans-12" transform="translate(2055.03125 0)"/>
     <use xlink:href="#DejaVuSans-56" transform="translate(2088.71875 0)"/>
     <use xlink:href="#DejaVuSans-44" transform="translate(2140.8125 0)"/>
     <use xlink:href="#DejaVuSans-50" transform="translate(2202.09375 0)"/>
     <use xlink:href="#DejaVuSans-53" transform="translate(2299.5 0)"/>
     <use xlink:href="#DejaVuSans-4f" transform="translate(2362.984375 0)"/>
     <use xlink:href="#DejaVuSans-48" transform="translate(2390.765625 0)"/>
     <use xlink:href="#DejaVuSans-c" transform="translate(2452.296875 0)"/>
    </g>
    <!--  -->
    <g transform="translate(314.1 257.148577) scale(0.08 -0.08)"/>
    <!-- ch0=ctrlTX   ch1=ctrlEN   ch2=ctrlRX   ch3=simTX -->
    <g transform="translate(212.0675 266.750764) scale(0.08 -0.08)">
     <defs>
      <path id="DejaVuSans-20" d="M 678 2906 
L 4684 2906 
L 4684 2381 
L 678 2381 
L 678 2906 
z
M 678 1631 
L 4684 1631 
L 4684 1100 
L 678 1100 
L 678 1631 
z
" transform="scale(0.015625)"/>
     </defs>
     <use xlink:href="#DejaVuSans-46"/>
     <use xlink:href="#DejaVuSans-4b" transform="translate(54.984375 0)"/>
     <use xlink:href="#DejaVuSans-13" transform="translate(118.359375 0)"/>
     <use xlink:href="#DejaVuSans-20" transform="translate(181.984375 0)"/>
     <use xlink:href="#DejaVuSans-46" transform="translate(265.78125 0)"/>
     <use xlink:href="#DejaVuSans-57" transform="translate(320.765625 0)"/>
     <use xlink:href="#DejaVuSans-55" transform="translate(359.96875 0)"/>
     <use xlink:href="#DejaVuSans-4f" transform="translate(401.078125 0)"/>
     <use xlink:href="#DejaVuSans-37" transform="translate(428.859375 0)"/>
     <use xlink:href="#DejaVuSans-3b" transform="translate(489.9375 0)"/>
     <use xlink:href="#DejaVuSans-3" transform="translate(558.4375 0)"/>
     <use xlink:href="#DejaVuSans-3" transform="translate(590.21875 0)"/>
     <use xlink:href="#DejaVuSans-3" transform="translate(622 0)"/>
     <use xlink:href="#DejaVuSans-46" transform="translate(653.78125 0)"/>
     <use xlink:href="#DejaVuSans-4b" transform="translate(708.765625 0)"/>
     <use xlink:href="#DejaVuSans-14" transform="translate(772.140625 0)"/>
     <use xlink:href="#DejaVuSans-20" transform="translate(835.765625 0)"/>
     <use xlink:href="#DejaVuSans-46" transform="translate(919.5625 0)"/>
     <use xlink:href="#DejaVuSans-57" transform="translate(974.546875 0)"/>
     <use xlink:href="#DejaVuSans-55" transform="translate(1013.75 0)"/>
     <use xlink:href="#DejaVuSans-4f" transform="translate(1054.859375 0)"/>
     <use xlink:href="#DejaVuSans-28" transform="translate(1082.640625 0)"/>
     <use xlink:href="#DejaVuSans-31" transform="translate(1145.828125 0)"/>
     <use xlink:href="#DejaVuSans-3" transform="translate(1220.640625 0)"/>
     <use xlink:href="#DejaVuSans-3" transform="translate(1252.421875 0)"/>
     <use xlink:href="#DejaVuSans-3" transform="translate(1284.203125 0)"/>
     <use xlink:href="#DejaVuSans-46" transform="translate(1315.984375 0)"/>
     <use xlink:href="#DejaVuSans-4b" transform="translate(1370.96875 0)"/>
     <use xlink:href="#DejaVuSans-15" transform="translate(1434.34375 0)"/>
     <use xlink:href="#DejaVuSans-20" transform="translate(1497.96875 0)"/>
     <use xlink:href="#DejaVuSans-46" transform="translate(1581.765625 0)"/>
     <use xlink:href="#DejaVuSans-57" transform="translate(1636.75 0)"/>
     <use xlink:href="#DejaVuSans-55" transform="translate(1675.953125 0)"/>
     <use xlink:href="#DejaVuSans-4f" transform="translate(1717.0625 0)"/>
     <use xlink:href="#DejaVuSans-35" transform="translate(1744.84375 0)"/>
     <use xlink:href="#DejaVuSans-3b" transform="translate(1814.328125 0)"/>
     <use xlink:href="#DejaVuSans-3" transform="translate(1882.828125 0)"/>
     <use xlink:href="#DejaVuSans-3" transform="translate(1914.609375 0)"/>
     <use xlink:href="#DejaVuSans-3" transform="translate(1946.390625 0)"/>
     <use xlink:href="#DejaVuSans-46" transform="translate(1978.171875 0)"/>
     <use xlink:href="#DejaVuSans-4b" transform="translate(2033.15625 0)"/>
     <use xlink:href="#DejaVuSans-16" transform="translate(2096.53125 0)"/>
     <use xlink:href="#DejaVuSans-20" transform="translate(2160.15625 0)"/>
     <use xlink:href="#DejaVuSans-56" transform="translate(2243.953125 0)"/>
     <use xlink:href="#DejaVuSans-4c" transform="translate(2296.046875 0)"/>
     <use xlink:href="#DejaVuSans-50" transform="translate(2323.828125 0)"/>
     <use xlink:href="#DejaVuSans-37" transform="translate(2421.234375 0)"/>
     <use xlink:href="#DejaVuSans-3b" transform="translate(2482.3125 0)"/>
    </g>
   </g>
   <g id="text_7">
    <!-- RS485 bus  (120 ohm termination, 500 ohm fail-safe bias) -->
    <g transform="translate(190.480781 62.282323) scale(0.085 -0.085)">
     <defs>
      <path id="DejaVuSans-45" d="M 3116 1747 
Q 3116 2381 2855 2742 
Q 2594 3103 2138 3103 
Q 1681 3103 1420 2742 
Q 1159 2381 1159 1747 
Q 1159 1113 1420 752 
Q 1681 391 2138 391 
Q 2594 391 2855 752 
Q 3116 1113 3116 1747 
z
M 1159 2969 
Q 1341 3281 1617 3432 
Q 1894 3584 2278 3584 
Q 2916 3584 3314 3078 
Q 3713 2572 3713 1747 
Q 3713 922 3314 415 
Q 2916 -91 2278 -91 
Q 1894 -91 1617 61 
Q 1341 213 1159 525 
L 1159 0 
L 581 0 
L 581 4863 
L 1159 4863 
L 1159 2969 
z
" transform="scale(0.015625)"/>
      <path id="DejaVuSans-f" d="M 750 794 
L 1409 794 
L 1409 256 
L 897 -744 
L 494 -744 
L 750 256 
L 750 794 
z
" transform="scale(0.015625)"/>
      <path id="DejaVuSans-49" d="M 2375 4863 
L 2375 4384 
L 1825 4384 
Q 1516 4384 1395 4259 
Q 1275 4134 1275 3809 
L 1275 3500 
L 2222 3500 
L 2222 3053 
L 1275 3053 
L 1275 0 
L 697 0 
L 697 3053 
L 147 3053 
L 147 3500 
L 697 3500 
L 697 3744 
Q 697 4328 969 4595 
Q 1241 4863 1831 4863 
L 2375 4863 
z
" transform="scale(0.015625)"/>
     </defs>
     <use xlink:href="#DejaVuSans-35"/>
     <use xlink:href="#DejaVuSans-36" transform="translate(69.484375 0)"/>
     <use xlink:href="#DejaVuSans-17" transform="translate(132.96875 0)"/>
     <use xlink:href="#DejaVuSans-1b" transform="translate(196.59375 0)"/>
     <use xlink:href="#DejaVuSans-18" transform="translate(260.21875 0)"/>
     <use xlink:href="#DejaVuSans-3" transform="translate(323.84375 0)"/>
     <use xlink:href="#DejaVuSans-45" transform="translate(355.625 0)"/>
     <use xlink:href="#DejaVuSans-58" transform="translate(419.109375 0)"/>
     <use xlink:href="#DejaVuSans-56" transform="translate(482.484375 0)"/>
     <use xlink:href="#DejaVuSans-3" transform="translate(534.578125 0)"/>
     <use xlink:href="#DejaVuSans-3" transform="translate(566.359375 0)"/>
     <use xlink:href="#DejaVuSans-b" transform="translate(598.140625 0)"/>
     <use xlink:href="#DejaVuSans-14" transform="translate(637.15625 0)"/>
     <use xlink:href="#DejaVuSans-15" transform="translate(700.78125 0)"/>
     <use xlink:href="#DejaVuSans-13" transform="translate(764.40625 0)"/>
     <use xlink:href="#DejaVuSans-3" transform="translate(828.03125 0)"/>
     <use xlink:href="#DejaVuSans-52" transform="translate(859.8125 0)"/>
     <use xlink:href="#DejaVuSans-4b" transform="translate(921 0)"/>
     <use xlink:href="#DejaVuSans-50" transform="translate(984.375 0)"/>
     <use xlink:href="#DejaVuSans-3" transform="translate(1081.78125 0)"/>
     <use xlink:href="#DejaVuSans-57" transform="translate(1113.5625 0)"/>
     <use xlink:href="#DejaVuSans-48" transform="translate(1152.765625 0)"/>
     <use xlink:href="#DejaVuSans-55" transform="translate(1214.296875 0)"/>
     <use xlink:href="#DejaVuSans-50" transform="translate(1253.65625 0)"/>
     <use xlink:href="#DejaVuSans-4c" transform="translate(1351.0625 0)"/>
     <use xlink:href="#DejaVuSans-51" transform="translate(1378.84375 0)"/>
     <use xlink:href="#DejaVuSans-44" transform="translate(1442.21875 0)"/>
     <use xlink:href="#DejaVuSans-57" transform="translate(1503.5 0)"/>
     <use xlink:href="#DejaVuSans-4c" transform="translate(1542.703125 0)"/>
     <use xlink:href="#DejaVuSans-52" transform="translate(1570.484375 0)"/>
     <use xlink:href="#DejaVuSans-51" transform="translate(1631.671875 0)"/>
     <use xlink:href="#DejaVuSans-f" transform="translate(1695.046875 0)"/>
     <use xlink:href="#DejaVuSans-3" transform="translate(1726.828125 0)"/>
     <use xlink:href="#DejaVuSans-18" transform="translate(1758.609375 0)"/>
     <use xlink:href="#DejaVuSans-13" transform="translate(1822.234375 0)"/>
     <use xlink:href="#DejaVuSans-13" transform="translate(1885.859375 0)"/>
     <use xlink:href="#DejaVuSans-3" transform="translate(1949.484375 0)"/>
     <use xlink:href="#DejaVuSans-52" transform="translate(1981.265625 0)"/>
     <use xlink:href="#DejaVuSans-4b" transform="translate(2042.453125 0)"/>
     <use xlink:href="#DejaVuSans-50" transform="translate(2105.828125 0)"/>
     <use xlink:href="#DejaVuSans-3" transform="translate(2203.234375 0)"/>
     <use xlink:href="#DejaVuSans-49" transform="translate(2235.015625 0)"/>
     <use xlink:href="#DejaVuSans-44" transform="translate(2270.21875 0)"/>
     <use xlink:href="#DejaVuSans-4c" transform="translate(2331.5 0)"/>
     <use xlink:href="#DejaVuSans-4f" transform="translate(2359.28125 0)"/>
     <use xlink:href="#DejaVuSans-10" transform="translate(2387.0625 0)"/>
     <use xlink:href="#DejaVuSans-56" transform="translate(2423.140625 0)"/>
     <use xlink:href="#DejaVuSans-44" transform="translate(2475.234375 0)"/>
     <use xlink:href="#DejaVuSans-49" transform="translate(2536.515625 0)"/>
     <use xlink:href="#DejaVuSans-48" transform="translate(2571.71875 0)"/>
     <use xlink:href="#DejaVuSans-3" transform="translate(2633.25 0)"/>
     <use xlink:href="#DejaVuSans-45" transform="translate(2665.03125 0)"/>
     <use xlink:href="#DejaVuSans-4c" transform="translate(2728.515625 0)"/>
     <use xlink:href="#DejaVuSans-44" transform="translate(2756.296875 0)"/>
     <use xlink:href="#DejaVuSans-56" transform="translate(2817.578125 0)"/>
     <use xlink:href="#DejaVuSans-c" transform="translate(2869.671875 0)"/>
    </g>
   </g>
   <g id="text_8">
    <!-- ch0 -->
    <g style="fill: #1f77b4" transform="translate(67.438625 143.403561) scale(0.08 -0.08)">
     <use xlink:href="#DejaVuSans-46"/>
     <use xlink:href="#DejaVuSans-4b" transform="translate(54.984375 0)"/>
     <use xlink:href="#DejaVuSans-13" transform="translate(118.359375 0)"/>
    </g>
   </g>
   <g id="text_9">
    <!-- ch1 -->
    <g style="fill: #ff7f0e" transform="translate(98.128625 143.403561) scale(0.08 -0.08)">
     <use xlink:href="#DejaVuSans-46"/>
     <use xlink:href="#DejaVuSans-4b" transform="translate(54.984375 0)"/>
     <use xlink:href="#DejaVuSans-14" transform="translate(118.359375 0)"/>
    </g>
   </g>
   <g id="text_10">
    <!-- ch2 -->
    <g style="fill: #2ca02c" transform="translate(128.818625 143.403561) scale(0.08 -0.08)">
     <use xlink:href="#DejaVuSans-46"/>
     <use xlink:href="#DejaVuSans-4b" transform="translate(54.984375 0)"/>
     <use xlink:href="#DejaVuSans-15" transform="translate(118.359375 0)"/>
    </g>
   </g>
   <g id="text_11">
    <!-- ch3 -->
    <g style="fill: #d62728" transform="translate(540.064625 143.403561) scale(0.08 -0.08)">
     <use xlink:href="#DejaVuSans-46"/>
     <use xlink:href="#DejaVuSans-4b" transform="translate(54.984375 0)"/>
     <use xlink:href="#DejaVuSans-16" transform="translate(118.359375 0)"/>
    </g>
   </g>
   <g id="text_12">
    <!-- common ground across all three boards -->
    <g style="fill: #666666" transform="translate(234.45625 305.14529) scale(0.08 -0.08)">
     <use xlink:href="#DejaVuSans-46"/>
     <use xlink:href="#DejaVuSans-52" transform="translate(54.984375 0)"/>
     <use xlink:href="#DejaVuSans-50" transform="translate(116.171875 0)"/>
     <use xlink:href="#DejaVuSans-50" transform="translate(213.578125 0)"/>
     <use xlink:href="#DejaVuSans-52" transform="translate(310.984375 0)"/>
     <use xlink:href="#DejaVuSans-51" transform="translate(372.171875 0)"/>
     <use xlink:href="#DejaVuSans-3" transform="translate(435.546875 0)"/>
     <use xlink:href="#DejaVuSans-4a" transform="translate(467.328125 0)"/>
     <use xlink:href="#DejaVuSans-55" transform="translate(530.8125 0)"/>
     <use xlink:href="#DejaVuSans-52" transform="translate(569.71875 0)"/>
     <use xlink:href="#DejaVuSans-58" transform="translate(630.90625 0)"/>
     <use xlink:href="#DejaVuSans-51" transform="translate(694.28125 0)"/>
     <use xlink:href="#DejaVuSans-47" transform="translate(757.65625 0)"/>
     <use xlink:href="#DejaVuSans-3" transform="translate(821.140625 0)"/>
     <use xlink:href="#DejaVuSans-44" transform="translate(852.921875 0)"/>
     <use xlink:href="#DejaVuSans-46" transform="translate(914.203125 0)"/>
     <use xlink:href="#DejaVuSans-55" transform="translate(969.1875 0)"/>
     <use xlink:href="#DejaVuSans-52" transform="translate(1008.09375 0)"/>
     <use xlink:href="#DejaVuSans-56" transform="translate(1069.28125 0)"/>
     <use xlink:href="#DejaVuSans-56" transform="translate(1121.375 0)"/>
     <use xlink:href="#DejaVuSans-3" transform="translate(1173.46875 0)"/>
     <use xlink:href="#DejaVuSans-44" transform="translate(1205.25 0)"/>
     <use xlink:href="#DejaVuSans-4f" transform="translate(1266.53125 0)"/>
     <use xlink:href="#DejaVuSans-4f" transform="translate(1294.3125 0)"/>
     <use xlink:href="#DejaVuSans-3" transform="translate(1322.09375 0)"/>
     <use xlink:href="#DejaVuSans-57" transform="translate(1353.875 0)"/>
     <use xlink:href="#DejaVuSans-4b" transform="translate(1393.078125 0)"/>
     <use xlink:href="#DejaVuSans-55" transform="translate(1456.453125 0)"/>
     <use xlink:href="#DejaVuSans-48" transform="translate(1495.359375 0)"/>
     <use xlink:href="#DejaVuSans-48" transform="translate(1556.890625 0)"/>
     <use xlink:href="#DejaVuSans-3" transform="translate(1618.421875 0)"/>
     <use xlink:href="#DejaVuSans-45" transform="translate(1650.203125 0)"/>
     <use xlink:href="#DejaVuSans-52" transform="translate(1713.6875 0)"/>
     <use xlink:href="#DejaVuSans-44" transform="translate(1774.875 0)"/>
     <use xlink:href="#DejaVuSans-55" transform="translate(1836.15625 0)"/>
     <use xlink:href="#DejaVuSans-47" transform="translate(1875.515625 0)"/>
     <use xlink:href="#DejaVuSans-56" transform="translate(1939 0)"/>
    </g>
   </g>
  </g>
 </g>
 <defs>
  <clipPath id="pfa2ed2e45c">
   <rect x="7.2" y="7.2" width="613.8" height="310.464"/>
  </clipPath>
 </defs>
</svg>
