<?xml version="1.0" encoding="utf-8" standalone="no"?>
<!DOCTYPE svg PUBLIC "-//W3C//DTD SVG 1.1//EN"
  "http://www.w3.org/Graphics/SVG/1.1/DTD/svg11.dtd">
<svg xmlns:xlink="http://www.w3.org/1999/xlink" width="734.047643pt" height="337.718906pt" viewBox="0 0 734.047643 337.718906" xmlns="http://www.w3.org/2000/svg" version="1.1">
 <metadata>
  <rdf:RDF xmlns:dc="http://purl.org/dc/elements/1.1/" xmlns:cc="http://creativecommons.org/ns#" xmlns:rdf="http://www.w3.org/1999/02/22-rdf-syntax-ns#">
   <cc:Work>
    <dc:type rdf:resource="http://purl.org/dc/dcmitype/StillImage"/>
    <dc:date>2026-06-27T11:20:03.619621</dc:date>
    <dc:format>image/svg+xml</dc:format>
    <dc:creator>
     <cc:Agent>
      <dc:title>Matplotlib v3.11.0, https://matplotlib.org/</dc:title>
     </cc:Agent>
    </dc:creator>
   </cc:Work>
  </rdf:RDF>
 </metadata>
 <defs>
  <style type="text/css">*{stroke-linejoin: round; stroke-linecap: butt}</style>
 </defs>
 <g id="figure_1">
  <g id="patch_1">
   <path d="M 0 337.718906 
L 734.047643 337.718906 
L 734.047643 0 
L 0 0 
z
" style="fill: #ffffff"/>
  </g>
  <g id="axes_1">
   <g id="patch_2">
    <path d="M 100.322643 299.518125 
L 714.122643 299.518125 
L 714.122643 22.318125 
L 100.322643 22.318125 
z
" style="fill: #ffffff"/>
   </g>
   <g id="matplotlib.axis_1">
    <g id="xtick_1">
     <g id="line2d_1">
      <path d="M 115.877029 299.518125 
L 115.877029 22.318125 
" clip-path="url(#pe98a83e1b9)" style="fill: none; stroke: #b0b0b0; stroke-opacity: 0.25; stroke-width: 0.8; stroke-linecap: square"/>
     </g>
     <g id="line2d_2">
      <defs>
       <path id="m6b4aa4365c" d="M 0 0 
L 0 3.5 
" style="stroke: #000000; stroke-width: 0.8"/>
      </defs>
      <g>
       <use xlink:href="#m6b4aa4365c" x="115.877029" y="299.518125" style="stroke: #000000; stroke-width: 0.8"/>
      </g>
     </g>
     <g id="text_1">
      <!-- 0 -->
      <g transform="translate(112.695779 314.115781) scale(0.1 -0.1)">
       <defs>
        <path id="DejaVuSans-13" d="M 2034 4250 
Q 1547 4250 1301 3770 
Q 1056 3291 1056 2328 
Q 1056 1369 1301 889 
Q 1547 409 2034 409 
Q 2525 409 2770 889 
Q 3016 1369 3016 2328 
Q 3016 3291 2770 3770 
Q 2525 4250 2034 4250 
z
M 2034 4750 
Q 2819 4750 3233 4129 
Q 3647 3509 3647 2328 
Q 3647 1150 3233 529 
Q 2819 -91 2034 -91 
Q 1250 -91 836 529 
Q 422 1150 422 2328 
Q 422 3509 836 4129 
Q 1250 4750 2034 4750 
z
" transform="scale(0.015625)"/>
       </defs>
       <use xlink:href="#DejaVuSans-13"/>
      </g>
     </g>
    </g>
    <g id="xtick_2">
     <g id="line2d_3">
      <path d="M 235.526151 299.518125 
L 235.526151 22.318125 
" clip-path="url(#pe98a83e1b9)" style="fill: none; stroke: #b0b0b0; stroke-opacity: 0.25; stroke-width: 0.8; stroke-linecap: square"/>
     </g>
     <g id="line2d_4">
      <g>
       <use xlink:href="#m6b4aa4365c" x="235.526151" y="299.518125" style="stroke: #000000; stroke-width: 0.8"/>
      </g>
     </g>
     <g id="text_2">
      <!-- 1000 -->
      <g transform="translate(222.801151 314.115781) scale(0.1 -0.1)">
       <defs>
        <path id="DejaVuSans-14" d="M 794 531 
L 1825 531 
L 1825 4091 
L 703 3866 
L 703 4441 
L 1819 4666 
L 2450 4666 
L 2450 531 
L 3481 531 
L 3481 0 
L 794 0 
L 794 531 
z
" transform="scale(0.015625)"/>
       </defs>
       <use xlink:href="#DejaVuSans-14"/>
       <use xlink:href="#DejaVuSans-13" transform="translate(63.625 0)"/>
       <use xlink:href="#DejaVuSans-13" transform="translate(127.25 0)"/>
       <use xlink:href="#DejaVuSans-13" transform="translate(190.875 0)"/>
      </g>
     </g>
    </g>
    <g id="xtick_3">
     <g id="line2d_5">
      <path d="M 355.175274 299.518125 
L 355.175274 22.318125 
" clip-path="url(#pe98a83e1b9)" style="fill: none; stroke: #b0b0b0; stroke-opacity: 0.25; stroke-width: 0.8; stroke-linecap: square"/>
     </g>
     <g id="line2d_6">
      <g>
       <use xlink:href="#m6b4aa4365c" x="355.175274" y="299.518125" style="stroke: #000000; stroke-width: 0.8"/>
      </g>
     </g>
     <g id="text_3">
      <!-- 2000 -->
      <g transform="translate(342.450274 314.115781) scale(0.1 -0.1)">
       <defs>
        <path id="DejaVuSans-15" d="M 1228 531 
L 3431 531 
L 3431 0 
L 469 0 
L 469 531 
Q 828 903 1448 1529 
Q 2069 2156 2228 2338 
Q 2531 2678 2651 2914 
Q 2772 3150 2772 3378 
Q 2772 3750 2511 3984 
Q 2250 4219 1831 4219 
Q 1534 4219 1204 4116 
Q 875 4013 500 3803 
L 500 4441 
Q 881 4594 1212 4672 
Q 1544 4750 1819 4750 
Q 2544 4750 2975 4387 
Q 3406 4025 3406 3419 
Q 3406 3131 3298 2873 
Q 3191 2616 2906 2266 
Q 2828 2175 2409 1742 
Q 1991 1309 1228 531 
z
" transform="scale(0.015625)"/>
       </defs>
       <use xlink:href="#DejaVuSans-15"/>
       <use xlink:href="#DejaVuSans-13" transform="translate(63.625 0)"/>
       <use xlink:href="#DejaVuSans-13" transform="translate(127.25 0)"/>
       <use xlink:href="#DejaVuSans-13" transform="translate(190.875 0)"/>
      </g>
     </g>
    </g>
    <g id="xtick_4">
     <g id="line2d_7">
      <path d="M 474.824397 299.518125 
L 474.824397 22.318125 
" clip-path="url(#pe98a83e1b9)" style="fill: none; stroke: #b0b0b0; stroke-opacity: 0.25; stroke-width: 0.8; stroke-linecap: square"/>
     </g>
     <g id="line2d_8">
      <g>
       <use xlink:href="#m6b4aa4365c" x="474.824397" y="299.518125" style="stroke: #000000; stroke-width: 0.8"/>
      </g>
     </g>
     <g id="text_4">
      <!-- 3000 -->
      <g transform="translate(462.099397 314.115781) scale(0.1 -0.1)">
       <defs>
        <path id="DejaVuSans-16" d="M 2597 2516 
Q 3050 2419 3304 2112 
Q 3559 1806 3559 1356 
Q 3559 666 3084 287 
Q 2609 -91 1734 -91 
Q 1441 -91 1130 -33 
Q 819 25 488 141 
L 488 750 
Q 750 597 1062 519 
Q 1375 441 1716 441 
Q 2309 441 2620 675 
Q 2931 909 2931 1356 
Q 2931 1769 2642 2001 
Q 2353 2234 1838 2234 
L 1294 2234 
L 1294 2753 
L 1863 2753 
Q 2328 2753 2575 2939 
Q 2822 3125 2822 3475 
Q 2822 3834 2567 4026 
Q 2313 4219 1838 4219 
Q 1578 4219 1281 4162 
Q 984 4106 628 3988 
L 628 4550 
Q 988 4650 1302 4700 
Q 1616 4750 1894 4750 
Q 2613 4750 3031 4423 
Q 3450 4097 3450 3541 
Q 3450 3153 3228 2886 
Q 3006 2619 2597 2516 
z
" transform="scale(0.015625)"/>
       </defs>
       <use xlink:href="#DejaVuSans-16"/>
       <use xlink:href="#DejaVuSans-13" transform="translate(63.625 0)"/>
       <use xlink:href="#DejaVuSans-13" transform="translate(127.25 0)"/>
       <use xlink:href="#DejaVuSans-13" transform="translate(190.875 0)"/>
      </g>
     </g>
    </g>
    <g id="xtick_5">
     <g id="line2d_9">
      <path d="M 594.47352 299.518125 
L 594.47352 22.318125 
" clip-path="url(#pe98a83e1b9)" style="fill: none; stroke: #b0b0b0; stroke-opacity: 0.25; stroke-width: 0.8; stroke-linecap: square"/>
     </g>
     <g id="line2d_10">
      <g>
       <use xlink:href="#m6b4aa4365c" x="594.47352" y="299.518125" style="stroke: #000000; stroke-width: 0.8"/>
      </g>
     </g>
     <g id="text_5">
      <!-- 4000 -->
      <g transform="translate(581.74852 314.115781) scale(0.1 -0.1)">
       <defs>
        <path id="DejaVuSans-17" d="M 2419 4116 
L 825 1625 
L 2419 1625 
L 2419 4116 
z
M 2253 4666 
L 3047 4666 
L 3047 1625 
L 3713 1625 
L 3713 1100 
L 3047 1100 
L 3047 0 
L 2419 0 
L 2419 1100 
L 313 1100 
L 313 1709 
L 2253 4666 
z
" transform="scale(0.015625)"/>
       </defs>
       <use xlink:href="#DejaVuSans-17"/>
       <use xlink:href="#DejaVuSans-13" transform="translate(63.625 0)"/>
       <use xlink:href="#DejaVuSans-13" transform="translate(127.25 0)"/>
       <use xlink:href="#DejaVuSans-13" transform="translate(190.875 0)"/>
      </g>
     </g>
    </g>
    <g id="xtick_6">
     <g id="line2d_11">
      <path d="M 714.122643 299.518125 
L 714.122643 22.318125 
" clip-path="url(#pe98a83e1b9)" style="fill: none; stroke: #b0b0b0; stroke-opacity: 0.25; stroke-width: 0.8; stroke-linecap: square"/>
     </g>
     <g id="line2d_12">
      <g>
       <use xlink:href="#m6b4aa4365c" x="714.122643" y="299.518125" style="stroke: #000000; stroke-width: 0.8"/>
      </g>
     </g>
     <g id="text_6">
      <!-- 5000 -->
      <g transform="translate(701.397643 314.115781) scale(0.1 -0.1)">
       <defs>
        <path id="DejaVuSans-18" d="M 691 4666 
L 3169 4666 
L 3169 4134 
L 1269 4134 
L 1269 2991 
Q 1406 3038 1543 3061 
Q 1681 3084 1819 3084 
Q 2600 3084 3056 2656 
Q 3513 2228 3513 1497 
Q 3513 744 3044 326 
Q 2575 -91 1722 -91 
Q 1428 -91 1123 -41 
Q 819 9 494 109 
L 494 744 
Q 775 591 1075 516 
Q 1375 441 1709 441 
Q 2250 441 2565 725 
Q 2881 1009 2881 1497 
Q 2881 1984 2565 2268 
Q 2250 2553 1709 2553 
Q 1456 2553 1204 2497 
Q 953 2441 691 2322 
L 691 4666 
z
" transform="scale(0.015625)"/>
       </defs>
       <use xlink:href="#DejaVuSans-18"/>
       <use xlink:href="#DejaVuSans-13" transform="translate(63.625 0)"/>
       <use xlink:href="#DejaVuSans-13" transform="translate(127.25 0)"/>
       <use xlink:href="#DejaVuSans-13" transform="translate(190.875 0)"/>
      </g>
     </g>
    </g>
    <g id="text_7">
     <!-- time (us)    [logic analyzer @ 4 MHz, 0.25 us/sample] -->
     <g transform="translate(274.469518 328.116563) scale(0.1 -0.1)">
      <defs>
       <path id="DejaVuSans-57" d="M 1172 4494 
L 1172 3500 
L 2356 3500 
L 2356 3053 
L 1172 3053 
L 1172 1153 
Q 1172 725 1289 603 
Q 1406 481 1766 481 
L 2356 481 
L 2356 0 
L 1766 0 
Q 1100 0 847 248 
Q 594 497 594 1153 
L 594 3053 
L 172 3053 
L 172 3500 
L 594 3500 
L 594 4494 
L 1172 4494 
z
" transform="scale(0.015625)"/>
       <path id="DejaVuSans-4c" d="M 603 3500 
L 1178 3500 
L 1178 0 
L 603 0 
L 603 3500 
z
M 603 4863 
L 1178 4863 
L 1178 4134 
L 603 4134 
L 603 4863 
z
" transform="scale(0.015625)"/>
       <path id="DejaVuSans-50" d="M 3328 2828 
Q 3544 3216 3844 3400 
Q 4144 3584 4550 3584 
Q 5097 3584 5394 3201 
Q 5691 2819 5691 2113 
L 5691 0 
L 5113 0 
L 5113 2094 
Q 5113 2597 4934 2840 
Q 4756 3084 4391 3084 
Q 3944 3084 3684 2787 
Q 3425 2491 3425 1978 
L 3425 0 
L 2847 0 
L 2847 2094 
Q 2847 2600 2669 2842 
Q 2491 3084 2119 3084 
Q 1678 3084 1418 2786 
Q 1159 2488 1159 1978 
L 1159 0 
L 581 0 
L 581 3500 
L 1159 3500 
L 1159 2956 
Q 1356 3278 1631 3431 
Q 1906 3584 2284 3584 
Q 2666 3584 2933 3390 
Q 3200 3197 3328 2828 
z
" transform="scale(0.015625)"/>
       <path id="DejaVuSans-48" d="M 3597 1894 
L 3597 1613 
L 953 1613 
Q 991 1019 1311 708 
Q 1631 397 2203 397 
Q 2534 397 2845 478 
Q 3156 559 3463 722 
L 3463 178 
Q 3153 47 2828 -22 
Q 2503 -91 2169 -91 
Q 1331 -91 842 396 
Q 353 884 353 1716 
Q 353 2575 817 3079 
Q 1281 3584 2069 3584 
Q 2775 3584 3186 3129 
Q 3597 2675 3597 1894 
z
M 3022 2063 
Q 3016 2534 2758 2815 
Q 2500 3097 2075 3097 
Q 1594 3097 1305 2825 
Q 1016 2553 972 2059 
L 3022 2063 
z
" transform="scale(0.015625)"/>
       <path id="DejaVuSans-3" transform="scale(0.015625)"/>
       <path id="DejaVuSans-b" d="M 1984 4856 
Q 1566 4138 1362 3434 
Q 1159 2731 1159 2009 
Q 1159 1288 1364 580 
Q 1569 -128 1984 -844 
L 1484 -844 
Q 1016 -109 783 600 
Q 550 1309 550 2009 
Q 550 2706 781 3412 
Q 1013 4119 1484 4856 
L 1984 4856 
z
" transform="scale(0.015625)"/>
       <path id="DejaVuSans-58" d="M 544 1381 
L 544 3500 
L 1119 3500 
L 1119 1403 
Q 1119 906 1312 657 
Q 1506 409 1894 409 
Q 2359 409 2629 706 
Q 2900 1003 2900 1516 
L 2900 3500 
L 3475 3500 
L 3475 0 
L 2900 0 
L 2900 538 
Q 2691 219 2414 64 
Q 2138 -91 1772 -91 
Q 1169 -91 856 284 
Q 544 659 544 1381 
z
M 1991 3584 
L 1991 3584 
z
" transform="scale(0.015625)"/>
       <path id="DejaVuSans-56" d="M 2834 3397 
L 2834 2853 
Q 2591 2978 2328 3040 
Q 2066 3103 1784 3103 
Q 1356 3103 1142 2972 
Q 928 2841 928 2578 
Q 928 2378 1081 2264 
Q 1234 2150 1697 2047 
L 1894 2003 
Q 2506 1872 2764 1633 
Q 3022 1394 3022 966 
Q 3022 478 2636 193 
Q 2250 -91 1575 -91 
Q 1294 -91 989 -36 
Q 684 19 347 128 
L 347 722 
Q 666 556 975 473 
Q 1284 391 1588 391 
Q 1994 391 2212 530 
Q 2431 669 2431 922 
Q 2431 1156 2273 1281 
Q 2116 1406 1581 1522 
L 1381 1569 
Q 847 1681 609 1914 
Q 372 2147 372 2553 
Q 372 3047 722 3315 
Q 1072 3584 1716 3584 
Q 2034 3584 2315 3537 
Q 2597 3491 2834 3397 
z
" transform="scale(0.015625)"/>
       <path id="DejaVuSans-c" d="M 513 4856 
L 1013 4856 
Q 1481 4119 1714 3412 
Q 1947 2706 1947 2009 
Q 1947 1309 1714 600 
Q 1481 -109 1013 -844 
L 513 -844 
Q 928 -128 1133 580 
Q 1338 1288 1338 2009 
Q 1338 2731 1133 3434 
Q 928 4138 513 4856 
z
" transform="scale(0.015625)"/>
       <path id="DejaVuSans-3e" d="M 550 4863 
L 1875 4863 
L 1875 4416 
L 1125 4416 
L 1125 -397 
L 1875 -397 
L 1875 -844 
L 550 -844 
L 550 4863 
z
" transform="scale(0.015625)"/>
       <path id="DejaVuSans-4f" d="M 603 4863 
L 1178 4863 
L 1178 0 
L 603 0 
L 603 4863 
z
" transform="scale(0.015625)"/>
       <path id="DejaVuSans-52" d="M 1959 3097 
Q 1497 3097 1228 2736 
Q 959 2375 959 1747 
Q 959 1119 1226 758 
Q 1494 397 1959 397 
Q 2419 397 2687 759 
Q 2956 1122 2956 1747 
Q 2956 2369 2687 2733 
Q 2419 3097 1959 3097 
z
M 1959 3584 
Q 2709 3584 3137 3096 
Q 3566 2609 3566 1747 
Q 3566 888 3137 398 
Q 2709 -91 1959 -91 
Q 1206 -91 779 398 
Q 353 888 353 1747 
Q 353 2609 779 3096 
Q 1206 3584 1959 3584 
z
" transform="scale(0.015625)"/>
       <path id="DejaVuSans-4a" d="M 2906 1791 
Q 2906 2416 2648 2759 
Q 2391 3103 1925 3103 
Q 1463 3103 1205 2759 
Q 947 2416 947 1791 
Q 947 1169 1205 825 
Q 1463 481 1925 481 
Q 2391 481 2648 825 
Q 2906 1169 2906 1791 
z
M 3481 434 
Q 3481 -459 3084 -895 
Q 2688 -1331 1869 -1331 
Q 1566 -1331 1297 -1286 
Q 1028 -1241 775 -1147 
L 775 -588 
Q 1028 -725 1275 -790 
Q 1522 -856 1778 -856 
Q 2344 -856 2625 -561 
Q 2906 -266 2906 331 
L 2906 616 
Q 2728 306 2450 153 
Q 2172 0 1784 0 
Q 1141 0 747 490 
Q 353 981 353 1791 
Q 353 2603 747 3093 
Q 1141 3584 1784 3584 
Q 2172 3584 2450 3431 
Q 2728 3278 2906 2969 
L 2906 3500 
L 3481 3500 
L 3481 434 
z
" transform="scale(0.015625)"/>
       <path id="DejaVuSans-46" d="M 3122 3366 
L 3122 2828 
Q 2878 2963 2633 3030 
Q 2388 3097 2138 3097 
Q 1578 3097 1268 2742 
Q 959 2388 959 1747 
Q 959 1106 1268 751 
Q 1578 397 2138 397 
Q 2388 397 2633 464 
Q 2878 531 3122 666 
L 3122 134 
Q 2881 22 2623 -34 
Q 2366 -91 2075 -91 
Q 1284 -91 818 406 
Q 353 903 353 1747 
Q 353 2603 823 3093 
Q 1294 3584 2113 3584 
Q 2378 3584 2631 3529 
Q 2884 3475 3122 3366 
z
" transform="scale(0.015625)"/>
       <path id="DejaVuSans-44" d="M 2194 1759 
Q 1497 1759 1228 1600 
Q 959 1441 959 1056 
Q 959 750 1161 570 
Q 1363 391 1709 391 
Q 2188 391 2477 730 
Q 2766 1069 2766 1631 
L 2766 1759 
L 2194 1759 
z
M 3341 1997 
L 3341 0 
L 2766 0 
L 2766 531 
Q 2569 213 2275 61 
Q 1981 -91 1556 -91 
Q 1019 -91 701 211 
Q 384 513 384 1019 
Q 384 1609 779 1909 
Q 1175 2209 1959 2209 
L 2766 2209 
L 2766 2266 
Q 2766 2663 2505 2880 
Q 2244 3097 1772 3097 
Q 1472 3097 1187 3025 
Q 903 2953 641 2809 
L 641 3341 
Q 956 3463 1253 3523 
Q 1550 3584 1831 3584 
Q 2591 3584 2966 3190 
Q 3341 2797 3341 1997 
z
" transform="scale(0.015625)"/>
       <path id="DejaVuSans-51" d="M 3513 2113 
L 3513 0 
L 2938 0 
L 2938 2094 
Q 2938 2591 2744 2837 
Q 2550 3084 2163 3084 
Q 1697 3084 1428 2787 
Q 1159 2491 1159 1978 
L 1159 0 
L 581 0 
L 581 3500 
L 1159 3500 
L 1159 2956 
Q 1366 3272 1645 3428 
Q 1925 3584 2291 3584 
Q 2894 3584 3203 3211 
Q 3513 2838 3513 2113 
z
" transform="scale(0.015625)"/>
       <path id="DejaVuSans-5c" d="M 2059 -325 
Q 1816 -950 1584 -1140 
Q 1353 -1331 966 -1331 
L 506 -1331 
L 506 -850 
L 844 -850 
Q 1081 -850 1212 -737 
Q 1344 -625 1503 -206 
L 1606 56 
L 191 3500 
L 800 3500 
L 1894 763 
L 2988 3500 
L 3597 3500 
L 2059 -325 
z
" transform="scale(0.015625)"/>
       <path id="DejaVuSans-5d" d="M 353 3500 
L 3084 3500 
L 3084 2975 
L 922 459 
L 3084 459 
L 3084 0 
L 275 0 
L 275 525 
L 2438 3041 
L 353 3041 
L 353 3500 
z
" transform="scale(0.015625)"/>
       <path id="DejaVuSans-55" d="M 2631 2963 
Q 2534 3019 2420 3045 
Q 2306 3072 2169 3072 
Q 1681 3072 1420 2755 
Q 1159 2438 1159 1844 
L 1159 0 
L 581 0 
L 581 3500 
L 1159 3500 
L 1159 2956 
Q 1341 3275 1631 3429 
Q 1922 3584 2338 3584 
Q 2397 3584 2469 3576 
Q 2541 3569 2628 3553 
L 2631 2963 
z
" transform="scale(0.015625)"/>
       <path id="DejaVuSans-23" d="M 2381 1678 
Q 2381 1231 2603 976 
Q 2825 722 3213 722 
Q 3597 722 3817 978 
Q 4038 1234 4038 1678 
Q 4038 2116 3813 2373 
Q 3588 2631 3206 2631 
Q 2828 2631 2604 2375 
Q 2381 2119 2381 1678 
z
M 4084 744 
Q 3897 503 3655 389 
Q 3413 275 3091 275 
Q 2553 275 2217 664 
Q 1881 1053 1881 1678 
Q 1881 2303 2218 2693 
Q 2556 3084 3091 3084 
Q 3413 3084 3656 2967 
Q 3900 2850 4084 2613 
L 4084 3022 
L 4531 3022 
L 4531 722 
Q 4988 791 5245 1139 
Q 5503 1488 5503 2041 
Q 5503 2375 5404 2669 
Q 5306 2963 5106 3213 
Q 4781 3622 4314 3839 
Q 3847 4056 3297 4056 
Q 2913 4056 2559 3954 
Q 2206 3853 1906 3653 
Q 1416 3334 1139 2817 
Q 863 2300 863 1697 
Q 863 1200 1042 765 
Q 1222 331 1563 0 
Q 1891 -325 2322 -495 
Q 2753 -666 3244 -666 
Q 3647 -666 4036 -530 
Q 4425 -394 4750 -141 
L 5031 -488 
Q 4641 -791 4180 -952 
Q 3719 -1113 3244 -1113 
Q 2666 -1113 2153 -908 
Q 1641 -703 1241 -313 
Q 841 78 631 592 
Q 422 1106 422 1697 
Q 422 2266 634 2781 
Q 847 3297 1241 3688 
Q 1644 4084 2172 4295 
Q 2700 4506 3291 4506 
Q 3953 4506 4520 4234 
Q 5088 3963 5472 3463 
Q 5706 3156 5829 2797 
Q 5953 2438 5953 2053 
Q 5953 1231 5456 756 
Q 4959 281 4084 263 
L 4084 744 
z
" transform="scale(0.015625)"/>
       <path id="DejaVuSans-30" d="M 628 4666 
L 1569 4666 
L 2759 1491 
L 3956 4666 
L 4897 4666 
L 4897 0 
L 4281 0 
L 4281 4097 
L 3078 897 
L 2444 897 
L 1241 4097 
L 1241 0 
L 628 0 
L 628 4666 
z
" transform="scale(0.015625)"/>
       <path id="DejaVuSans-2b" d="M 628 4666 
L 1259 4666 
L 1259 2753 
L 3553 2753 
L 3553 4666 
L 4184 4666 
L 4184 0 
L 3553 0 
L 3553 2222 
L 1259 2222 
L 1259 0 
L 628 0 
L 628 4666 
z
" transform="scale(0.015625)"/>
       <path id="DejaVuSans-f" d="M 750 794 
L 1409 794 
L 1409 256 
L 897 -744 
L 494 -744 
L 750 256 
L 750 794 
z
" transform="scale(0.015625)"/>
       <path id="DejaVuSans-11" d="M 684 794 
L 1344 794 
L 1344 0 
L 684 0 
L 684 794 
z
" transform="scale(0.015625)"/>
       <path id="DejaVuSans-12" d="M 1625 4666 
L 2156 4666 
L 531 -594 
L 0 -594 
L 1625 4666 
z
" transform="scale(0.015625)"/>
       <path id="DejaVuSans-53" d="M 1159 525 
L 1159 -1331 
L 581 -1331 
L 581 3500 
L 1159 3500 
L 1159 2969 
Q 1341 3281 1617 3432 
Q 1894 3584 2278 3584 
Q 2916 3584 3314 3078 
Q 3713 2572 3713 1747 
Q 3713 922 3314 415 
Q 2916 -91 2278 -91 
Q 1894 -91 1617 61 
Q 1341 213 1159 525 
z
M 3116 1747 
Q 3116 2381 2855 2742 
Q 2594 3103 2138 3103 
Q 1681 3103 1420 2742 
Q 1159 2381 1159 1747 
Q 1159 1113 1420 752 
Q 1681 391 2138 391 
Q 2594 391 2855 752 
Q 3116 1113 3116 1747 
z
" transform="scale(0.015625)"/>
       <path id="DejaVuSans-40" d="M 1947 4863 
L 1947 -844 
L 622 -844 
L 622 -397 
L 1369 -397 
L 1369 4416 
L 622 4416 
L 622 4863 
L 1947 4863 
z
" transform="scale(0.015625)"/>
      </defs>
      <use xlink:href="#DejaVuSans-57"/>
      <use xlink:href="#DejaVuSans-4c" transform="translate(39.203125 0)"/>
      <use xlink:href="#DejaVuSans-50" transform="translate(66.984375 0)"/>
      <use xlink:href="#DejaVuSans-48" transform="translate(164.390625 0)"/>
      <use xlink:href="#DejaVuSans-3" transform="translate(225.921875 0)"/>
      <use xlink:href="#DejaVuSans-b" transform="translate(257.703125 0)"/>
      <use xlink:href="#DejaVuSans-58" transform="translate(296.71875 0)"/>
      <use xlink:href="#DejaVuSans-56" transform="translate(360.09375 0)"/>
      <use xlink:href="#DejaVuSans-c" transform="translate(412.1875 0)"/>
      <use xlink:href="#DejaVuSans-3" transform="translate(451.203125 0)"/>
      <use xlink:href="#DejaVuSans-3" transform="translate(482.984375 0)"/>
      <use xlink:href="#DejaVuSans-3" transform="translate(514.765625 0)"/>
      <use xlink:href="#DejaVuSans-3" transform="translate(546.546875 0)"/>
      <use xlink:href="#DejaVuSans-3e" transform="translate(578.328125 0)"/>
      <use xlink:href="#DejaVuSans-4f" transform="translate(617.34375 0)"/>
      <use xlink:href="#DejaVuSans-52" transform="translate(645.125 0)"/>
      <use xlink:href="#DejaVuSans-4a" transform="translate(706.3125 0)"/>
      <use xlink:href="#DejaVuSans-4c" transform="translate(769.796875 0)"/>
      <use xlink:href="#DejaVuSans-46" transform="translate(797.578125 0)"/>
      <use xlink:href="#DejaVuSans-3" transform="translate(852.5625 0)"/>
      <use xlink:href="#DejaVuSans-44" transform="translate(884.34375 0)"/>
      <use xlink:href="#DejaVuSans-51" transform="translate(945.625 0)"/>
      <use xlink:href="#DejaVuSans-44" transform="translate(1009 0)"/>
      <use xlink:href="#DejaVuSans-4f" transform="translate(1070.28125 0)"/>
      <use xlink:href="#DejaVuSans-5c" transform="translate(1098.0625 0)"/>
      <use xlink:href="#DejaVuSans-5d" transform="translate(1157.25 0)"/>
      <use xlink:href="#DejaVuSans-48" transform="translate(1209.734375 0)"/>
      <use xlink:href="#DejaVuSans-55" transform="translate(1271.265625 0)"/>
      <use xlink:href="#DejaVuSans-3" transform="translate(1312.375 0)"/>
      <use xlink:href="#DejaVuSans-23" transform="translate(1344.15625 0)"/>
      <use xlink:href="#DejaVuSans-3" transform="translate(1444.15625 0)"/>
      <use xlink:href="#DejaVuSans-17" transform="translate(1475.9375 0)"/>
      <use xlink:href="#DejaVuSans-3" transform="translate(1539.5625 0)"/>
      <use xlink:href="#DejaVuSans-30" transform="translate(1571.34375 0)"/>
      <use xlink:href="#DejaVuSans-2b" transform="translate(1657.625 0)"/>
      <use xlink:href="#DejaVuSans-5d" transform="translate(1732.828125 0)"/>
      <use xlink:href="#DejaVuSans-f" transform="translate(1785.3125 0)"/>
      <use xlink:href="#DejaVuSans-3" transform="translate(1817.09375 0)"/>
      <use xlink:href="#DejaVuSans-13" transform="translate(1848.875 0)"/>
      <use xlink:href="#DejaVuSans-11" transform="translate(1912.5 0)"/>
      <use xlink:href="#DejaVuSans-15" transform="translate(1944.28125 0)"/>
      <use xlink:href="#DejaVuSans-18" transform="translate(2007.90625 0)"/>
      <use xlink:href="#DejaVuSans-3" transform="translate(2071.53125 0)"/>
      <use xlink:href="#DejaVuSans-58" transform="translate(2103.3125 0)"/>
      <use xlink:href="#DejaVuSans-56" transform="translate(2166.6875 0)"/>
      <use xlink:href="#DejaVuSans-12" transform="translate(2218.78125 0)"/>
      <use xlink:href="#DejaVuSans-56" transform="translate(2252.46875 0)"/>
      <use xlink:href="#DejaVuSans-44" transform="translate(2304.5625 0)"/>
      <use xlink:href="#DejaVuSans-50" transform="translate(2365.84375 0)"/>
      <use xlink:href="#DejaVuSans-53" transform="translate(2463.25 0)"/>
      <use xlink:href="#DejaVuSans-4f" transform="translate(2526.734375 0)"/>
      <use xlink:href="#DejaVuSans-48" transform="translate(2554.515625 0)"/>
      <use xlink:href="#DejaVuSans-40" transform="translate(2616.046875 0)"/>
     </g>
    </g>
   </g>
   <g id="matplotlib.axis_2"/>
   <g id="line2d_13">
    <path d="M 115.877029 90.482059 
L 116.953871 90.482059 
L 116.953871 124.564027 
L 117.043607 124.564027 
L 117.34273 124.564027 
L 117.34273 90.482059 
L 117.432467 90.482059 
L 119.346853 90.482059 
L 119.346853 124.564027 
L 119.43659 124.564027 
L 120.124572 124.564027 
L 120.124572 90.482059 
L 120.214309 90.482059 
L 121.321064 90.482059 
L 121.321064 124.564027 
L 121.4108 124.564027 
L 121.739836 124.564027 
L 121.739836 90.482059 
L 121.829572 90.482059 
L 122.517555 90.482059 
L 122.517555 124.564027 
L 122.607292 124.564027 
L 122.936327 124.564027 
L 122.936327 90.482059 
L 123.026064 90.482059 
L 124.132818 90.482059 
L 124.132818 124.564027 
L 124.222555 124.564027 
L 124.910537 124.564027 
L 124.910537 90.482059 
L 125.000274 90.482059 
L 125.718169 90.482059 
L 125.718169 124.564027 
L 125.807906 124.564027 
L 126.5258 124.564027 
L 126.5258 90.482059 
L 126.615537 90.482059 
L 126.91466 90.482059 
L 126.91466 124.564027 
L 127.004397 124.564027 
L 127.30352 124.564027 
L 127.30352 90.482059 
L 127.393257 90.482059 
L 128.111151 90.482059 
L 128.111151 124.564027 
L 128.200888 124.564027 
L 129.307643 124.564027 
L 129.307643 90.482059 
L 129.397379 90.482059 
L 130.115274 90.482059 
L 130.115274 124.564027 
L 130.205011 124.564027 
L 130.504134 124.564027 
L 130.504134 90.482059 
L 130.593871 90.482059 
L 130.892993 90.482059 
L 130.892993 124.564027 
L 130.98273 124.564027 
L 131.700625 124.564027 
L 131.700625 90.482059 
L 131.790362 90.482059 
L 132.508257 90.482059 
L 132.508257 124.564027 
L 132.597993 124.564027 
L 132.897116 124.564027 
L 132.897116 90.482059 
L 132.986853 90.482059 
L 133.285976 90.482059 
L 133.285976 124.564027 
L 133.375713 124.564027 
L 133.704748 124.564027 
L 133.704748 90.482059 
L 133.794485 90.482059 
L 134.482467 90.482059 
L 134.482467 124.564027 
L 134.572204 124.564027 
L 134.901239 124.564027 
L 134.901239 90.482059 
L 134.990976 90.482059 
L 136.09773 90.482059 
L 136.09773 124.564027 
L 136.187467 124.564027 
L 136.48659 124.564027 
L 136.48659 90.482059 
L 136.576327 90.482059 
L 136.87545 90.482059 
L 136.87545 124.564027 
L 136.965186 124.564027 
L 137.294221 124.564027 
L 137.294221 90.482059 
L 137.383958 90.482059 
L 138.879572 90.482059 
L 138.879572 124.564027 
L 138.969309 124.564027 
L 139.687204 124.564027 
L 139.687204 90.482059 
L 139.776941 90.482059 
L 140.076064 90.482059 
L 140.076064 124.564027 
L 140.1658 124.564027 
L 142.469046 124.564027 
L 142.469046 90.482059 
L 142.558783 90.482059 
L 143.276678 90.482059 
L 143.276678 124.564027 
L 143.366414 124.564027 
L 146.866151 124.564027 
L 146.866151 90.482059 
L 146.955888 90.482059 
L 147.643871 90.482059 
L 147.643871 124.564027 
L 147.733607 124.564027 
L 151.233344 124.564027 
L 151.233344 90.482059 
L 151.323081 90.482059 
L 152.040976 90.482059 
L 152.040976 124.564027 
L 152.130713 124.564027 
L 155.63045 124.564027 
L 155.63045 90.482059 
L 155.720186 90.482059 
L 156.438081 90.482059 
L 156.438081 124.564027 
L 156.527818 124.564027 
L 158.412292 124.564027 
L 158.412292 90.482059 
L 158.502029 90.482059 
L 158.831064 90.482059 
L 158.831064 124.564027 
L 158.9208 124.564027 
L 160.027555 124.564027 
L 160.027555 90.482059 
L 160.117292 90.482059 
L 160.805274 90.482059 
L 160.805274 124.564027 
L 160.895011 124.564027 
L 164.394748 124.564027 
L 164.394748 90.482059 
L 164.484485 90.482059 
L 165.202379 90.482059 
L 165.202379 124.564027 
L 165.292116 124.564027 
L 165.591239 124.564027 
L 165.591239 90.482059 
L 165.680976 90.482059 
L 165.980099 90.482059 
L 165.980099 124.564027 
L 166.069836 124.564027 
L 168.732029 124.564027 
L 168.732029 90.482059 
L 168.821765 90.482059 
L 169.53966 90.482059 
L 169.53966 124.564027 
L 169.629397 124.564027 
L 170.736151 124.564027 
L 170.736151 90.482059 
L 170.825888 90.482059 
L 171.513871 90.482059 
L 171.513871 124.564027 
L 171.603607 124.564027 
L 173.129134 124.564027 
L 173.129134 90.482059 
L 173.218871 90.482059 
L 173.906853 90.482059 
L 173.906853 124.564027 
L 173.99659 124.564027 
L 177.496327 124.564027 
L 177.496327 90.482059 
L 177.586064 90.482059 
L 178.303958 90.482059 
L 178.303958 124.564027 
L 178.393695 124.564027 
L 181.893432 124.564027 
L 181.893432 90.482059 
L 181.983169 90.482059 
L 182.701064 90.482059 
L 182.701064 124.564027 
L 182.7908 124.564027 
L 186.290537 124.564027 
L 186.290537 90.482059 
L 186.380274 90.482059 
L 187.068257 90.482059 
L 187.068257 124.564027 
L 187.157993 124.564027 
L 190.65773 124.564027 
L 190.65773 90.482059 
L 190.747467 90.482059 
L 191.465362 90.482059 
L 191.465362 124.564027 
L 191.555099 124.564027 
L 195.054836 124.564027 
L 195.054836 90.482059 
L 195.144572 90.482059 
L 195.862467 90.482059 
L 195.862467 124.564027 
L 195.952204 124.564027 
L 199.451941 124.564027 
L 199.451941 90.482059 
L 199.541678 90.482059 
L 200.22966 90.482059 
L 200.22966 124.564027 
L 200.319397 124.564027 
L 200.648432 124.564027 
L 200.648432 90.482059 
L 200.738169 90.482059 
L 202.233783 90.482059 
L 202.233783 124.564027 
L 202.32352 124.564027 
L 203.819134 124.564027 
L 203.819134 90.482059 
L 203.908871 90.482059 
L 204.626765 90.482059 
L 204.626765 124.564027 
L 204.716502 124.564027 
L 205.015625 124.564027 
L 205.015625 90.482059 
L 205.105362 90.482059 
L 209.023871 90.482059 
L 209.023871 124.564027 
L 209.113607 124.564027 
L 209.41273 124.564027 
L 209.41273 90.482059 
L 209.502467 90.482059 
L 213.391064 90.482059 
L 213.391064 124.564027 
L 213.4808 124.564027 
L 213.809836 124.564027 
L 213.809836 90.482059 
L 213.899572 90.482059 
L 217.339485 90.482059 
L 217.339485 124.564027 
L 217.429221 124.564027 
L 217.728344 124.564027 
L 217.728344 90.482059 
L 217.818081 90.482059 
L 221.73659 90.482059 
L 221.73659 124.564027 
L 221.826327 124.564027 
L 222.12545 124.564027 
L 222.12545 90.482059 
L 222.215186 90.482059 
L 226.103783 90.482059 
L 226.103783 124.564027 
L 226.19352 124.564027 
L 226.522555 124.564027 
L 226.522555 90.482059 
L 226.612292 90.482059 
L 228.107906 90.482059 
L 228.107906 124.564027 
L 228.197643 124.564027 
L 229.693257 124.564027 
L 229.693257 90.482059 
L 229.782993 90.482059 
L 230.500888 90.482059 
L 230.500888 124.564027 
L 230.590625 124.564027 
L 230.889748 124.564027 
L 230.889748 90.482059 
L 230.979485 90.482059 
L 231.30852 90.482059 
L 231.30852 124.564027 
L 231.398257 124.564027 
L 231.697379 124.564027 
L 231.697379 90.482059 
L 231.787116 90.482059 
L 232.893871 90.482059 
L 232.893871 124.564027 
L 232.983607 124.564027 
L 234.090362 124.564027 
L 234.090362 90.482059 
L 234.180099 90.482059 
L 714.09273 90.482059 
L 714.09273 90.482059 
" clip-path="url(#pe98a83e1b9)" style="fill: none; stroke: #1f77b4; stroke-width: 1.4; stroke-linecap: square"/>
   </g>
   <g id="line2d_14">
    <path d="M 115.877029 142.741076 
L 235.496239 142.741076 
L 235.496239 176.823043 
L 235.585976 176.823043 
L 470.606765 176.823043 
L 470.606765 142.741076 
L 470.696502 142.741076 
L 714.09273 142.741076 
L 714.09273 142.741076 
" clip-path="url(#pe98a83e1b9)" style="fill: none; stroke: #ff7f0e; stroke-width: 1.4; stroke-linecap: square"/>
   </g>
   <g id="line2d_15">
    <path d="M 115.877029 195.000092 
L 308.9608 195.000092 
L 308.9608 229.082059 
L 309.050537 229.082059 
L 310.157292 229.082059 
L 310.157292 195.000092 
L 310.247029 195.000092 
L 315.541502 195.000092 
L 315.541502 229.082059 
L 315.631239 229.082059 
L 316.737993 229.082059 
L 316.737993 195.000092 
L 316.82773 195.000092 
L 322.122204 195.000092 
L 322.122204 229.082059 
L 322.211941 229.082059 
L 323.318695 229.082059 
L 323.318695 195.000092 
L 323.408432 195.000092 
L 328.702906 195.000092 
L 328.702906 229.082059 
L 328.792643 229.082059 
L 329.899397 229.082059 
L 329.899397 195.000092 
L 329.989134 195.000092 
L 335.283607 195.000092 
L 335.283607 229.082059 
L 335.373344 229.082059 
L 336.480099 229.082059 
L 336.480099 195.000092 
L 336.569836 195.000092 
L 341.864309 195.000092 
L 341.864309 229.082059 
L 341.954046 229.082059 
L 343.0608 229.082059 
L 343.0608 195.000092 
L 343.150537 195.000092 
L 348.445011 195.000092 
L 348.445011 229.082059 
L 348.534748 229.082059 
L 349.641502 229.082059 
L 349.641502 195.000092 
L 349.731239 195.000092 
L 355.025713 195.000092 
L 355.025713 229.082059 
L 355.11545 229.082059 
L 356.222204 229.082059 
L 356.222204 195.000092 
L 356.311941 195.000092 
L 356.82045 195.000092 
L 356.82045 229.082059 
L 356.910186 229.082059 
L 357.418695 229.082059 
L 357.418695 195.000092 
L 357.508432 195.000092 
L 358.016941 195.000092 
L 358.016941 229.082059 
L 358.106678 229.082059 
L 358.615186 229.082059 
L 358.615186 195.000092 
L 358.704923 195.000092 
L 359.213432 195.000092 
L 359.213432 229.082059 
L 359.303169 229.082059 
L 359.811678 229.082059 
L 359.811678 195.000092 
L 359.901414 195.000092 
L 361.606414 195.000092 
L 361.606414 229.082059 
L 361.696151 229.082059 
L 362.20466 229.082059 
L 362.20466 195.000092 
L 362.294397 195.000092 
L 364.597643 195.000092 
L 364.597643 229.082059 
L 364.687379 229.082059 
L 365.195888 229.082059 
L 365.195888 195.000092 
L 365.285625 195.000092 
L 365.794134 195.000092 
L 365.794134 229.082059 
L 365.883871 229.082059 
L 366.392379 229.082059 
L 366.392379 195.000092 
L 366.482116 195.000092 
L 368.187116 195.000092 
L 368.187116 229.082059 
L 368.276853 229.082059 
L 368.785362 229.082059 
L 368.785362 195.000092 
L 368.875099 195.000092 
L 369.383607 195.000092 
L 369.383607 229.082059 
L 369.473344 229.082059 
L 369.981853 229.082059 
L 369.981853 195.000092 
L 370.07159 195.000092 
L 370.580099 195.000092 
L 370.580099 229.082059 
L 370.669836 229.082059 
L 371.178344 229.082059 
L 371.178344 195.000092 
L 371.268081 195.000092 
L 371.77659 195.000092 
L 371.77659 229.082059 
L 371.866327 229.082059 
L 372.374836 229.082059 
L 372.374836 195.000092 
L 372.464572 195.000092 
L 372.973081 195.000092 
L 372.973081 229.082059 
L 373.062818 229.082059 
L 373.571327 229.082059 
L 373.571327 195.000092 
L 373.661064 195.000092 
L 374.767818 195.000092 
L 374.767818 229.082059 
L 374.857555 229.082059 
L 375.964309 229.082059 
L 375.964309 195.000092 
L 376.054046 195.000092 
L 376.562555 195.000092 
L 376.562555 229.082059 
L 376.652292 229.082059 
L 377.1608 229.082059 
L 377.1608 195.000092 
L 377.250537 195.000092 
L 377.759046 195.000092 
L 377.759046 229.082059 
L 377.848783 229.082059 
L 378.357292 229.082059 
L 378.357292 195.000092 
L 378.447029 195.000092 
L 381.34852 195.000092 
L 381.34852 229.082059 
L 381.438257 229.082059 
L 381.946765 229.082059 
L 381.946765 195.000092 
L 382.036502 195.000092 
L 382.545011 195.000092 
L 382.545011 229.082059 
L 382.634748 229.082059 
L 383.143257 229.082059 
L 383.143257 195.000092 
L 383.232993 195.000092 
L 383.741502 195.000092 
L 383.741502 229.082059 
L 383.831239 229.082059 
L 384.339748 229.082059 
L 384.339748 195.000092 
L 384.429485 195.000092 
L 387.929221 195.000092 
L 387.929221 229.082059 
L 388.018958 229.082059 
L 389.125713 229.082059 
L 389.125713 195.000092 
L 389.21545 195.000092 
L 390.92045 195.000092 
L 390.92045 229.082059 
L 391.010186 229.082059 
L 391.518695 229.082059 
L 391.518695 195.000092 
L 391.608432 195.000092 
L 394.509923 195.000092 
L 394.509923 229.082059 
L 394.59966 229.082059 
L 395.108169 229.082059 
L 395.108169 195.000092 
L 395.197906 195.000092 
L 399.295888 195.000092 
L 399.295888 229.082059 
L 399.385625 229.082059 
L 399.894134 229.082059 
L 399.894134 195.000092 
L 399.983871 195.000092 
L 401.090625 195.000092 
L 401.090625 229.082059 
L 401.180362 229.082059 
L 402.287116 229.082059 
L 402.287116 195.000092 
L 402.376853 195.000092 
L 402.885362 195.000092 
L 402.885362 229.082059 
L 402.975099 229.082059 
L 403.483607 229.082059 
L 403.483607 195.000092 
L 403.573344 195.000092 
L 404.081853 195.000092 
L 404.081853 229.082059 
L 404.17159 229.082059 
L 404.680099 229.082059 
L 404.680099 195.000092 
L 404.769836 195.000092 
L 405.278344 195.000092 
L 405.278344 229.082059 
L 405.368081 229.082059 
L 405.87659 229.082059 
L 405.87659 195.000092 
L 405.966327 195.000092 
L 407.671327 195.000092 
L 407.671327 229.082059 
L 407.761064 229.082059 
L 408.269572 229.082059 
L 408.269572 195.000092 
L 408.359309 195.000092 
L 408.867818 195.000092 
L 408.867818 229.082059 
L 408.957555 229.082059 
L 409.466064 229.082059 
L 409.466064 195.000092 
L 409.5558 195.000092 
L 414.252029 195.000092 
L 414.252029 229.082059 
L 414.341765 229.082059 
L 415.44852 229.082059 
L 415.44852 195.000092 
L 415.538257 195.000092 
L 416.046765 195.000092 
L 416.046765 229.082059 
L 416.136502 229.082059 
L 416.645011 229.082059 
L 416.645011 195.000092 
L 416.734748 195.000092 
L 420.83273 195.000092 
L 420.83273 229.082059 
L 420.922467 229.082059 
L 421.430976 229.082059 
L 421.430976 195.000092 
L 421.520713 195.000092 
L 425.618695 195.000092 
L 425.618695 229.082059 
L 425.708432 229.082059 
L 426.216941 229.082059 
L 426.216941 195.000092 
L 426.306678 195.000092 
L 427.413432 195.000092 
L 427.413432 229.082059 
L 427.503169 229.082059 
L 428.011678 229.082059 
L 428.011678 195.000092 
L 428.101414 195.000092 
L 430.314923 195.000092 
L 430.314923 229.082059 
L 430.40466 229.082059 
L 430.913169 229.082059 
L 430.913169 195.000092 
L 431.002906 195.000092 
L 431.511414 195.000092 
L 431.511414 229.082059 
L 431.601151 229.082059 
L 432.10966 229.082059 
L 432.10966 195.000092 
L 432.199397 195.000092 
L 433.904397 195.000092 
L 433.904397 229.082059 
L 433.994134 229.082059 
L 434.502643 229.082059 
L 434.502643 195.000092 
L 434.592379 195.000092 
L 435.100888 195.000092 
L 435.100888 229.082059 
L 435.190625 229.082059 
L 435.699134 229.082059 
L 435.699134 195.000092 
L 435.788871 195.000092 
L 437.493871 195.000092 
L 437.493871 229.082059 
L 437.583607 229.082059 
L 438.092116 229.082059 
L 438.092116 195.000092 
L 438.181853 195.000092 
L 440.485099 195.000092 
L 440.485099 229.082059 
L 440.574836 229.082059 
L 441.68159 229.082059 
L 441.68159 195.000092 
L 441.771327 195.000092 
L 442.279836 195.000092 
L 442.279836 229.082059 
L 442.369572 229.082059 
L 442.878081 229.082059 
L 442.878081 195.000092 
L 442.967818 195.000092 
L 443.476327 195.000092 
L 443.476327 229.082059 
L 443.566064 229.082059 
L 444.074572 229.082059 
L 444.074572 195.000092 
L 444.164309 195.000092 
L 444.672818 195.000092 
L 444.672818 229.082059 
L 444.762555 229.082059 
L 445.271064 229.082059 
L 445.271064 195.000092 
L 445.3608 195.000092 
L 447.0658 195.000092 
L 447.0658 229.082059 
L 447.155537 229.082059 
L 447.664046 229.082059 
L 447.664046 195.000092 
L 447.753783 195.000092 
L 448.262292 195.000092 
L 448.262292 229.082059 
L 448.352029 229.082059 
L 448.860537 229.082059 
L 448.860537 195.000092 
L 448.950274 195.000092 
L 450.655274 195.000092 
L 450.655274 229.082059 
L 450.745011 229.082059 
L 451.25352 229.082059 
L 451.25352 195.000092 
L 451.343257 195.000092 
L 451.851765 195.000092 
L 451.851765 229.082059 
L 451.941502 229.082059 
L 452.450011 229.082059 
L 452.450011 195.000092 
L 452.539748 195.000092 
L 453.646502 195.000092 
L 453.646502 229.082059 
L 453.736239 229.082059 
L 454.842993 229.082059 
L 454.842993 195.000092 
L 454.93273 195.000092 
L 460.227204 195.000092 
L 460.227204 229.082059 
L 460.316941 229.082059 
L 460.82545 229.082059 
L 460.82545 195.000092 
L 460.915186 195.000092 
L 461.423695 195.000092 
L 461.423695 229.082059 
L 461.513432 229.082059 
L 462.021941 229.082059 
L 462.021941 195.000092 
L 462.111678 195.000092 
L 714.09273 195.000092 
L 714.09273 195.000092 
" clip-path="url(#pe98a83e1b9)" style="fill: none; stroke: #2ca02c; stroke-width: 1.4; stroke-linecap: square"/>
   </g>
   <g id="line2d_16">
    <path d="M 115.877029 247.259109 
L 308.9608 247.259109 
L 308.9608 281.341076 
L 309.050537 281.341076 
L 310.157292 281.341076 
L 310.157292 247.259109 
L 310.247029 247.259109 
L 315.541502 247.259109 
L 315.541502 281.341076 
L 315.631239 281.341076 
L 316.737993 281.341076 
L 316.737993 247.259109 
L 316.82773 247.259109 
L 322.122204 247.259109 
L 322.122204 281.341076 
L 322.211941 281.341076 
L 323.318695 281.341076 
L 323.318695 247.259109 
L 323.408432 247.259109 
L 328.702906 247.259109 
L 328.702906 281.341076 
L 328.792643 281.341076 
L 329.899397 281.341076 
L 329.899397 247.259109 
L 329.989134 247.259109 
L 335.283607 247.259109 
L 335.283607 281.341076 
L 335.373344 281.341076 
L 336.480099 281.341076 
L 336.480099 247.259109 
L 336.569836 247.259109 
L 341.864309 247.259109 
L 341.864309 281.341076 
L 341.954046 281.341076 
L 343.0608 281.341076 
L 343.0608 247.259109 
L 343.150537 247.259109 
L 348.445011 247.259109 
L 348.445011 281.341076 
L 348.534748 281.341076 
L 349.641502 281.341076 
L 349.641502 247.259109 
L 349.731239 247.259109 
L 355.025713 247.259109 
L 355.025713 281.341076 
L 355.11545 281.341076 
L 356.222204 281.341076 
L 356.222204 247.259109 
L 356.311941 247.259109 
L 356.82045 247.259109 
L 356.82045 281.341076 
L 356.910186 281.341076 
L 357.418695 281.341076 
L 357.418695 247.259109 
L 357.508432 247.259109 
L 358.016941 247.259109 
L 358.016941 281.341076 
L 358.106678 281.341076 
L 358.615186 281.341076 
L 358.615186 247.259109 
L 358.704923 247.259109 
L 359.213432 247.259109 
L 359.213432 281.341076 
L 359.303169 281.341076 
L 359.811678 281.341076 
L 359.811678 247.259109 
L 359.901414 247.259109 
L 361.606414 247.259109 
L 361.606414 281.341076 
L 361.696151 281.341076 
L 362.20466 281.341076 
L 362.20466 247.259109 
L 362.294397 247.259109 
L 364.597643 247.259109 
L 364.597643 281.341076 
L 364.687379 281.341076 
L 365.195888 281.341076 
L 365.195888 247.259109 
L 365.285625 247.259109 
L 365.794134 247.259109 
L 365.794134 281.341076 
L 365.883871 281.341076 
L 366.392379 281.341076 
L 366.392379 247.259109 
L 366.482116 247.259109 
L 368.187116 247.259109 
L 368.187116 281.341076 
L 368.276853 281.341076 
L 368.785362 281.341076 
L 368.785362 247.259109 
L 368.875099 247.259109 
L 369.383607 247.259109 
L 369.383607 281.341076 
L 369.473344 281.341076 
L 369.981853 281.341076 
L 369.981853 247.259109 
L 370.07159 247.259109 
L 370.580099 247.259109 
L 370.580099 281.341076 
L 370.669836 281.341076 
L 371.178344 281.341076 
L 371.178344 247.259109 
L 371.268081 247.259109 
L 371.77659 247.259109 
L 371.77659 281.341076 
L 371.866327 281.341076 
L 372.374836 281.341076 
L 372.374836 247.259109 
L 372.464572 247.259109 
L 372.973081 247.259109 
L 372.973081 281.341076 
L 373.062818 281.341076 
L 373.571327 281.341076 
L 373.571327 247.259109 
L 373.661064 247.259109 
L 374.767818 247.259109 
L 374.767818 281.341076 
L 374.857555 281.341076 
L 375.964309 281.341076 
L 375.964309 247.259109 
L 376.054046 247.259109 
L 376.562555 247.259109 
L 376.562555 281.341076 
L 376.652292 281.341076 
L 377.1608 281.341076 
L 377.1608 247.259109 
L 377.250537 247.259109 
L 377.759046 247.259109 
L 377.759046 281.341076 
L 377.848783 281.341076 
L 378.357292 281.341076 
L 378.357292 247.259109 
L 378.447029 247.259109 
L 381.34852 247.259109 
L 381.34852 281.341076 
L 381.438257 281.341076 
L 381.946765 281.341076 
L 381.946765 247.259109 
L 382.036502 247.259109 
L 382.545011 247.259109 
L 382.545011 281.341076 
L 382.634748 281.341076 
L 383.143257 281.341076 
L 383.143257 247.259109 
L 383.232993 247.259109 
L 383.741502 247.259109 
L 383.741502 281.341076 
L 383.831239 281.341076 
L 384.339748 281.341076 
L 384.339748 247.259109 
L 384.429485 247.259109 
L 387.929221 247.259109 
L 387.929221 281.341076 
L 388.018958 281.341076 
L 389.125713 281.341076 
L 389.125713 247.259109 
L 389.21545 247.259109 
L 390.92045 247.259109 
L 390.92045 281.341076 
L 391.010186 281.341076 
L 391.518695 281.341076 
L 391.518695 247.259109 
L 391.608432 247.259109 
L 394.509923 247.259109 
L 394.509923 281.341076 
L 394.59966 281.341076 
L 395.108169 281.341076 
L 395.108169 247.259109 
L 395.197906 247.259109 
L 399.295888 247.259109 
L 399.295888 281.341076 
L 399.385625 281.341076 
L 399.894134 281.341076 
L 399.894134 247.259109 
L 399.983871 247.259109 
L 401.090625 247.259109 
L 401.090625 281.341076 
L 401.180362 281.341076 
L 402.287116 281.341076 
L 402.287116 247.259109 
L 402.376853 247.259109 
L 402.885362 247.259109 
L 402.885362 281.341076 
L 402.975099 281.341076 
L 403.483607 281.341076 
L 403.483607 247.259109 
L 403.573344 247.259109 
L 404.081853 247.259109 
L 404.081853 281.341076 
L 404.17159 281.341076 
L 404.680099 281.341076 
L 404.680099 247.259109 
L 404.769836 247.259109 
L 405.278344 247.259109 
L 405.278344 281.341076 
L 405.368081 281.341076 
L 405.87659 281.341076 
L 405.87659 247.259109 
L 405.966327 247.259109 
L 407.671327 247.259109 
L 407.671327 281.341076 
L 407.761064 281.341076 
L 408.269572 281.341076 
L 408.269572 247.259109 
L 408.359309 247.259109 
L 408.867818 247.259109 
L 408.867818 281.341076 
L 408.957555 281.341076 
L 409.466064 281.341076 
L 409.466064 247.259109 
L 409.5558 247.259109 
L 414.252029 247.259109 
L 414.252029 281.341076 
L 414.341765 281.341076 
L 415.44852 281.341076 
L 415.44852 247.259109 
L 415.538257 247.259109 
L 416.046765 247.259109 
L 416.046765 281.341076 
L 416.136502 281.341076 
L 416.645011 281.341076 
L 416.645011 247.259109 
L 416.734748 247.259109 
L 420.83273 247.259109 
L 420.83273 281.341076 
L 420.922467 281.341076 
L 421.430976 281.341076 
L 421.430976 247.259109 
L 421.520713 247.259109 
L 425.618695 247.259109 
L 425.618695 281.341076 
L 425.708432 281.341076 
L 426.216941 281.341076 
L 426.216941 247.259109 
L 426.306678 247.259109 
L 427.413432 247.259109 
L 427.413432 281.341076 
L 427.503169 281.341076 
L 428.011678 281.341076 
L 428.011678 247.259109 
L 428.101414 247.259109 
L 430.314923 247.259109 
L 430.314923 281.341076 
L 430.40466 281.341076 
L 430.913169 281.341076 
L 430.913169 247.259109 
L 431.002906 247.259109 
L 431.511414 247.259109 
L 431.511414 281.341076 
L 431.601151 281.341076 
L 432.10966 281.341076 
L 432.10966 247.259109 
L 432.199397 247.259109 
L 433.904397 247.259109 
L 433.904397 281.341076 
L 433.994134 281.341076 
L 434.502643 281.341076 
L 434.502643 247.259109 
L 434.592379 247.259109 
L 435.100888 247.259109 
L 435.100888 281.341076 
L 435.190625 281.341076 
L 435.699134 281.341076 
L 435.699134 247.259109 
L 435.788871 247.259109 
L 437.493871 247.259109 
L 437.493871 281.341076 
L 437.583607 281.341076 
L 438.092116 281.341076 
L 438.092116 247.259109 
L 438.181853 247.259109 
L 440.485099 247.259109 
L 440.485099 281.341076 
L 440.574836 281.341076 
L 441.68159 281.341076 
L 441.68159 247.259109 
L 441.771327 247.259109 
L 442.279836 247.259109 
L 442.279836 281.341076 
L 442.369572 281.341076 
L 442.878081 281.341076 
L 442.878081 247.259109 
L 442.967818 247.259109 
L 443.476327 247.259109 
L 443.476327 281.341076 
L 443.566064 281.341076 
L 444.074572 281.341076 
L 444.074572 247.259109 
L 444.164309 247.259109 
L 444.672818 247.259109 
L 444.672818 281.341076 
L 444.762555 281.341076 
L 445.271064 281.341076 
L 445.271064 247.259109 
L 445.3608 247.259109 
L 447.0658 247.259109 
L 447.0658 281.341076 
L 447.155537 281.341076 
L 447.664046 281.341076 
L 447.664046 247.259109 
L 447.753783 247.259109 
L 448.262292 247.259109 
L 448.262292 281.341076 
L 448.352029 281.341076 
L 448.860537 281.341076 
L 448.860537 247.259109 
L 448.950274 247.259109 
L 450.655274 247.259109 
L 450.655274 281.341076 
L 450.745011 281.341076 
L 451.25352 281.341076 
L 451.25352 247.259109 
L 451.343257 247.259109 
L 451.851765 247.259109 
L 451.851765 281.341076 
L 451.941502 281.341076 
L 452.450011 281.341076 
L 452.450011 247.259109 
L 452.539748 247.259109 
L 453.646502 247.259109 
L 453.646502 281.341076 
L 453.736239 281.341076 
L 454.842993 281.341076 
L 454.842993 247.259109 
L 454.93273 247.259109 
L 460.227204 247.259109 
L 460.227204 281.341076 
L 460.316941 281.341076 
L 460.82545 281.341076 
L 460.82545 247.259109 
L 460.915186 247.259109 
L 461.423695 247.259109 
L 461.423695 281.341076 
L 461.513432 281.341076 
L 462.021941 281.341076 
L 462.021941 247.259109 
L 462.111678 247.259109 
L 714.09273 247.259109 
L 714.09273 247.259109 
" clip-path="url(#pe98a83e1b9)" style="fill: none; stroke: #d62728; stroke-width: 1.4; stroke-linecap: square"/>
   </g>
   <g id="line2d_17">
    <path d="M 235.526151 299.518125 
L 235.526151 22.318125 
" clip-path="url(#pe98a83e1b9)" style="fill: none; stroke-dasharray: 4.44,1.92; stroke-dashoffset: 0; stroke: #ff0000; stroke-opacity: 0.75; stroke-width: 1.2"/>
   </g>
   <g id="patch_3">
    <path d="M 100.322643 299.518125 
L 100.322643 22.318125 
" style="fill: none; stroke: #000000; stroke-width: 0.8; stroke-linejoin: miter; stroke-linecap: square"/>
   </g>
   <g id="patch_4">
    <path d="M 714.122643 299.518125 
L 714.122643 22.318125 
" style="fill: none; stroke: #000000; stroke-width: 0.8; stroke-linejoin: miter; stroke-linecap: square"/>
   </g>
   <g id="patch_5">
    <path d="M 100.322643 299.518125 
L 714.122643 299.518125 
" style="fill: none; stroke: #000000; stroke-width: 0.8; stroke-linejoin: miter; stroke-linecap: square"/>
   </g>
   <g id="patch_6">
    <path d="M 100.322643 22.318125 
L 714.122643 22.318125 
" style="fill: none; stroke: #000000; stroke-width: 0.8; stroke-linejoin: miter; stroke-linecap: square"/>
   </g>
   <g id="text_8">
    <!-- ctrlTX  (request) -->
    <g style="fill: #1f77b4" transform="translate(21.278125 110.348303) scale(0.1 -0.1)">
     <defs>
      <path id="DejaVuSans-37" d="M -19 4666 
L 3928 4666 
L 3928 4134 
L 2272 4134 
L 2272 0 
L 1638 0 
L 1638 4134 
L -19 4134 
L -19 4666 
z
" transform="scale(0.015625)"/>
      <path id="DejaVuSans-3b" d="M 403 4666 
L 1081 4666 
L 2241 2931 
L 3406 4666 
L 4084 4666 
L 2584 2425 
L 4184 0 
L 3506 0 
L 2194 1984 
L 872 0 
L 191 0 
L 1856 2491 
L 403 4666 
z
" transform="scale(0.015625)"/>
      <path id="DejaVuSans-54" d="M 947 1747 
Q 947 1113 1208 752 
Q 1469 391 1925 391 
Q 2381 391 2643 752 
Q 2906 1113 2906 1747 
Q 2906 2381 2643 2742 
Q 2381 3103 1925 3103 
Q 1469 3103 1208 2742 
Q 947 2381 947 1747 
z
M 2906 525 
Q 2725 213 2448 61 
Q 2172 -91 1784 -91 
Q 1150 -91 751 415 
Q 353 922 353 1747 
Q 353 2572 751 3078 
Q 1150 3584 1784 3584 
Q 2172 3584 2448 3432 
Q 2725 3281 2906 2969 
L 2906 3500 
L 3481 3500 
L 3481 -1331 
L 2906 -1331 
L 2906 525 
z
" transform="scale(0.015625)"/>
     </defs>
     <use xlink:href="#DejaVuSans-46"/>
     <use xlink:href="#DejaVuSans-57" transform="translate(54.984375 0)"/>
     <use xlink:href="#DejaVuSans-55" transform="translate(94.1875 0)"/>
     <use xlink:href="#DejaVuSans-4f" transform="translate(135.296875 0)"/>
     <use xlink:href="#DejaVuSans-37" transform="translate(163.078125 0)"/>
     <use xlink:href="#DejaVuSans-3b" transform="translate(224.15625 0)"/>
     <use xlink:href="#DejaVuSans-3" transform="translate(292.65625 0)"/>
     <use xlink:href="#DejaVuSans-3" transform="translate(324.4375 0)"/>
     <use xlink:href="#DejaVuSans-b" transform="translate(356.21875 0)"/>
     <use xlink:href="#DejaVuSans-55" transform="translate(395.234375 0)"/>
     <use xlink:href="#DejaVuSans-48" transform="translate(434.140625 0)"/>
     <use xlink:href="#DejaVuSans-54" transform="translate(495.671875 0)"/>
     <use xlink:href="#DejaVuSans-58" transform="translate(559.15625 0)"/>
     <use xlink:href="#DejaVuSans-48" transform="translate(622.53125 0)"/>
     <use xlink:href="#DejaVuSans-56" transform="translate(684.0625 0)"/>
     <use xlink:href="#DejaVuSans-57" transform="translate(736.15625 0)"/>
     <use xlink:href="#DejaVuSans-c" transform="translate(775.359375 0)"/>
    </g>
   </g>
   <g id="text_9">
    <!-- ctrlEN  (TX / RX) -->
    <g style="fill: #ff7f0e" transform="translate(21.967187 162.607319) scale(0.1 -0.1)">
     <defs>
      <path id="DejaVuSans-28" d="M 628 4666 
L 3578 4666 
L 3578 4134 
L 1259 4134 
L 1259 2753 
L 3481 2753 
L 3481 2222 
L 1259 2222 
L 1259 531 
L 3634 531 
L 3634 0 
L 628 0 
L 628 4666 
z
" transform="scale(0.015625)"/>
      <path id="DejaVuSans-31" d="M 628 4666 
L 1478 4666 
L 3547 763 
L 3547 4666 
L 4159 4666 
L 4159 0 
L 3309 0 
L 1241 3903 
L 1241 0 
L 628 0 
L 628 4666 
z
" transform="scale(0.015625)"/>
      <path id="DejaVuSans-35" d="M 2841 2188 
Q 3044 2119 3236 1894 
Q 3428 1669 3622 1275 
L 4263 0 
L 3584 0 
L 2988 1197 
Q 2756 1666 2539 1819 
Q 2322 1972 1947 1972 
L 1259 1972 
L 1259 0 
L 628 0 
L 628 4666 
L 2053 4666 
Q 2853 4666 3247 4331 
Q 3641 3997 3641 3322 
Q 3641 2881 3436 2590 
Q 3231 2300 2841 2188 
z
M 1259 4147 
L 1259 2491 
L 2053 2491 
Q 2509 2491 2742 2702 
Q 2975 2913 2975 3322 
Q 2975 3731 2742 3939 
Q 2509 4147 2053 4147 
L 1259 4147 
z
" transform="scale(0.015625)"/>
     </defs>
     <use xlink:href="#DejaVuSans-46"/>
     <use xlink:href="#DejaVuSans-57" transform="translate(54.984375 0)"/>
     <use xlink:href="#DejaVuSans-55" transform="translate(94.1875 0)"/>
     <use xlink:href="#DejaVuSans-4f" transform="translate(135.296875 0)"/>
     <use xlink:href="#DejaVuSans-28" transform="translate(163.078125 0)"/>
     <use xlink:href="#DejaVuSans-31" transform="translate(226.265625 0)"/>
     <use xlink:href="#DejaVuSans-3" transform="translate(301.078125 0)"/>
     <use xlink:href="#DejaVuSans-3" transform="translate(332.859375 0)"/>
     <use xlink:href="#DejaVuSans-b" transform="translate(364.640625 0)"/>
     <use xlink:href="#DejaVuSans-37" transform="translate(403.65625 0)"/>
     <use xlink:href="#DejaVuSans-3b" transform="translate(464.734375 0)"/>
     <use xlink:href="#DejaVuSans-3" transform="translate(533.234375 0)"/>
     <use xlink:href="#DejaVuSans-12" transform="translate(565.015625 0)"/>
     <use xlink:href="#DejaVuSans-3" transform="translate(598.703125 0)"/>
     <use xlink:href="#DejaVuSans-35" transform="translate(630.484375 0)"/>
     <use xlink:href="#DejaVuSans-3b" transform="translate(699.96875 0)"/>
     <use xlink:href="#DejaVuSans-c" transform="translate(768.46875 0)"/>
    </g>
   </g>
   <g id="text_10">
    <!-- ctrlRX  (received) -->
    <g style="fill: #2ca02c" transform="translate(15.55625 214.866336) scale(0.1 -0.1)">
     <defs>
      <path id="DejaVuSans-59" d="M 191 3500 
L 800 3500 
L 1894 563 
L 2988 3500 
L 3597 3500 
L 2284 0 
L 1503 0 
L 191 3500 
z
" transform="scale(0.015625)"/>
      <path id="DejaVuSans-47" d="M 2906 2969 
L 2906 4863 
L 3481 4863 
L 3481 0 
L 2906 0 
L 2906 525 
Q 2725 213 2448 61 
Q 2172 -91 1784 -91 
Q 1150 -91 751 415 
Q 353 922 353 1747 
Q 353 2572 751 3078 
Q 1150 3584 1784 3584 
Q 2172 3584 2448 3432 
Q 2725 3281 2906 2969 
z
M 947 1747 
Q 947 1113 1208 752 
Q 1469 391 1925 391 
Q 2381 391 2643 752 
Q 2906 1113 2906 1747 
Q 2906 2381 2643 2742 
Q 2381 3103 1925 3103 
Q 1469 3103 1208 2742 
Q 947 2381 947 1747 
z
" transform="scale(0.015625)"/>
     </defs>
     <use xlink:href="#DejaVuSans-46"/>
     <use xlink:href="#DejaVuSans-57" transform="translate(54.984375 0)"/>
     <use xlink:href="#DejaVuSans-55" transform="translate(94.1875 0)"/>
     <use xlink:href="#DejaVuSans-4f" transform="translate(135.296875 0)"/>
     <use xlink:href="#DejaVuSans-35" transform="translate(163.078125 0)"/>
     <use xlink:href="#DejaVuSans-3b" transform="translate(232.5625 0)"/>
     <use xlink:href="#DejaVuSans-3" transform="translate(301.0625 0)"/>
     <use xlink:href="#DejaVuSans-3" transform="translate(332.84375 0)"/>
     <use xlink:href="#DejaVuSans-b" transform="translate(364.625 0)"/>
     <use xlink:href="#DejaVuSans-55" transform="translate(403.640625 0)"/>
     <use xlink:href="#DejaVuSans-48" transform="translate(442.546875 0)"/>
     <use xlink:href="#DejaVuSans-46" transform="translate(504.078125 0)"/>
     <use xlink:href="#DejaVuSans-48" transform="translate(559.0625 0)"/>
     <use xlink:href="#DejaVuSans-4c" transform="translate(620.59375 0)"/>
     <use xlink:href="#DejaVuSans-59" transform="translate(648.375 0)"/>
     <use xlink:href="#DejaVuSans-48" transform="translate(707.5625 0)"/>
     <use xlink:href="#DejaVuSans-47" transform="translate(769.09375 0)"/>
     <use xlink:href="#DejaVuSans-c" transform="translate(832.578125 0)"/>
    </g>
   </g>
   <g id="text_11">
    <!-- simTX  (responder) -->
    <g style="fill: #d62728" transform="translate(7.2 267.125352) scale(0.1 -0.1)">
     <use xlink:href="#DejaVuSans-56"/>
     <use xlink:href="#DejaVuSans-4c" transform="translate(52.09375 0)"/>
     <use xlink:href="#DejaVuSans-50" transform="translate(79.875 0)"/>
     <use xlink:href="#DejaVuSans-37" transform="translate(177.28125 0)"/>
     <use xlink:href="#DejaVuSans-3b" transform="translate(238.359375 0)"/>
     <use xlink:href="#DejaVuSans-3" transform="translate(306.859375 0)"/>
     <use xlink:href="#DejaVuSans-3" transform="translate(338.640625 0)"/>
     <use xlink:href="#DejaVuSans-b" transform="translate(370.421875 0)"/>
     <use xlink:href="#DejaVuSans-55" transform="translate(409.4375 0)"/>
     <use xlink:href="#DejaVuSans-48" transform="translate(448.34375 0)"/>
     <use xlink:href="#DejaVuSans-56" transform="translate(509.875 0)"/>
     <use xlink:href="#DejaVuSans-53" transform="translate(561.96875 0)"/>
     <use xlink:href="#DejaVuSans-52" transform="translate(625.453125 0)"/>
     <use xlink:href="#DejaVuSans-51" transform="translate(686.640625 0)"/>
     <use xlink:href="#DejaVuSans-47" transform="translate(750.015625 0)"/>
     <use xlink:href="#DejaVuSans-48" transform="translate(813.5 0)"/>
     <use xlink:href="#DejaVuSans-55" transform="translate(875.03125 0)"/>
     <use xlink:href="#DejaVuSans-c" transform="translate(916.140625 0)"/>
    </g>
   </g>
   <g id="patch_7">
    <path d="M 259.055433 53.838496 
Q 248.286019 55.010945 238.516924 56.074491 
" style="fill: none; stroke: #ff0000; stroke-width: 0.9; stroke-linecap: round"/>
    <path d="M 242.29059 57.474294 
L 238.516924 56.074491 
L 241.900966 53.89544 
" style="fill: none; stroke: #ff0000; stroke-width: 0.9; stroke-linecap: round"/>
   </g>
   <g id="text_12">
    <!-- controller switches to RX -->
    <g style="fill: #ff0000" transform="translate(263.04545 44.248579) scale(0.09 -0.09)">
     <defs>
      <path id="DejaVuSans-5a" d="M 269 3500 
L 844 3500 
L 1563 769 
L 2278 3500 
L 2956 3500 
L 3675 769 
L 4391 3500 
L 4966 3500 
L 4050 0 
L 3372 0 
L 2619 2869 
L 1863 0 
L 1184 0 
L 269 3500 
z
" transform="scale(0.015625)"/>
      <path id="DejaVuSans-4b" d="M 3513 2113 
L 3513 0 
L 2938 0 
L 2938 2094 
Q 2938 2591 2744 2837 
Q 2550 3084 2163 3084 
Q 1697 3084 1428 2787 
Q 1159 2491 1159 1978 
L 1159 0 
L 581 0 
L 581 4863 
L 1159 4863 
L 1159 2956 
Q 1366 3272 1645 3428 
Q 1925 3584 2291 3584 
Q 2894 3584 3203 3211 
Q 3513 2838 3513 2113 
z
" transform="scale(0.015625)"/>
     </defs>
     <use xlink:href="#DejaVuSans-46"/>
     <use xlink:href="#DejaVuSans-52" transform="translate(54.984375 0)"/>
     <use xlink:href="#DejaVuSans-51" transform="translate(116.171875 0)"/>
     <use xlink:href="#DejaVuSans-57" transform="translate(179.546875 0)"/>
     <use xlink:href="#DejaVuSans-55" transform="translate(218.75 0)"/>
     <use xlink:href="#DejaVuSans-52" transform="translate(257.65625 0)"/>
     <use xlink:href="#DejaVuSans-4f" transform="translate(318.84375 0)"/>
     <use xlink:href="#DejaVuSans-4f" transform="translate(346.625 0)"/>
     <use xlink:href="#DejaVuSans-48" transform="translate(374.40625 0)"/>
     <use xlink:href="#DejaVuSans-55" transform="translate(435.9375 0)"/>
     <use xlink:href="#DejaVuSans-3" transform="translate(477.046875 0)"/>
     <use xlink:href="#DejaVuSans-56" transform="translate(508.828125 0)"/>
     <use xlink:href="#DejaVuSans-5a" transform="translate(560.921875 0)"/>
     <use xlink:href="#DejaVuSans-4c" transform="translate(642.703125 0)"/>
     <use xlink:href="#DejaVuSans-57" transform="translate(670.484375 0)"/>
     <use xlink:href="#DejaVuSans-46" transform="translate(709.6875 0)"/>
     <use xlink:href="#DejaVuSans-4b" transform="translate(764.671875 0)"/>
     <use xlink:href="#DejaVuSans-48" transform="translate(828.046875 0)"/>
     <use xlink:href="#DejaVuSans-56" transform="translate(889.578125 0)"/>
     <use xlink:href="#DejaVuSans-3" transform="translate(941.671875 0)"/>
     <use xlink:href="#DejaVuSans-57" transform="translate(973.453125 0)"/>
     <use xlink:href="#DejaVuSans-52" transform="translate(1012.65625 0)"/>
     <use xlink:href="#DejaVuSans-3" transform="translate(1073.84375 0)"/>
     <use xlink:href="#DejaVuSans-35" transform="translate(1105.625 0)"/>
     <use xlink:href="#DejaVuSans-3b" transform="translate(1175.109375 0)"/>
    </g>
    <!-- ~12 us after the request -->
    <g style="fill: #ff0000" transform="translate(263.04545 55.05104) scale(0.09 -0.09)">
     <defs>
      <path id="DejaVuSans-61" d="M 4684 2553 
L 4684 1997 
Q 4356 1750 4076 1644 
Q 3797 1538 3494 1538 
Q 3150 1538 2694 1722 
Q 2659 1734 2644 1741 
Q 2622 1750 2575 1766 
Q 2091 1959 1797 1959 
Q 1522 1959 1253 1839 
Q 984 1719 678 1459 
L 678 2016 
Q 1006 2263 1286 2370 
Q 1566 2478 1869 2478 
Q 2213 2478 2672 2291 
Q 2703 2278 2719 2272 
Q 2744 2263 2788 2247 
Q 3272 2053 3566 2053 
Q 3834 2053 4098 2172 
Q 4363 2291 4684 2553 
z
" transform="scale(0.015625)"/>
      <path id="DejaVuSans-49" d="M 2375 4863 
L 2375 4384 
L 1825 4384 
Q 1516 4384 1395 4259 
Q 1275 4134 1275 3809 
L 1275 3500 
L 2222 3500 
L 2222 3053 
L 1275 3053 
L 1275 0 
L 697 0 
L 697 3053 
L 147 3053 
L 147 3500 
L 697 3500 
L 697 3744 
Q 697 4328 969 4595 
Q 1241 4863 1831 4863 
L 2375 4863 
z
" transform="scale(0.015625)"/>
     </defs>
     <use xlink:href="#DejaVuSans-61"/>
     <use xlink:href="#DejaVuSans-14" transform="translate(83.796875 0)"/>
     <use xlink:href="#DejaVuSans-15" transform="translate(147.421875 0)"/>
     <use xlink:href="#DejaVuSans-3" transform="translate(211.046875 0)"/>
     <use xlink:href="#DejaVuSans-58" transform="translate(242.828125 0)"/>
     <use xlink:href="#DejaVuSans-56" transform="translate(306.203125 0)"/>
     <use xlink:href="#DejaVuSans-3" transform="translate(358.296875 0)"/>
     <use xlink:href="#DejaVuSans-44" transform="translate(390.078125 0)"/>
     <use xlink:href="#DejaVuSans-49" transform="translate(451.359375 0)"/>
     <use xlink:href="#DejaVuSans-57" transform="translate(484.8125 0)"/>
     <use xlink:href="#DejaVuSans-48" transform="translate(524.015625 0)"/>
     <use xlink:href="#DejaVuSans-55" transform="translate(585.546875 0)"/>
     <use xlink:href="#DejaVuSans-3" transform="translate(626.65625 0)"/>
     <use xlink:href="#DejaVuSans-57" transform="translate(658.4375 0)"/>
     <use xlink:href="#DejaVuSans-4b" transform="translate(697.640625 0)"/>
     <use xlink:href="#DejaVuSans-48" transform="translate(761.015625 0)"/>
     <use xlink:href="#DejaVuSans-3" transform="translate(822.546875 0)"/>
     <use xlink:href="#DejaVuSans-55" transform="translate(854.328125 0)"/>
     <use xlink:href="#DejaVuSans-48" transform="translate(893.234375 0)"/>
     <use xlink:href="#DejaVuSans-54" transform="translate(954.765625 0)"/>
     <use xlink:href="#DejaVuSans-58" transform="translate(1018.25 0)"/>
     <use xlink:href="#DejaVuSans-48" transform="translate(1081.625 0)"/>
     <use xlink:href="#DejaVuSans-56" transform="translate(1143.15625 0)"/>
     <use xlink:href="#DejaVuSans-57" transform="translate(1195.25 0)"/>
    </g>
   </g>
   <g id="text_13">
    <!-- RDM request (DISC_UNIQUE_BRANCH) -->
    <g style="fill: #1f77b4" transform="translate(89.608679 78.212551) scale(0.09 -0.09)">
     <defs>
      <path id="DejaVuSans-27" d="M 1259 4147 
L 1259 519 
L 2022 519 
Q 2988 519 3436 956 
Q 3884 1394 3884 2338 
Q 3884 3275 3436 3711 
Q 2988 4147 2022 4147 
L 1259 4147 
z
M 628 4666 
L 1925 4666 
Q 3281 4666 3915 4102 
Q 4550 3538 4550 2338 
Q 4550 1131 3912 565 
Q 3275 0 1925 0 
L 628 0 
L 628 4666 
z
" transform="scale(0.015625)"/>
      <path id="DejaVuSans-2c" d="M 628 4666 
L 1259 4666 
L 1259 0 
L 628 0 
L 628 4666 
z
" transform="scale(0.015625)"/>
      <path id="DejaVuSans-36" d="M 3425 4513 
L 3425 3897 
Q 3066 4069 2747 4153 
Q 2428 4238 2131 4238 
Q 1616 4238 1336 4038 
Q 1056 3838 1056 3469 
Q 1056 3159 1242 3001 
Q 1428 2844 1947 2747 
L 2328 2669 
Q 3034 2534 3370 2195 
Q 3706 1856 3706 1288 
Q 3706 609 3251 259 
Q 2797 -91 1919 -91 
Q 1588 -91 1214 -16 
Q 841 59 441 206 
L 441 856 
Q 825 641 1194 531 
Q 1563 422 1919 422 
Q 2459 422 2753 634 
Q 3047 847 3047 1241 
Q 3047 1584 2836 1778 
Q 2625 1972 2144 2069 
L 1759 2144 
Q 1053 2284 737 2584 
Q 422 2884 422 3419 
Q 422 4038 858 4394 
Q 1294 4750 2059 4750 
Q 2388 4750 2728 4690 
Q 3069 4631 3425 4513 
z
" transform="scale(0.015625)"/>
      <path id="DejaVuSans-26" d="M 4122 4306 
L 4122 3641 
Q 3803 3938 3442 4084 
Q 3081 4231 2675 4231 
Q 1875 4231 1450 3742 
Q 1025 3253 1025 2328 
Q 1025 1406 1450 917 
Q 1875 428 2675 428 
Q 3081 428 3442 575 
Q 3803 722 4122 1019 
L 4122 359 
Q 3791 134 3420 21 
Q 3050 -91 2638 -91 
Q 1578 -91 968 557 
Q 359 1206 359 2328 
Q 359 3453 968 4101 
Q 1578 4750 2638 4750 
Q 3056 4750 3426 4639 
Q 3797 4528 4122 4306 
z
" transform="scale(0.015625)"/>
      <path id="DejaVuSans-42" d="M 3263 -1063 
L 3263 -1509 
L -63 -1509 
L -63 -1063 
L 3263 -1063 
z
" transform="scale(0.015625)"/>
      <path id="DejaVuSans-38" d="M 556 4666 
L 1191 4666 
L 1191 1831 
Q 1191 1081 1462 751 
Q 1734 422 2344 422 
Q 2950 422 3222 751 
Q 3494 1081 3494 1831 
L 3494 4666 
L 4128 4666 
L 4128 1753 
Q 4128 841 3676 375 
Q 3225 -91 2344 -91 
Q 1459 -91 1007 375 
Q 556 841 556 1753 
L 556 4666 
z
" transform="scale(0.015625)"/>
      <path id="DejaVuSans-34" d="M 2522 4238 
Q 1834 4238 1429 3725 
Q 1025 3213 1025 2328 
Q 1025 1447 1429 934 
Q 1834 422 2522 422 
Q 3209 422 3611 934 
Q 4013 1447 4013 2328 
Q 4013 3213 3611 3725 
Q 3209 4238 2522 4238 
z
M 3406 84 
L 4238 -825 
L 3475 -825 
L 2784 -78 
Q 2681 -84 2626 -87 
Q 2572 -91 2522 -91 
Q 1538 -91 948 567 
Q 359 1225 359 2328 
Q 359 3434 948 4092 
Q 1538 4750 2522 4750 
Q 3503 4750 4090 4092 
Q 4678 3434 4678 2328 
Q 4678 1516 4351 937 
Q 4025 359 3406 84 
z
" transform="scale(0.015625)"/>
      <path id="DejaVuSans-25" d="M 1259 2228 
L 1259 519 
L 2272 519 
Q 2781 519 3026 730 
Q 3272 941 3272 1375 
Q 3272 1813 3026 2020 
Q 2781 2228 2272 2228 
L 1259 2228 
z
M 1259 4147 
L 1259 2741 
L 2194 2741 
Q 2656 2741 2882 2914 
Q 3109 3088 3109 3444 
Q 3109 3797 2882 3972 
Q 2656 4147 2194 4147 
L 1259 4147 
z
M 628 4666 
L 2241 4666 
Q 2963 4666 3353 4366 
Q 3744 4066 3744 3513 
Q 3744 3084 3544 2831 
Q 3344 2578 2956 2516 
Q 3422 2416 3680 2098 
Q 3938 1781 3938 1306 
Q 3938 681 3513 340 
Q 3088 0 2303 0 
L 628 0 
L 628 4666 
z
" transform="scale(0.015625)"/>
      <path id="DejaVuSans-24" d="M 2188 4044 
L 1331 1722 
L 3047 1722 
L 2188 4044 
z
M 1831 4666 
L 2547 4666 
L 4325 0 
L 3669 0 
L 3244 1197 
L 1141 1197 
L 716 0 
L 50 0 
L 1831 4666 
z
" transform="scale(0.015625)"/>
     </defs>
     <use xlink:href="#DejaVuSans-35"/>
     <use xlink:href="#DejaVuSans-27" transform="translate(69.484375 0)"/>
     <use xlink:href="#DejaVuSans-30" transform="translate(146.484375 0)"/>
     <use xlink:href="#DejaVuSans-3" transform="translate(232.765625 0)"/>
     <use xlink:href="#DejaVuSans-55" transform="translate(264.546875 0)"/>
     <use xlink:href="#DejaVuSans-48" transform="translate(303.453125 0)"/>
     <use xlink:href="#DejaVuSans-54" transform="translate(364.984375 0)"/>
     <use xlink:href="#DejaVuSans-58" transform="translate(428.46875 0)"/>
     <use xlink:href="#DejaVuSans-48" transform="translate(491.84375 0)"/>
     <use xlink:href="#DejaVuSans-56" transform="translate(553.375 0)"/>
     <use xlink:href="#DejaVuSans-57" transform="translate(605.46875 0)"/>
     <use xlink:href="#DejaVuSans-3" transform="translate(644.671875 0)"/>
     <use xlink:href="#DejaVuSans-b" transform="translate(676.453125 0)"/>
     <use xlink:href="#DejaVuSans-27" transform="translate(715.46875 0)"/>
     <use xlink:href="#DejaVuSans-2c" transform="translate(792.46875 0)"/>
     <use xlink:href="#DejaVuSans-36" transform="translate(821.96875 0)"/>
     <use xlink:href="#DejaVuSans-26" transform="translate(885.453125 0)"/>
     <use xlink:href="#DejaVuSans-42" transform="translate(955.28125 0)"/>
     <use xlink:href="#DejaVuSans-38" transform="translate(1005.28125 0)"/>
     <use xlink:href="#DejaVuSans-31" transform="translate(1078.46875 0)"/>
     <use xlink:href="#DejaVuSans-2c" transform="translate(1153.28125 0)"/>
     <use xlink:href="#DejaVuSans-34" transform="translate(1182.78125 0)"/>
     <use xlink:href="#DejaVuSans-38" transform="translate(1261.5 0)"/>
     <use xlink:href="#DejaVuSans-28" transform="translate(1334.6875 0)"/>
     <use xlink:href="#DejaVuSans-42" transform="translate(1397.875 0)"/>
     <use xlink:href="#DejaVuSans-25" transform="translate(1447.875 0)"/>
     <use xlink:href="#DejaVuSans-35" transform="translate(1516.484375 0)"/>
     <use xlink:href="#DejaVuSans-24" transform="translate(1581.921875 0)"/>
     <use xlink:href="#DejaVuSans-31" transform="translate(1650.328125 0)"/>
     <use xlink:href="#DejaVuSans-26" transform="translate(1725.140625 0)"/>
     <use xlink:href="#DejaVuSans-2b" transform="translate(1794.96875 0)"/>
     <use xlink:href="#DejaVuSans-c" transform="translate(1870.171875 0)"/>
    </g>
   </g>
   <g id="text_14">
    <!-- response:  7x preamble (0xFE) + masked UID -->
    <g style="fill: #2ca02c" transform="translate(282.722621 182.730584) scale(0.09 -0.09)">
     <defs>
      <path id="DejaVuSans-1d" d="M 750 794 
L 1409 794 
L 1409 0 
L 750 0 
L 750 794 
z
M 750 3309 
L 1409 3309 
L 1409 2516 
L 750 2516 
L 750 3309 
z
" transform="scale(0.015625)"/>
      <path id="DejaVuSans-1a" d="M 525 4666 
L 3525 4666 
L 3525 4397 
L 1831 0 
L 1172 0 
L 2766 4134 
L 525 4134 
L 525 4666 
z
" transform="scale(0.015625)"/>
      <path id="DejaVuSans-5b" d="M 3513 3500 
L 2247 1797 
L 3578 0 
L 2900 0 
L 1881 1375 
L 863 0 
L 184 0 
L 1544 1831 
L 300 3500 
L 978 3500 
L 1906 2253 
L 2834 3500 
L 3513 3500 
z
" transform="scale(0.015625)"/>
      <path id="DejaVuSans-45" d="M 3116 1747 
Q 3116 2381 2855 2742 
Q 2594 3103 2138 3103 
Q 1681 3103 1420 2742 
Q 1159 2381 1159 1747 
Q 1159 1113 1420 752 
Q 1681 391 2138 391 
Q 2594 391 2855 752 
Q 3116 1113 3116 1747 
z
M 1159 2969 
Q 1341 3281 1617 3432 
Q 1894 3584 2278 3584 
Q 2916 3584 3314 3078 
Q 3713 2572 3713 1747 
Q 3713 922 3314 415 
Q 2916 -91 2278 -91 
Q 1894 -91 1617 61 
Q 1341 213 1159 525 
L 1159 0 
L 581 0 
L 581 4863 
L 1159 4863 
L 1159 2969 
z
" transform="scale(0.015625)"/>
      <path id="DejaVuSans-29" d="M 628 4666 
L 3309 4666 
L 3309 4134 
L 1259 4134 
L 1259 2759 
L 3109 2759 
L 3109 2228 
L 1259 2228 
L 1259 0 
L 628 0 
L 628 4666 
z
" transform="scale(0.015625)"/>
      <path id="DejaVuSans-e" d="M 2944 4013 
L 2944 2272 
L 4684 2272 
L 4684 1741 
L 2944 1741 
L 2944 0 
L 2419 0 
L 2419 1741 
L 678 1741 
L 678 2272 
L 2419 2272 
L 2419 4013 
L 2944 4013 
z
" transform="scale(0.015625)"/>
      <path id="DejaVuSans-4e" d="M 581 4863 
L 1159 4863 
L 1159 1991 
L 2875 3500 
L 3609 3500 
L 1753 1863 
L 3688 0 
L 2938 0 
L 1159 1709 
L 1159 0 
L 581 0 
L 581 4863 
z
" transform="scale(0.015625)"/>
     </defs>
     <use xlink:href="#DejaVuSans-55"/>
     <use xlink:href="#DejaVuSans-48" transform="translate(38.90625 0)"/>
     <use xlink:href="#DejaVuSans-56" transform="translate(100.4375 0)"/>
     <use xlink:href="#DejaVuSans-53" transform="translate(152.53125 0)"/>
     <use xlink:href="#DejaVuSans-52" transform="translate(216.015625 0)"/>
     <use xlink:href="#DejaVuSans-51" transform="translate(277.203125 0)"/>
     <use xlink:href="#DejaVuSans-56" transform="translate(340.578125 0)"/>
     <use xlink:href="#DejaVuSans-48" transform="translate(392.671875 0)"/>
     <use xlink:href="#DejaVuSans-1d" transform="translate(454.203125 0)"/>
     <use xlink:href="#DejaVuSans-3" transform="translate(487.890625 0)"/>
     <use xlink:href="#DejaVuSans-3" transform="translate(519.671875 0)"/>
     <use xlink:href="#DejaVuSans-1a" transform="translate(551.453125 0)"/>
     <use xlink:href="#DejaVuSans-5b" transform="translate(615.078125 0)"/>
     <use xlink:href="#DejaVuSans-3" transform="translate(674.265625 0)"/>
     <use xlink:href="#DejaVuSans-53" transform="translate(706.046875 0)"/>
     <use xlink:href="#DejaVuSans-55" transform="translate(769.53125 0)"/>
     <use xlink:href="#DejaVuSans-48" transform="translate(808.4375 0)"/>
     <use xlink:href="#DejaVuSans-44" transform="translate(869.96875 0)"/>
     <use xlink:href="#DejaVuSans-50" transform="translate(931.25 0)"/>
     <use xlink:href="#DejaVuSans-45" transform="translate(1028.65625 0)"/>
     <use xlink:href="#DejaVuSans-4f" transform="translate(1092.140625 0)"/>
     <use xlink:href="#DejaVuSans-48" transform="translate(1119.921875 0)"/>
     <use xlink:href="#DejaVuSans-3" transform="translate(1181.453125 0)"/>
     <use xlink:href="#DejaVuSans-b" transform="translate(1213.234375 0)"/>
     <use xlink:href="#DejaVuSans-13" transform="translate(1252.25 0)"/>
     <use xlink:href="#DejaVuSans-5b" transform="translate(1315.875 0)"/>
     <use xlink:href="#DejaVuSans-29" transform="translate(1375.0625 0)"/>
     <use xlink:href="#DejaVuSans-28" transform="translate(1432.578125 0)"/>
     <use xlink:href="#DejaVuSans-c" transform="translate(1495.765625 0)"/>
     <use xlink:href="#DejaVuSans-3" transform="translate(1534.78125 0)"/>
     <use xlink:href="#DejaVuSans-e" transform="translate(1566.5625 0)"/>
     <use xlink:href="#DejaVuSans-3" transform="translate(1650.359375 0)"/>
     <use xlink:href="#DejaVuSans-50" transform="translate(1682.140625 0)"/>
     <use xlink:href="#DejaVuSans-44" transform="translate(1779.546875 0)"/>
     <use xlink:href="#DejaVuSans-56" transform="translate(1840.828125 0)"/>
     <use xlink:href="#DejaVuSans-4e" transform="translate(1892.921875 0)"/>
     <use xlink:href="#DejaVuSans-48" transform="translate(1947.265625 0)"/>
     <use xlink:href="#DejaVuSans-47" transform="translate(2008.796875 0)"/>
     <use xlink:href="#DejaVuSans-3" transform="translate(2072.28125 0)"/>
     <use xlink:href="#DejaVuSans-38" transform="translate(2104.0625 0)"/>
     <use xlink:href="#DejaVuSans-2c" transform="translate(2177.25 0)"/>
     <use xlink:href="#DejaVuSans-27" transform="translate(2206.75 0)"/>
    </g>
   </g>
   <g id="text_15">
    <!-- One full RDM discovery transaction on the RS485 wire -->
    <g transform="translate(244.459518 16.318125) scale(0.12 -0.12)">
     <defs>
      <path id="DejaVuSans-32" d="M 2522 4238 
Q 1834 4238 1429 3725 
Q 1025 3213 1025 2328 
Q 1025 1447 1429 934 
Q 1834 422 2522 422 
Q 3209 422 3611 934 
Q 4013 1447 4013 2328 
Q 4013 3213 3611 3725 
Q 3209 4238 2522 4238 
z
M 2522 4750 
Q 3503 4750 4090 4092 
Q 4678 3434 4678 2328 
Q 4678 1225 4090 567 
Q 3503 -91 2522 -91 
Q 1538 -91 948 565 
Q 359 1222 359 2328 
Q 359 3434 948 4092 
Q 1538 4750 2522 4750 
z
" transform="scale(0.015625)"/>
      <path id="DejaVuSans-1b" d="M 2034 2216 
Q 1584 2216 1326 1975 
Q 1069 1734 1069 1313 
Q 1069 891 1326 650 
Q 1584 409 2034 409 
Q 2484 409 2743 651 
Q 3003 894 3003 1313 
Q 3003 1734 2745 1975 
Q 2488 2216 2034 2216 
z
M 1403 2484 
Q 997 2584 770 2862 
Q 544 3141 544 3541 
Q 544 4100 942 4425 
Q 1341 4750 2034 4750 
Q 2731 4750 3128 4425 
Q 3525 4100 3525 3541 
Q 3525 3141 3298 2862 
Q 3072 2584 2669 2484 
Q 3125 2378 3379 2068 
Q 3634 1759 3634 1313 
Q 3634 634 3220 271 
Q 2806 -91 2034 -91 
Q 1263 -91 848 271 
Q 434 634 434 1313 
Q 434 1759 690 2068 
Q 947 2378 1403 2484 
z
M 1172 3481 
Q 1172 3119 1398 2916 
Q 1625 2713 2034 2713 
Q 2441 2713 2670 2916 
Q 2900 3119 2900 3481 
Q 2900 3844 2670 4047 
Q 2441 4250 2034 4250 
Q 1625 4250 1398 4047 
Q 1172 3844 1172 3481 
z
" transform="scale(0.015625)"/>
     </defs>
     <use xlink:href="#DejaVuSans-32"/>
     <use xlink:href="#DejaVuSans-51" transform="translate(78.71875 0)"/>
     <use xlink:href="#DejaVuSans-48" transform="translate(142.09375 0)"/>
     <use xlink:href="#DejaVuSans-3" transform="translate(203.625 0)"/>
     <use xlink:href="#DejaVuSans-49" transform="translate(235.40625 0)"/>
     <use xlink:href="#DejaVuSans-58" transform="translate(270.609375 0)"/>
     <use xlink:href="#DejaVuSans-4f" transform="translate(333.984375 0)"/>
     <use xlink:href="#DejaVuSans-4f" transform="translate(361.765625 0)"/>
     <use xlink:href="#DejaVuSans-3" transform="translate(389.546875 0)"/>
     <use xlink:href="#DejaVuSans-35" transform="translate(421.328125 0)"/>
     <use xlink:href="#DejaVuSans-27" transform="translate(490.8125 0)"/>
     <use xlink:href="#DejaVuSans-30" transform="translate(567.8125 0)"/>
     <use xlink:href="#DejaVuSans-3" transform="translate(654.09375 0)"/>
     <use xlink:href="#DejaVuSans-47" transform="translate(685.875 0)"/>
     <use xlink:href="#DejaVuSans-4c" transform="translate(749.359375 0)"/>
     <use xlink:href="#DejaVuSans-56" transform="translate(777.140625 0)"/>
     <use xlink:href="#DejaVuSans-46" transform="translate(829.234375 0)"/>
     <use xlink:href="#DejaVuSans-52" transform="translate(884.21875 0)"/>
     <use xlink:href="#DejaVuSans-59" transform="translate(945.40625 0)"/>
     <use xlink:href="#DejaVuSans-48" transform="translate(1004.59375 0)"/>
     <use xlink:href="#DejaVuSans-55" transform="translate(1066.125 0)"/>
     <use xlink:href="#DejaVuSans-5c" transform="translate(1107.234375 0)"/>
     <use xlink:href="#DejaVuSans-3" transform="translate(1166.421875 0)"/>
     <use xlink:href="#DejaVuSans-57" transform="translate(1198.203125 0)"/>
     <use xlink:href="#DejaVuSans-55" transform="translate(1237.40625 0)"/>
     <use xlink:href="#DejaVuSans-44" transform="translate(1278.515625 0)"/>
     <use xlink:href="#DejaVuSans-51" transform="translate(1339.796875 0)"/>
     <use xlink:href="#DejaVuSans-56" transform="translate(1403.171875 0)"/>
     <use xlink:href="#DejaVuSans-44" transform="translate(1455.265625 0)"/>
     <use xlink:href="#DejaVuSans-46" transform="translate(1516.546875 0)"/>
     <use xlink:href="#DejaVuSans-57" transform="translate(1571.53125 0)"/>
     <use xlink:href="#DejaVuSans-4c" transform="translate(1610.734375 0)"/>
     <use xlink:href="#DejaVuSans-52" transform="translate(1638.515625 0)"/>
     <use xlink:href="#DejaVuSans-51" transform="translate(1699.703125 0)"/>
     <use xlink:href="#DejaVuSans-3" transform="translate(1763.078125 0)"/>
     <use xlink:href="#DejaVuSans-52" transform="translate(1794.859375 0)"/>
     <use xlink:href="#DejaVuSans-51" transform="translate(1856.046875 0)"/>
     <use xlink:href="#DejaVuSans-3" transform="translate(1919.421875 0)"/>
     <use xlink:href="#DejaVuSans-57" transform="translate(1951.203125 0)"/>
     <use xlink:href="#DejaVuSans-4b" transform="translate(1990.40625 0)"/>
     <use xlink:href="#DejaVuSans-48" transform="translate(2053.78125 0)"/>
     <use xlink:href="#DejaVuSans-3" transform="translate(2115.3125 0)"/>
     <use xlink:href="#DejaVuSans-35" transform="translate(2147.09375 0)"/>
     <use xlink:href="#DejaVuSans-36" transform="translate(2216.578125 0)"/>
     <use xlink:href="#DejaVuSans-17" transform="translate(2280.0625 0)"/>
     <use xlink:href="#DejaVuSans-1b" transform="translate(2343.6875 0)"/>
     <use xlink:href="#DejaVuSans-18" transform="translate(2407.3125 0)"/>
     <use xlink:href="#DejaVuSans-3" transform="translate(2470.9375 0)"/>
     <use xlink:href="#DejaVuSans-5a" transform="translate(2502.71875 0)"/>
     <use xlink:href="#DejaVuSans-4c" transform="translate(2584.5 0)"/>
     <use xlink:href="#DejaVuSans-55" transform="translate(2612.28125 0)"/>
     <use xlink:href="#DejaVuSans-48" transform="translate(2651.1875 0)"/>
    </g>
   </g>
  </g>
 </g>
 <defs>
  <clipPath id="pe98a83e1b9">
   <rect x="100.322643" y="22.318125" width="613.8" height="277.2"/>
  </clipPath>
 </defs>
</svg>
