#VRML V2.0 utf8
# Taster 6 x 6 mm mit 30 mm Stoessel
# Erzeugt von tools/gen_3d_parts.py. 1 Einheit = 2.54 mm, Y gegenueber dem Footprint gespiegelt.
  Transform { translation 1.27953 -0.88583 0.62992
    children Shape { appearance Appearance { material Material { diffuseColor 0.100 0.100 0.110 specularColor 0.08 0.08 0.08 ambientIntensity 0.30 shininess 0.20 } }
      geometry Box { size 2.36220 2.36220 1.25984 } } }
  Transform { translation 1.27953 -0.88583 1.31890
    children Shape { appearance Appearance { material Material { diffuseColor 0.750 0.760 0.780 specularColor 0.08 0.08 0.08 ambientIntensity 0.30 shininess 0.20 } }
      geometry Box { size 1.73228 1.73228 0.11811 } } }
  Transform { translation 1.27953 -0.88583 1.37795
    children Shape { appearance Appearance { material Material { diffuseColor 0.780 0.700 0.520 specularColor 0.08 0.08 0.08 ambientIntensity 0.30 shininess 0.20 } }
      geometry IndexedFaceSet { solid FALSE
        coord Coordinate { point [ 0.68898 0.00000 0.00000, 0.68898 0.00000 10.43307, 0.67574 0.13441 0.00000, 0.67574 0.13441 10.43307, 0.63653 0.26366 0.00000, 0.63653 0.26366 10.43307, 0.57286 0.38277 0.00000, 0.57286 0.38277 10.43307, 0.48718 0.48718 0.00000, 0.48718 0.48718 10.43307, 0.38277 0.57286 0.00000, 0.38277 0.57286 10.43307, 0.26366 0.63653 0.00000, 0.26366 0.63653 10.43307, 0.13441 0.67574 0.00000, 0.13441 0.67574 10.43307, 0.00000 0.68898 0.00000, 0.00000 0.68898 10.43307, -0.13441 0.67574 0.00000, -0.13441 0.67574 10.43307, -0.26366 0.63653 0.00000, -0.26366 0.63653 10.43307, -0.38277 0.57286 0.00000, -0.38277 0.57286 10.43307, -0.48718 0.48718 0.00000, -0.48718 0.48718 10.43307, -0.57286 0.38277 0.00000, -0.57286 0.38277 10.43307, -0.63653 0.26366 0.00000, -0.63653 0.26366 10.43307, -0.67574 0.13441 0.00000, -0.67574 0.13441 10.43307, -0.68898 0.00000 0.00000, -0.68898 0.00000 10.43307, -0.67574 -0.13441 0.00000, -0.67574 -0.13441 10.43307, -0.63653 -0.26366 0.00000, -0.63653 -0.26366 10.43307, -0.57286 -0.38277 0.00000, -0.57286 -0.38277 10.43307, -0.48718 -0.48718 0.00000, -0.48718 -0.48718 10.43307, -0.38277 -0.57286 0.00000, -0.38277 -0.57286 10.43307, -0.26366 -0.63653 0.00000, -0.26366 -0.63653 10.43307, -0.13441 -0.67574 0.00000, -0.13441 -0.67574 10.43307, -0.00000 -0.68898 0.00000, -0.00000 -0.68898 10.43307, 0.13441 -0.67574 0.00000, 0.13441 -0.67574 10.43307, 0.26366 -0.63653 0.00000, 0.26366 -0.63653 10.43307, 0.38277 -0.57286 0.00000, 0.38277 -0.57286 10.43307, 0.48718 -0.48718 0.00000, 0.48718 -0.48718 10.43307, 0.57286 -0.38277 0.00000, 0.57286 -0.38277 10.43307, 0.63653 -0.26366 0.00000, 0.63653 -0.26366 10.43307, 0.67574 -0.13441 0.00000, 0.67574 -0.13441 10.43307, ] }
        coordIndex [ 0 2 3 1 -1, 2 4 5 3 -1, 4 6 7 5 -1, 6 8 9 7 -1, 8 10 11 9 -1, 10 12 13 11 -1, 12 14 15 13 -1, 14 16 17 15 -1, 16 18 19 17 -1, 18 20 21 19 -1, 20 22 23 21 -1, 22 24 25 23 -1, 24 26 27 25 -1, 26 28 29 27 -1, 28 30 31 29 -1, 30 32 33 31 -1, 32 34 35 33 -1, 34 36 37 35 -1, 36 38 39 37 -1, 38 40 41 39 -1, 40 42 43 41 -1, 42 44 45 43 -1, 44 46 47 45 -1, 46 48 49 47 -1, 48 50 51 49 -1, 50 52 53 51 -1, 52 54 55 53 -1, 54 56 57 55 -1, 56 58 59 57 -1, 58 60 61 59 -1, 60 62 63 61 -1, 62 0 1 63 -1, 1 3 5 7 9 11 13 15 17 19 21 23 25 27 29 31 33 35 37 39 41 43 45 47 49 51 53 55 57 59 61 63 -1, 62 60 58 56 54 52 50 48 46 44 42 40 38 36 34 32 30 28 26 24 22 20 18 16 14 12 10 8 6 4 2 0 -1, ] } } }
  Transform { translation 0.63976 -0.00000 0.29528
    children Shape { appearance Appearance { material Material { diffuseColor 0.750 0.760 0.780 specularColor 0.08 0.08 0.08 ambientIntensity 0.30 shininess 0.20 } }
      geometry Box { size 0.25591 0.23622 0.11811 } } }
  Transform { translation 0.00000 -0.00000 -0.23622
    children Shape { appearance Appearance { material Material { diffuseColor 0.750 0.760 0.780 specularColor 0.08 0.08 0.08 ambientIntensity 0.30 shininess 0.20 } }
      geometry Box { size 0.23622 0.23622 0.78740 } } }
  Transform { translation 1.91929 -0.00000 0.29528
    children Shape { appearance Appearance { material Material { diffuseColor 0.750 0.760 0.780 specularColor 0.08 0.08 0.08 ambientIntensity 0.30 shininess 0.20 } }
      geometry Box { size 0.25591 0.23622 0.11811 } } }
  Transform { translation 2.55906 -0.00000 -0.23622
    children Shape { appearance Appearance { material Material { diffuseColor 0.750 0.760 0.780 specularColor 0.08 0.08 0.08 ambientIntensity 0.30 shininess 0.20 } }
      geometry Box { size 0.23622 0.23622 0.78740 } } }
  Transform { translation 0.63976 -1.77165 0.29528
    children Shape { appearance Appearance { material Material { diffuseColor 0.750 0.760 0.780 specularColor 0.08 0.08 0.08 ambientIntensity 0.30 shininess 0.20 } }
      geometry Box { size 0.25591 0.23622 0.11811 } } }
  Transform { translation 0.00000 -1.77165 -0.23622
    children Shape { appearance Appearance { material Material { diffuseColor 0.750 0.760 0.780 specularColor 0.08 0.08 0.08 ambientIntensity 0.30 shininess 0.20 } }
      geometry Box { size 0.23622 0.23622 0.78740 } } }
  Transform { translation 1.91929 -1.77165 0.29528
    children Shape { appearance Appearance { material Material { diffuseColor 0.750 0.760 0.780 specularColor 0.08 0.08 0.08 ambientIntensity 0.30 shininess 0.20 } }
      geometry Box { size 0.25591 0.23622 0.11811 } } }
  Transform { translation 2.55906 -1.77165 -0.23622
    children Shape { appearance Appearance { material Material { diffuseColor 0.750 0.760 0.780 specularColor 0.08 0.08 0.08 ambientIntensity 0.30 shininess 0.20 } }
      geometry Box { size 0.23622 0.23622 0.78740 } } }
