#VRML V2.0 utf8
# Alps EC11E mit Taster, 12 mm Korpus, 20 mm D-Welle
# Erzeugt von tools/gen_3d_parts.py. 1 Einheit = 2.54 mm, Y gegenueber dem Footprint gespiegelt.
  Transform { translation 2.95276 -0.98425 1.25984
    children Shape { appearance Appearance { material Material { diffuseColor 0.600 0.610 0.640 specularColor 0.08 0.08 0.08 ambientIntensity 0.30 shininess 0.20 } }
      geometry Box { size 4.72441 4.56693 2.51969 } } }
  Transform { translation 2.95276 -0.98425 2.63780
    children Shape { appearance Appearance { material Material { diffuseColor 0.600 0.610 0.640 specularColor 0.08 0.08 0.08 ambientIntensity 0.30 shininess 0.20 } }
      geometry Box { size 3.77953 3.77953 0.23622 } } }
  Transform { translation 2.95276 -0.98425 2.75591
    children Shape { appearance Appearance { material Material { diffuseColor 0.600 0.610 0.640 specularColor 0.08 0.08 0.08 ambientIntensity 0.30 shininess 0.20 } }
      geometry IndexedFaceSet { solid FALSE
        coord Coordinate { point [ 1.37795 0.00000 0.00000, 1.37795 0.00000 1.73228, 1.35148 0.26883 0.00000, 1.35148 0.26883 1.73228, 1.27306 0.52732 0.00000, 1.27306 0.52732 1.73228, 1.14573 0.76555 0.00000, 1.14573 0.76555 1.73228, 0.97436 0.97436 0.00000, 0.97436 0.97436 1.73228, 0.76555 1.14573 0.00000, 0.76555 1.14573 1.73228, 0.52732 1.27306 0.00000, 0.52732 1.27306 1.73228, 0.26883 1.35148 0.00000, 0.26883 1.35148 1.73228, 0.00000 1.37795 0.00000, 0.00000 1.37795 1.73228, -0.26883 1.35148 0.00000, -0.26883 1.35148 1.73228, -0.52732 1.27306 0.00000, -0.52732 1.27306 1.73228, -0.76555 1.14573 0.00000, -0.76555 1.14573 1.73228, -0.97436 0.97436 0.00000, -0.97436 0.97436 1.73228, -1.14573 0.76555 0.00000, -1.14573 0.76555 1.73228, -1.27306 0.52732 0.00000, -1.27306 0.52732 1.73228, -1.35148 0.26883 0.00000, -1.35148 0.26883 1.73228, -1.37795 0.00000 0.00000, -1.37795 0.00000 1.73228, -1.35148 -0.26883 0.00000, -1.35148 -0.26883 1.73228, -1.27306 -0.52732 0.00000, -1.27306 -0.52732 1.73228, -1.14573 -0.76555 0.00000, -1.14573 -0.76555 1.73228, -0.97436 -0.97436 0.00000, -0.97436 -0.97436 1.73228, -0.76555 -1.14573 0.00000, -0.76555 -1.14573 1.73228, -0.52732 -1.27306 0.00000, -0.52732 -1.27306 1.73228, -0.26883 -1.35148 0.00000, -0.26883 -1.35148 1.73228, -0.00000 -1.37795 0.00000, -0.00000 -1.37795 1.73228, 0.26883 -1.35148 0.00000, 0.26883 -1.35148 1.73228, 0.52732 -1.27306 0.00000, 0.52732 -1.27306 1.73228, 0.76555 -1.14573 0.00000, 0.76555 -1.14573 1.73228, 0.97436 -0.97436 0.00000, 0.97436 -0.97436 1.73228, 1.14573 -0.76555 0.00000, 1.14573 -0.76555 1.73228, 1.27306 -0.52732 0.00000, 1.27306 -0.52732 1.73228, 1.35148 -0.26883 0.00000, 1.35148 -0.26883 1.73228, ] }
        coordIndex [ 0 2 3 1 -1, 2 4 5 3 -1, 4 6 7 5 -1, 6 8 9 7 -1, 8 10 11 9 -1, 10 12 13 11 -1, 12 14 15 13 -1, 14 16 17 15 -1, 16 18 19 17 -1, 18 20 21 19 -1, 20 22 23 21 -1, 22 24 25 23 -1, 24 26 27 25 -1, 26 28 29 27 -1, 28 30 31 29 -1, 30 32 33 31 -1, 32 34 35 33 -1, 34 36 37 35 -1, 36 38 39 37 -1, 38 40 41 39 -1, 40 42 43 41 -1, 42 44 45 43 -1, 44 46 47 45 -1, 46 48 49 47 -1, 48 50 51 49 -1, 50 52 53 51 -1, 52 54 55 53 -1, 54 56 57 55 -1, 56 58 59 57 -1, 58 60 61 59 -1, 60 62 63 61 -1, 62 0 1 63 -1, 1 3 5 7 9 11 13 15 17 19 21 23 25 27 29 31 33 35 37 39 41 43 45 47 49 51 53 55 57 59 61 63 -1, 62 60 58 56 54 52 50 48 46 44 42 40 38 36 34 32 30 28 26 24 22 20 18 16 14 12 10 8 6 4 2 0 -1, ] } } }
  Transform { translation 2.95276 -0.98425 4.48819
    children Shape { appearance Appearance { material Material { diffuseColor 0.750 0.760 0.780 specularColor 0.08 0.08 0.08 ambientIntensity 0.30 shininess 0.20 } }
      geometry IndexedFaceSet { solid FALSE
        coord Coordinate { point [ 0.88583 0.00000 0.00000, 0.88583 0.00000 3.38583, 0.88583 0.23042 0.00000, 0.88583 0.23042 3.38583, 0.88583 0.45199 0.00000, 0.88583 0.45199 3.38583, 0.88583 0.65619 0.00000, 0.88583 0.65619 3.38583, 0.83517 0.83517 0.00000, 0.83517 0.83517 3.38583, 0.65619 0.98205 0.00000, 0.65619 0.98205 3.38583, 0.45199 1.09120 0.00000, 0.45199 1.09120 3.38583, 0.23042 1.15841 0.00000, 0.23042 1.15841 3.38583, 0.00000 1.18110 0.00000, 0.00000 1.18110 3.38583, -0.23042 1.15841 0.00000, -0.23042 1.15841 3.38583, -0.45199 1.09120 0.00000, -0.45199 1.09120 3.38583, -0.65619 0.98205 0.00000, -0.65619 0.98205 3.38583, -0.83517 0.83517 0.00000, -0.83517 0.83517 3.38583, -0.98205 0.65619 0.00000, -0.98205 0.65619 3.38583, -1.09120 0.45199 0.00000, -1.09120 0.45199 3.38583, -1.15841 0.23042 0.00000, -1.15841 0.23042 3.38583, -1.18110 0.00000 0.00000, -1.18110 0.00000 3.38583, -1.15841 -0.23042 0.00000, -1.15841 -0.23042 3.38583, -1.09120 -0.45199 0.00000, -1.09120 -0.45199 3.38583, -0.98205 -0.65619 0.00000, -0.98205 -0.65619 3.38583, -0.83517 -0.83517 0.00000, -0.83517 -0.83517 3.38583, -0.65619 -0.98205 0.00000, -0.65619 -0.98205 3.38583, -0.45199 -1.09120 0.00000, -0.45199 -1.09120 3.38583, -0.23042 -1.15841 0.00000, -0.23042 -1.15841 3.38583, -0.00000 -1.18110 0.00000, -0.00000 -1.18110 3.38583, 0.23042 -1.15841 0.00000, 0.23042 -1.15841 3.38583, 0.45199 -1.09120 0.00000, 0.45199 -1.09120 3.38583, 0.65619 -0.98205 0.00000, 0.65619 -0.98205 3.38583, 0.83517 -0.83517 0.00000, 0.83517 -0.83517 3.38583, 0.88583 -0.65619 0.00000, 0.88583 -0.65619 3.38583, 0.88583 -0.45199 0.00000, 0.88583 -0.45199 3.38583, 0.88583 -0.23042 0.00000, 0.88583 -0.23042 3.38583, ] }
        coordIndex [ 0 2 3 1 -1, 2 4 5 3 -1, 4 6 7 5 -1, 6 8 9 7 -1, 8 10 11 9 -1, 10 12 13 11 -1, 12 14 15 13 -1, 14 16 17 15 -1, 16 18 19 17 -1, 18 20 21 19 -1, 20 22 23 21 -1, 22 24 25 23 -1, 24 26 27 25 -1, 26 28 29 27 -1, 28 30 31 29 -1, 30 32 33 31 -1, 32 34 35 33 -1, 34 36 37 35 -1, 36 38 39 37 -1, 38 40 41 39 -1, 40 42 43 41 -1, 42 44 45 43 -1, 44 46 47 45 -1, 46 48 49 47 -1, 48 50 51 49 -1, 50 52 53 51 -1, 52 54 55 53 -1, 54 56 57 55 -1, 56 58 59 57 -1, 58 60 61 59 -1, 60 62 63 61 -1, 62 0 1 63 -1, 1 3 5 7 9 11 13 15 17 19 21 23 25 27 29 31 33 35 37 39 41 43 45 47 49 51 53 55 57 59 61 63 -1, 62 60 58 56 54 52 50 48 46 44 42 40 38 36 34 32 30 28 26 24 22 20 18 16 14 12 10 8 6 4 2 0 -1, ] } } }
  Transform { translation 1.47638 -0.00000 0.21654
    children Shape { appearance Appearance { material Material { diffuseColor 0.750 0.760 0.780 specularColor 0.08 0.08 0.08 ambientIntensity 0.30 shininess 0.20 } }
      geometry Box { size 0.98425 0.27559 0.11811 } } }
  Transform { translation 0.00000 -0.00000 -0.23622
    children Shape { appearance Appearance { material Material { diffuseColor 0.750 0.760 0.780 specularColor 0.08 0.08 0.08 ambientIntensity 0.30 shininess 0.20 } }
      geometry Box { size 0.27559 0.27559 0.78740 } } }
  Transform { translation 1.47638 -0.98425 0.21654
    children Shape { appearance Appearance { material Material { diffuseColor 0.750 0.760 0.780 specularColor 0.08 0.08 0.08 ambientIntensity 0.30 shininess 0.20 } }
      geometry Box { size 0.98425 0.27559 0.11811 } } }
  Transform { translation 0.00000 -0.98425 -0.23622
    children Shape { appearance Appearance { material Material { diffuseColor 0.750 0.760 0.780 specularColor 0.08 0.08 0.08 ambientIntensity 0.30 shininess 0.20 } }
      geometry Box { size 0.27559 0.27559 0.78740 } } }
  Transform { translation 1.47638 -1.96850 0.21654
    children Shape { appearance Appearance { material Material { diffuseColor 0.750 0.760 0.780 specularColor 0.08 0.08 0.08 ambientIntensity 0.30 shininess 0.20 } }
      geometry Box { size 0.98425 0.27559 0.11811 } } }
  Transform { translation 0.00000 -1.96850 -0.23622
    children Shape { appearance Appearance { material Material { diffuseColor 0.750 0.760 0.780 specularColor 0.08 0.08 0.08 ambientIntensity 0.30 shininess 0.20 } }
      geometry Box { size 0.27559 0.27559 0.78740 } } }
  Transform { translation 4.33071 -0.00000 0.21654
    children Shape { appearance Appearance { material Material { diffuseColor 0.750 0.760 0.780 specularColor 0.08 0.08 0.08 ambientIntensity 0.30 shininess 0.20 } }
      geometry Box { size 0.78740 0.27559 0.11811 } } }
  Transform { translation 5.70866 -0.00000 -0.23622
    children Shape { appearance Appearance { material Material { diffuseColor 0.750 0.760 0.780 specularColor 0.08 0.08 0.08 ambientIntensity 0.30 shininess 0.20 } }
      geometry Box { size 0.27559 0.27559 0.78740 } } }
  Transform { translation 4.33071 -1.96850 0.21654
    children Shape { appearance Appearance { material Material { diffuseColor 0.750 0.760 0.780 specularColor 0.08 0.08 0.08 ambientIntensity 0.30 shininess 0.20 } }
      geometry Box { size 0.78740 0.27559 0.11811 } } }
  Transform { translation 5.70866 -1.96850 -0.23622
    children Shape { appearance Appearance { material Material { diffuseColor 0.750 0.760 0.780 specularColor 0.08 0.08 0.08 ambientIntensity 0.30 shininess 0.20 } }
      geometry Box { size 0.27559 0.27559 0.78740 } } }
