#VRML V2.0 utf8
# Bourns MF-R500, Scheibe 17.4 mm x 3.0 mm auf 10.2 mm Raster
# Erzeugt von tools/gen_3d_parts.py. 1 Einheit = 2.54 mm, Y gegenueber dem Footprint gespiegelt.
  Transform { translation 0.00000 -0.23622 0.23622
    children Shape { appearance Appearance { material Material { diffuseColor 0.750 0.760 0.780 specularColor 0.08 0.08 0.08 ambientIntensity 0.30 shininess 0.20 } }
      geometry Box { size 0.31496 0.31496 0.47244 } } }
  Transform { translation 4.01575 -0.23622 0.23622
    children Shape { appearance Appearance { material Material { diffuseColor 0.750 0.760 0.780 specularColor 0.08 0.08 0.08 ambientIntensity 0.30 shininess 0.20 } }
      geometry Box { size 0.31496 0.31496 0.47244 } } }
  Transform { translation 2.00787 -0.23622 3.89764
    children Shape { appearance Appearance { material Material { diffuseColor 0.550 0.420 0.120 specularColor 0.08 0.08 0.08 ambientIntensity 0.30 shininess 0.20 } }
      geometry IndexedFaceSet { solid FALSE
        coord Coordinate { point [ 3.42520 -0.59055 0.00000, 3.42520 0.59055 0.00000, 3.35938 -0.59055 0.66822, 3.35938 0.59055 0.66822, 3.16447 -0.59055 1.31077, 3.16447 0.59055 1.31077, 2.84795 -0.59055 1.90294, 2.84795 0.59055 1.90294, 2.42198 -0.59055 2.42198, 2.42198 0.59055 2.42198, 1.90294 -0.59055 2.84795, 1.90294 0.59055 2.84795, 1.31077 -0.59055 3.16447, 1.31077 0.59055 3.16447, 0.66822 -0.59055 3.35938, 0.66822 0.59055 3.35938, 0.00000 -0.59055 3.42520, 0.00000 0.59055 3.42520, -0.66822 -0.59055 3.35938, -0.66822 0.59055 3.35938, -1.31077 -0.59055 3.16447, -1.31077 0.59055 3.16447, -1.90294 -0.59055 2.84795, -1.90294 0.59055 2.84795, -2.42198 -0.59055 2.42198, -2.42198 0.59055 2.42198, -2.84795 -0.59055 1.90294, -2.84795 0.59055 1.90294, -3.16447 -0.59055 1.31077, -3.16447 0.59055 1.31077, -3.35938 -0.59055 0.66822, -3.35938 0.59055 0.66822, -3.42520 -0.59055 0.00000, -3.42520 0.59055 0.00000, -3.35938 -0.59055 -0.66822, -3.35938 0.59055 -0.66822, -3.16447 -0.59055 -1.31077, -3.16447 0.59055 -1.31077, -2.84795 -0.59055 -1.90294, -2.84795 0.59055 -1.90294, -2.42198 -0.59055 -2.42198, -2.42198 0.59055 -2.42198, -1.90294 -0.59055 -2.84795, -1.90294 0.59055 -2.84795, -1.31077 -0.59055 -3.16447, -1.31077 0.59055 -3.16447, -0.66822 -0.59055 -3.35938, -0.66822 0.59055 -3.35938, -0.00000 -0.59055 -3.42520, -0.00000 0.59055 -3.42520, 0.66822 -0.59055 -3.35938, 0.66822 0.59055 -3.35938, 1.31077 -0.59055 -3.16447, 1.31077 0.59055 -3.16447, 1.90294 -0.59055 -2.84795, 1.90294 0.59055 -2.84795, 2.42198 -0.59055 -2.42198, 2.42198 0.59055 -2.42198, 2.84795 -0.59055 -1.90294, 2.84795 0.59055 -1.90294, 3.16447 -0.59055 -1.31077, 3.16447 0.59055 -1.31077, 3.35938 -0.59055 -0.66822, 3.35938 0.59055 -0.66822, ] }
        coordIndex [ 0 1 3 2 -1, 2 3 5 4 -1, 4 5 7 6 -1, 6 7 9 8 -1, 8 9 11 10 -1, 10 11 13 12 -1, 12 13 15 14 -1, 14 15 17 16 -1, 16 17 19 18 -1, 18 19 21 20 -1, 20 21 23 22 -1, 22 23 25 24 -1, 24 25 27 26 -1, 26 27 29 28 -1, 28 29 31 30 -1, 30 31 33 32 -1, 32 33 35 34 -1, 34 35 37 36 -1, 36 37 39 38 -1, 38 39 41 40 -1, 40 41 43 42 -1, 42 43 45 44 -1, 44 45 47 46 -1, 46 47 49 48 -1, 48 49 51 50 -1, 50 51 53 52 -1, 52 53 55 54 -1, 54 55 57 56 -1, 56 57 59 58 -1, 58 59 61 60 -1, 60 61 63 62 -1, 62 63 1 0 -1, 0 2 4 6 8 10 12 14 16 18 20 22 24 26 28 30 32 34 36 38 40 42 44 46 48 50 52 54 56 58 60 62 -1, 63 61 59 57 55 53 51 49 47 45 43 41 39 37 35 33 31 29 27 25 23 21 19 17 15 13 11 9 7 5 3 1 -1, ] } } }
