<svg xmlns="http://www.w3.org/2000/svg" viewBox="0 0 118.6 58.0"><rect x="1" y="1" width="116.6" height="56.0" rx="6" fill="#0e3b2c" stroke="#1f8a63" stroke-width="0.8"/><rect x="3" y="3" width="112.6" height="52.0" rx="5" fill="none" stroke="#0a2a20" stroke-width="0.5"/><rect x="-2" y="22.5" width="9" height="13" rx="1" fill="#aab2bd" stroke="#6b7480" stroke-width="0.4"/><rect x="12.0" y="16.0" width="101.6" height="26.0" rx="2" fill="#3a4047" stroke="#11151a" stroke-width="0.6"/><rect x="14.0" y="18.0" width="97.6" height="22.0" rx="1.5" fill="none" stroke="#565d66" stroke-width="0.4"/><text x="62.8" y="30.6" fill="#aeb6bf" font-size="4.5" font-weight="600" text-anchor="middle" font-family="sans-serif">ESP32-WROOM-32</text><circle cx="6.0" cy="6.0" r="2" fill="#0d1117" stroke="#1f8a63" stroke-width="0.4"/><circle cx="112.6" cy="6.0" r="2" fill="#0d1117" stroke="#1f8a63" stroke-width="0.4"/><circle cx="6.0" cy="52.0" r="2" fill="#0d1117" stroke="#1f8a63" stroke-width="0.4"/><circle cx="112.6" cy="52.0" r="2" fill="#0d1117" stroke="#1f8a63" stroke-width="0.4"/><rect x="14.5" y="6.5" width="5" height="5" rx="0.8" fill="#d4af37" stroke="#8a6d1a" stroke-width="0.4"/><circle cx="17.0" cy="9.0" r="1.3" fill="#0d1117"/><text x="18.0" y="14.0" fill="#cdd6df" font-size="3" font-family="sans-serif" text-anchor="start" transform="rotate(-90 18.0 14.0)">VP</text><rect x="21.7" y="6.5" width="5" height="5" rx="0.8" fill="#d4af37" stroke="#8a6d1a" stroke-width="0.4"/><circle cx="24.2" cy="9.0" r="1.3" fill="#0d1117"/><text x="25.2" y="14.0" fill="#cdd6df" font-size="3" font-family="sans-serif" text-anchor="start" transform="rotate(-90 25.2 14.0)">VN</text><rect x="28.9" y="6.5" width="5" height="5" rx="0.8" fill="#d4af37" stroke="#8a6d1a" stroke-width="0.4"/><circle cx="31.4" cy="9.0" r="1.3" fill="#0d1117"/><text x="32.4" y="14.0" fill="#cdd6df" font-size="3" font-family="sans-serif" text-anchor="start" transform="rotate(-90 32.4 14.0)">IO34</text><rect x="36.1" y="6.5" width="5" height="5" rx="0.8" fill="#d4af37" stroke="#8a6d1a" stroke-width="0.4"/><circle cx="38.6" cy="9.0" r="1.3" fill="#0d1117"/><text x="39.6" y="14.0" fill="#cdd6df" font-size="3" font-family="sans-serif" text-anchor="start" transform="rotate(-90 39.6 14.0)">IO35</text><rect x="43.3" y="6.5" width="5" height="5" rx="0.8" fill="#d4af37" stroke="#8a6d1a" stroke-width="0.4"/><circle cx="45.8" cy="9.0" r="1.3" fill="#0d1117"/><text x="46.8" y="14.0" fill="#cdd6df" font-size="3" font-family="sans-serif" text-anchor="start" transform="rotate(-90 46.8 14.0)">IO32</text><rect x="50.5" y="6.5" width="5" height="5" rx="0.8" fill="#d4af37" stroke="#8a6d1a" stroke-width="0.4"/><circle cx="53.0" cy="9.0" r="1.3" fill="#0d1117"/><text x="54.0" y="14.0" fill="#cdd6df" font-size="3" font-family="sans-serif" text-anchor="start" transform="rotate(-90 54.0 14.0)">IO33</text><rect x="57.7" y="6.5" width="5" height="5" rx="0.8" fill="#d4af37" stroke="#8a6d1a" stroke-width="0.4"/><circle cx="60.2" cy="9.0" r="1.3" fill="#0d1117"/><text x="61.2" y="14.0" fill="#cdd6df" font-size="3" font-family="sans-serif" text-anchor="start" transform="rotate(-90 61.2 14.0)">IO25</text><rect x="64.9" y="6.5" width="5" height="5" rx="0.8" fill="#d4af37" stroke="#8a6d1a" stroke-width="0.4"/><circle cx="67.4" cy="9.0" r="1.3" fill="#0d1117"/><text x="68.4" y="14.0" fill="#cdd6df" font-size="3" font-family="sans-serif" text-anchor="start" transform="rotate(-90 68.4 14.0)">IO26</text><rect x="72.1" y="6.5" width="5" height="5" rx="0.8" fill="#d4af37" stroke="#8a6d1a" stroke-width="0.4"/><circle cx="74.6" cy="9.0" r="1.3" fill="#0d1117"/><text x="75.6" y="14.0" fill="#cdd6df" font-size="3" font-family="sans-serif" text-anchor="start" transform="rotate(-90 75.6 14.0)">IO27</text><rect x="79.3" y="6.5" width="5" height="5" rx="0.8" fill="#d4af37" stroke="#8a6d1a" stroke-width="0.4"/><circle cx="81.8" cy="9.0" r="1.3" fill="#0d1117"/><text x="82.8" y="14.0" fill="#cdd6df" font-size="3" font-family="sans-serif" text-anchor="start" transform="rotate(-90 82.8 14.0)">IO14</text><rect x="86.5" y="6.5" width="5" height="5" rx="0.8" fill="#d4af37" stroke="#8a6d1a" stroke-width="0.4"/><circle cx="89.0" cy="9.0" r="1.3" fill="#0d1117"/><text x="90.0" y="14.0" fill="#cdd6df" font-size="3" font-family="sans-serif" text-anchor="start" transform="rotate(-90 90.0 14.0)">IO12</text><rect x="93.7" y="6.5" width="5" height="5" rx="0.8" fill="#d4af37" stroke="#8a6d1a" stroke-width="0.4"/><circle cx="96.2" cy="9.0" r="1.3" fill="#0d1117"/><text x="97.2" y="14.0" fill="#cdd6df" font-size="3" font-family="sans-serif" text-anchor="start" transform="rotate(-90 97.2 14.0)">IO13</text><rect x="14.5" y="46.5" width="5" height="5" rx="0.8" fill="#d4af37" stroke="#8a6d1a" stroke-width="0.4"/><circle cx="17.0" cy="49.0" r="1.3" fill="#0d1117"/><text x="18.0" y="44.0" fill="#cdd6df" font-size="3" font-family="sans-serif" text-anchor="end" transform="rotate(-90 18.0 44.0)">IO23</text><rect x="21.7" y="46.5" width="5" height="5" rx="0.8" fill="#d4af37" stroke="#8a6d1a" stroke-width="0.4"/><circle cx="24.2" cy="49.0" r="1.3" fill="#0d1117"/><text x="25.2" y="44.0" fill="#cdd6df" font-size="3" font-family="sans-serif" text-anchor="end" transform="rotate(-90 25.2 44.0)">IO22</text><rect x="28.9" y="46.5" width="5" height="5" rx="0.8" fill="#d4af37" stroke="#8a6d1a" stroke-width="0.4"/><circle cx="31.4" cy="49.0" r="1.3" fill="#0d1117"/><text x="32.4" y="44.0" fill="#cdd6df" font-size="3" font-family="sans-serif" text-anchor="end" transform="rotate(-90 32.4 44.0)">TX0</text><rect x="36.1" y="46.5" width="5" height="5" rx="0.8" fill="#d4af37" stroke="#8a6d1a" stroke-width="0.4"/><circle cx="38.6" cy="49.0" r="1.3" fill="#0d1117"/><text x="39.6" y="44.0" fill="#cdd6df" font-size="3" font-family="sans-serif" text-anchor="end" transform="rotate(-90 39.6 44.0)">RX0</text><rect x="43.3" y="46.5" width="5" height="5" rx="0.8" fill="#d4af37" stroke="#8a6d1a" stroke-width="0.4"/><circle cx="45.8" cy="49.0" r="1.3" fill="#0d1117"/><text x="46.8" y="44.0" fill="#cdd6df" font-size="3" font-family="sans-serif" text-anchor="end" transform="rotate(-90 46.8 44.0)">IO21</text><rect x="50.5" y="46.5" width="5" height="5" rx="0.8" fill="#d4af37" stroke="#8a6d1a" stroke-width="0.4"/><circle cx="53.0" cy="49.0" r="1.3" fill="#0d1117"/><text x="54.0" y="44.0" fill="#cdd6df" font-size="3" font-family="sans-serif" text-anchor="end" transform="rotate(-90 54.0 44.0)">IO19</text><rect x="57.7" y="46.5" width="5" height="5" rx="0.8" fill="#d4af37" stroke="#8a6d1a" stroke-width="0.4"/><circle cx="60.2" cy="49.0" r="1.3" fill="#0d1117"/><text x="61.2" y="44.0" fill="#cdd6df" font-size="3" font-family="sans-serif" text-anchor="end" transform="rotate(-90 61.2 44.0)">IO18</text><rect x="64.9" y="46.5" width="5" height="5" rx="0.8" fill="#d4af37" stroke="#8a6d1a" stroke-width="0.4"/><circle cx="67.4" cy="49.0" r="1.3" fill="#0d1117"/><text x="68.4" y="44.0" fill="#cdd6df" font-size="3" font-family="sans-serif" text-anchor="end" transform="rotate(-90 68.4 44.0)">IO5</text><rect x="72.1" y="46.5" width="5" height="5" rx="0.8" fill="#d4af37" stroke="#8a6d1a" stroke-width="0.4"/><circle cx="74.6" cy="49.0" r="1.3" fill="#0d1117"/><text x="75.6" y="44.0" fill="#cdd6df" font-size="3" font-family="sans-serif" text-anchor="end" transform="rotate(-90 75.6 44.0)">IO17</text><rect x="79.3" y="46.5" width="5" height="5" rx="0.8" fill="#d4af37" stroke="#8a6d1a" stroke-width="0.4"/><circle cx="81.8" cy="49.0" r="1.3" fill="#0d1117"/><text x="82.8" y="44.0" fill="#cdd6df" font-size="3" font-family="sans-serif" text-anchor="end" transform="rotate(-90 82.8 44.0)">IO16</text><rect x="86.5" y="46.5" width="5" height="5" rx="0.8" fill="#d4af37" stroke="#8a6d1a" stroke-width="0.4"/><circle cx="89.0" cy="49.0" r="1.3" fill="#0d1117"/><text x="90.0" y="44.0" fill="#cdd6df" font-size="3" font-family="sans-serif" text-anchor="end" transform="rotate(-90 90.0 44.0)">IO4</text><rect x="93.7" y="46.5" width="5" height="5" rx="0.8" fill="#d4af37" stroke="#8a6d1a" stroke-width="0.4"/><circle cx="96.2" cy="49.0" r="1.3" fill="#0d1117"/><text x="97.2" y="44.0" fill="#cdd6df" font-size="3" font-family="sans-serif" text-anchor="end" transform="rotate(-90 97.2 44.0)">IO0</text><rect x="100.9" y="46.5" width="5" height="5" rx="0.8" fill="#d4af37" stroke="#8a6d1a" stroke-width="0.4"/><circle cx="103.4" cy="49.0" r="1.3" fill="#0d1117"/><text x="104.4" y="44.0" fill="#cdd6df" font-size="3" font-family="sans-serif" text-anchor="end" transform="rotate(-90 104.4 44.0)">IO2</text><rect x="108.1" y="46.5" width="5" height="5" rx="0.8" fill="#d4af37" stroke="#8a6d1a" stroke-width="0.4"/><circle cx="110.6" cy="49.0" r="1.3" fill="#0d1117"/><text x="111.6" y="44.0" fill="#cdd6df" font-size="3" font-family="sans-serif" text-anchor="end" transform="rotate(-90 111.6 44.0)">IO15</text></svg>