<?xml version="1.0" encoding="UTF-8"?>
<svg xmlns="http://www.w3.org/2000/svg" width="980" height="520" viewBox="0 0 980 520">
  <defs>
    <style>text { font-family: "JetBrains Mono","Consolas","Courier New",monospace; }</style>
  </defs>
  <rect width="980" height="520" fill="#0f172a"/><text x="490" y="38" text-anchor="middle" font-size="19" font-weight="bold" fill="#f1f5f9">LuxDMX — Wiring Diagram</text><text x="490" y="57" text-anchor="middle" font-size="11" fill="#64748b">ESP32 DevKit  ↔  Waveshare TTL-to-RS485 (C)  ↔  XLR-5 DMX connector</text><rect x="60" y="80" width="170" height="320" rx="10" fill="#0c2340" stroke="#3b82f6" stroke-width="2"/><text x="145" y="230" text-anchor="middle" font-size="13" font-weight="bold" fill="#f8fafc">ESP32</text><text x="145" y="248" text-anchor="middle" font-size="9.5" fill="#94a3b8">DevKit v1 / WROOM-32</text><rect x="370" y="110" width="190" height="260" rx="10" fill="#0d2318" stroke="#22c55e" stroke-width="2"/><text x="465" y="230" text-anchor="middle" font-size="13" font-weight="bold" fill="#f8fafc">Waveshare</text><text x="465" y="248" text-anchor="middle" font-size="9.5" fill="#94a3b8">TTL→RS485 (C)  •  isolated</text><rect x="680" y="140" width="155" height="200" rx="10" fill="#1e1030" stroke="#a855f7" stroke-width="2"/><text x="757" y="230" text-anchor="middle" font-size="13" font-weight="bold" fill="#f8fafc">XLR-5</text><text x="757" y="248" text-anchor="middle" font-size="9.5" fill="#94a3b8">DMX Output (female)</text><line x1="230" y1="170" x2="250" y2="170" stroke="#f59e0b" stroke-width="2.5"/><text x="224" y="167" text-anchor="end" font-size="10" fill="#cbd5e1">GPIO17</text><text x="224" y="180" text-anchor="end" font-size="8.5" fill="#64748b">UART TX</text><line x1="350" y1="165" x2="370" y2="165" stroke="#f59e0b" stroke-width="2.5"/><text x="375" y="169" text-anchor="start" font-size="10" fill="#cbd5e1">RXD</text><path d="M250 170 L300 170 L300 165 L350 165" fill="none" stroke="#f59e0b" stroke-width="2.5" stroke-linecap="round" stroke-linejoin="round"/><circle cx="250" cy="170" r="4" fill="#f59e0b"/><circle cx="350" cy="165" r="4" fill="#f59e0b"/><line x1="230" y1="230" x2="250" y2="230" stroke="#34d399" stroke-width="2.5"/><text x="224" y="227" text-anchor="end" font-size="10" fill="#cbd5e1">GPIO16</text><text x="224" y="240" text-anchor="end" font-size="8.5" fill="#64748b">UART RX</text><line x1="350" y1="220" x2="370" y2="220" stroke="#34d399" stroke-width="2.5"/><text x="375" y="224" text-anchor="start" font-size="10" fill="#cbd5e1">TXD</text><path d="M250 230 L300 230 L300 220 L350 220" fill="none" stroke="#34d399" stroke-width="2.5" stroke-linecap="round" stroke-linejoin="round"/><circle cx="250" cy="230" r="4" fill="#34d399"/><circle cx="350" cy="220" r="4" fill="#34d399"/><line x1="230" y1="290" x2="250" y2="290" stroke="#ef4444" stroke-width="2.5"/><text x="224" y="287" text-anchor="end" font-size="10" fill="#cbd5e1">3.3 V</text><line x1="350" y1="275" x2="370" y2="275" stroke="#ef4444" stroke-width="2.5"/><text x="375" y="279" text-anchor="start" font-size="10" fill="#cbd5e1">VCC</text><path d="M250 290 L300 290 L300 275 L350 275" fill="none" stroke="#ef4444" stroke-width="2.5" stroke-linecap="round" stroke-linejoin="round"/><circle cx="250" cy="290" r="4" fill="#ef4444"/><circle cx="350" cy="275" r="4" fill="#ef4444"/><line x1="230" y1="345" x2="250" y2="345" stroke="#9ca3af" stroke-width="2.5"/><text x="224" y="342" text-anchor="end" font-size="10" fill="#cbd5e1">GND</text><line x1="350" y1="330" x2="370" y2="330" stroke="#9ca3af" stroke-width="2.5"/><text x="375" y="334" text-anchor="start" font-size="10" fill="#cbd5e1">GND</text><path d="M250 345 L300 345 L300 330 L350 330" fill="none" stroke="#9ca3af" stroke-width="2.5" stroke-linecap="round" stroke-linejoin="round"/><circle cx="250" cy="345" r="4" fill="#9ca3af"/><circle cx="350" cy="330" r="4" fill="#9ca3af"/><line x1="560" y1="185" x2="580" y2="185" stroke="#60a5fa" stroke-width="2.5"/><text x="554" y="182" text-anchor="end" font-size="10" fill="#cbd5e1">A  (Data +)</text><line x1="660" y1="205" x2="680" y2="205" stroke="#60a5fa" stroke-width="2.5"/><text x="685" y="209" text-anchor="start" font-size="10" fill="#cbd5e1">Pin 3  Data +</text><path d="M580 185 L620 185 L620 205 L660 205" fill="none" stroke="#60a5fa" stroke-width="2.5" stroke-linecap="round" stroke-linejoin="round"/><circle cx="580" cy="185" r="4" fill="#60a5fa"/><circle cx="660" cy="205" r="4" fill="#60a5fa"/><line x1="560" y1="280" x2="580" y2="280" stroke="#c084fc" stroke-width="2.5"/><text x="554" y="277" text-anchor="end" font-size="10" fill="#cbd5e1">B  (Data −)</text><line x1="660" y1="255" x2="680" y2="255" stroke="#c084fc" stroke-width="2.5"/><text x="685" y="259" text-anchor="start" font-size="10" fill="#cbd5e1">Pin 2  Data −</text><path d="M580 280 L620 280 L620 255 L660 255" fill="none" stroke="#c084fc" stroke-width="2.5" stroke-linecap="round" stroke-linejoin="round"/><circle cx="580" cy="280" r="4" fill="#c084fc"/><circle cx="660" cy="255" r="4" fill="#c084fc"/><line x1="660" y1="305" x2="680" y2="305" stroke="#9ca3af" stroke-width="2.5"/><text x="685" y="309" text-anchor="start" font-size="10" fill="#cbd5e1">Pin 1  GND</text><line x1="660" y1="305" x2="620" y2="305" stroke="#9ca3af" stroke-width="2.5"/><line x1="620" y1="305" x2="620" y2="323" stroke="#9ca3af" stroke-width="2"/><line x1="610" y1="323" x2="630" y2="323" stroke="#9ca3af" stroke-width="2"/><line x1="614" y1="330" x2="626" y2="330" stroke="#9ca3af" stroke-width="2"/><line x1="617" y1="337" x2="623" y2="337" stroke="#9ca3af" stroke-width="2"/><circle cx="660" cy="305" r="4" fill="#9ca3af"/><rect x="-30" y="110" width="70" height="26" rx="6" fill="#1e293b" stroke="#475569" stroke-width="1.5"/><text x="5" y="127" text-anchor="middle" font-size="10" fill="#fbbf24" font-weight="bold">5 V  USB</text><line x1="40" y1="123" x2="60" y2="123" stroke="#ef4444" stroke-width="2.5"/><circle cx="40" cy="123" r="4" fill="#ef4444"/><text x="465" y="384" text-anchor="middle" font-size="9.5" fill="#4ade80">DE / RE — auto-direction, no GPIO required</text><rect x="680" y="360" width="155" height="56" rx="6" fill="#1e293b" stroke="#475569" stroke-width="1" stroke-dasharray="5,3"/><text x="757" y="376" text-anchor="middle" font-size="10" fill="#fbbf24" font-weight="bold">120 Ω terminator</text><text x="757" y="391" text-anchor="middle" font-size="9" fill="#94a3b8">Solder across A–B inside</text><text x="757" y="404" text-anchor="middle" font-size="9" fill="#94a3b8">last fixture on long runs</text><line x1="757" y1="340" x2="757" y2="360" stroke="#475569" stroke-width="1.5" stroke-dasharray="4,3"/><text x="62" y="420" font-size="10" fill="#475569" font-weight="bold" letter-spacing="1">LEGEND</text><line x1="62" y1="436" x2="88" y2="436" stroke="#f59e0b" stroke-width="3" stroke-linecap="round"/><text x="95" y="440" font-size="10.5" fill="#cbd5e1">GPIO17 → RXD  (UART TX)</text><line x1="362" y1="436" x2="388" y2="436" stroke="#34d399" stroke-width="3" stroke-linecap="round"/><text x="395" y="440" font-size="10.5" fill="#cbd5e1">GPIO16 ← TXD  (UART RX)</text><line x1="662" y1="436" x2="688" y2="436" stroke="#ef4444" stroke-width="3" stroke-linecap="round"/><text x="695" y="440" font-size="10.5" fill="#cbd5e1">3.3 V power</text><line x1="62" y1="458" x2="88" y2="458" stroke="#9ca3af" stroke-width="3" stroke-linecap="round"/><text x="95" y="462" font-size="10.5" fill="#cbd5e1">GND</text><line x1="362" y1="458" x2="388" y2="458" stroke="#60a5fa" stroke-width="3" stroke-linecap="round"/><text x="395" y="462" font-size="10.5" fill="#cbd5e1">RS485 A  /  DMX Data +</text><line x1="662" y1="458" x2="688" y2="458" stroke="#c084fc" stroke-width="3" stroke-linecap="round"/><text x="695" y="462" font-size="10.5" fill="#cbd5e1">RS485 B  /  DMX Data −</text>
</svg>